<?xml version="1.0" encoding="UTF-8" standalone="no"?><svg xmlns="http://www.w3.org/2000/svg" xmlns:xlink="http://www.w3.org/1999/xlink" clip-rule="evenodd" stroke-miterlimit="10" viewBox="0 0 1024 768"><desc>SVG generated by Keynote</desc><defs></defs><g transform="matrix(1.00, 0.00, -0.00, -1.00, 0.0, 768.0)"><path d="M 0.0 768.0 L 1024.0 768.0 L 1024.0 0.0 L 0.0 0.0 Z M 0.0 768.0 " fill="#FCFEFC"></path><text xml:space="preserve" font-family="HelveticaNeue-Thin,Helvetica Neue" font-size="32.0" fill="#444144" transform="matrix(1.00, 0.00, -0.00, -1.00, 446.9, 513.7)">C</text><text xml:space="preserve" font-family="HelveticaNeue-Thin,Helvetica Neue" font-size="32.0" fill="#444144" transform="matrix(1.00, 0.00, -0.00, -1.00, 468.2, 513.7)">o</text><text xml:space="preserve" font-family="HelveticaNeue-Thin,Helvetica Neue" font-size="32.0" fill="#444144" transform="matrix(1.00, 0.00, -0.00, -1.00, 484.1, 513.7)">d</text><text xml:space="preserve" font-family="HelveticaNeue-Thin,Helvetica Neue" font-size="32.0" fill="#444144" transform="matrix(1.00, 0.00, -0.00, -1.00, 500.6, 513.7)">e</text><text xml:space="preserve" font-family="HelveticaNeue-Thin,Helvetica Neue" font-size="32.0" fill="#444144" transform="matrix(1.00, 0.00, -0.00, -1.00, 515.9, 513.7)"> </text><text xml:space="preserve" font-family="HelveticaNeue-Thin,Helvetica Neue" font-size="32.0" fill="#444144" transform="matrix(1.00, 0.00, -0.00, -1.00, 523.5, 513.7)">L</text><text xml:space="preserve" font-family="HelveticaNeue-Thin,Helvetica Neue" font-size="32.0" fill="#444144" transform="matrix(1.00, 0.00, -0.00, -1.00, 538.2, 513.7)">a</text><text xml:space="preserve" font-family="HelveticaNeue-Thin,Helvetica Neue" font-size="32.0" fill="#444144" transform="matrix(1.00, 0.00, -0.00, -1.00, 553.0, 513.7)">b</text><text xml:space="preserve" font-family="HelveticaNeue-Thin,Helvetica Neue" font-size="32.0" fill="#444144" transform="matrix(1.00, 0.00, -0.00, -1.00, 569.5, 513.7)">:</text><text xml:space="preserve" font-family="HelveticaNeue-Thin,Helvetica Neue" font-size="32.0" fill="#444144" transform="matrix(1.00, 0.00, -0.00, -1.00, 577.1, 513.7)"> </text><text xml:space="preserve" font-family="HelveticaNeue-Bold,Helvetica Neue" font-weight="bold" font-size="80.0" fill="#9955A1" transform="matrix(1.00, 0.00, -0.00, -1.00, 248.5, 428.7)">F</text><text xml:space="preserve" font-family="HelveticaNeue-Bold,Helvetica Neue" font-weight="bold" font-size="80.0" fill="#9955A1" transform="matrix(1.00, 0.00, -0.00, -1.00, 292.7, 428.7)">u</text><text xml:space="preserve" font-family="HelveticaNeue-Bold,Helvetica Neue" font-weight="bold" font-size="80.0" fill="#9955A1" transform="matrix(1.00, 0.00, -0.00, -1.00, 337.0, 428.7)">l</text><text xml:space="preserve" font-family="HelveticaNeue-Bold,Helvetica Neue" font-weight="bold" font-size="80.0" fill="#9955A1" transform="matrix(1.00, 0.00, -0.00, -1.00, 354.4, 428.7)">l</text><text xml:space="preserve" font-family="HelveticaNeue-Bold,Helvetica Neue" font-weight="bold" font-size="80.0" fill="#9955A1" transform="matrix(1.00, 0.00, -0.00, -1.00, 371.8, 428.7)">S</text><text xml:space="preserve" font-family="HelveticaNeue-Bold,Helvetica Neue" font-weight="bold" font-size="80.0" fill="#9955A1" transform="matrix(1.00, 0.00, -0.00, -1.00, 420.6, 428.7)">t</text><text xml:space="preserve" font-family="HelveticaNeue-Bold,Helvetica Neue" font-weight="bold" font-size="80.0" fill="#9955A1" transform="matrix(1.00, 0.00, -0.00, -1.00, 445.5, 428.7)">a</text><text xml:space="preserve" font-family="HelveticaNeue-Bold,Helvetica Neue" font-weight="bold" font-size="80.0" fill="#9955A1" transform="matrix(1.00, 0.00, -0.00, -1.00, 488.2, 428.7)">c</text><text xml:space="preserve" font-family="HelveticaNeue-Bold,Helvetica Neue" font-weight="bold" font-size="80.0" fill="#9955A1" transform="matrix(1.00, 0.00, -0.00, -1.00, 531.0, 428.7)">k</text><text xml:space="preserve" font-family="HelveticaNeue-Bold,Helvetica Neue" font-weight="bold" font-size="80.0" fill="#9955A1" transform="matrix(1.00, 0.00, -0.00, -1.00, 573.7, 428.7)"> </text><text xml:space="preserve" font-family="HelveticaNeue-Bold,Helvetica Neue" font-weight="bold" font-size="80.0" fill="#9955A1" transform="matrix(1.00, 0.00, -0.00, -1.00, 592.7, 428.7)">R</text><text xml:space="preserve" font-family="HelveticaNeue-Bold,Helvetica Neue" font-weight="bold" font-size="80.0" fill="#9955A1" transform="matrix(1.00, 0.00, -0.00, -1.00, 647.3, 428.7)">u</text><text xml:space="preserve" font-family="HelveticaNeue-Bold,Helvetica Neue" font-weight="bold" font-size="80.0" fill="#9955A1" transform="matrix(1.00, 0.00, -0.00, -1.00, 691.5, 428.7)">b</text><text xml:space="preserve" font-family="HelveticaNeue-Bold,Helvetica Neue" font-weight="bold" font-size="80.0" fill="#9955A1" transform="matrix(1.00, 0.00, -0.00, -1.00, 737.2, 428.7)">y</text><path d="M 0.0 400.0 L 1024.0 400.0 L 1024.0 311.0 L 0.0 311.0 Z M 0.2 400.0 " fill="#7ECABA"></path><g><clipPath id="clip0x6080006bd580"><path d="M -5.3 311.0 L 1029.3 311.0 L 1029.3 405.4 L -5.3 405.4 Z M -5.3 311.0 "></path></clipPath><g clip-path="url(#clip0x6080006bd580)"><text xml:space="preserve" font-family="HelveticaNeue-Thin,Helvetica Neue" font-size="32.0" fill="#414141" transform="matrix(1.00, 0.00, -0.00, -1.00, 369.9, 364.7)">E</text><text xml:space="preserve" font-family="HelveticaNeue-Thin,Helvetica Neue" font-size="32.0" fill="#414141" transform="matrix(1.00, 0.00, -0.00, -1.00, 387.8, 364.7)">l</text><text xml:space="preserve" font-family="HelveticaNeue-Thin,Helvetica Neue" font-size="32.0" fill="#414141" transform="matrix(1.00, 0.00, -0.00, -1.00, 393.2, 364.7)">i</text><text xml:space="preserve" font-family="HelveticaNeue-Thin,Helvetica Neue" font-size="32.0" fill="#414141" transform="matrix(1.00, 0.00, -0.00, -1.00, 398.5, 364.7)">a</text><text xml:space="preserve" font-family="HelveticaNeue-Thin,Helvetica Neue" font-size="32.0" fill="#414141" transform="matrix(1.00, 0.00, -0.00, -1.00, 414.5, 364.7)"> </text><text xml:space="preserve" font-family="HelveticaNeue-Thin,Helvetica Neue" font-size="32.0" fill="#414141" transform="matrix(1.00, 0.00, -0.00, -1.00, 423.4, 364.7)">S</text><text xml:space="preserve" font-family="HelveticaNeue-Thin,Helvetica Neue" font-size="32.0" fill="#414141" transform="matrix(1.00, 0.00, -0.00, -1.00, 443.6, 364.7)">c</text><text xml:space="preserve" font-family="HelveticaNeue-Thin,Helvetica Neue" font-size="32.0" fill="#414141" transform="matrix(1.00, 0.00, -0.00, -1.00, 460.2, 364.7)">h</text><text xml:space="preserve" font-family="HelveticaNeue-Thin,Helvetica Neue" font-size="32.0" fill="#414141" transform="matrix(1.00, 0.00, -0.00, -1.00, 476.8, 364.7)">i</text><text xml:space="preserve" font-family="HelveticaNeue-Thin,Helvetica Neue" font-size="32.0" fill="#414141" transform="matrix(1.00, 0.00, -0.00, -1.00, 482.2, 364.7)">t</text><text xml:space="preserve" font-family="HelveticaNeue-Thin,Helvetica Neue" font-size="32.0" fill="#414141" transform="matrix(1.00, 0.00, -0.00, -1.00, 490.0, 364.7)">o</text><text xml:space="preserve" font-family="HelveticaNeue-Thin,Helvetica Neue" font-size="32.0" fill="#414141" transform="matrix(1.00, 0.00, -0.00, -1.00, 507.2, 364.7)"> </text><text xml:space="preserve" font-family="HelveticaNeue-Thin,Helvetica Neue" font-size="32.0" fill="#414141" transform="matrix(1.00, 0.00, -0.00, -1.00, 516.1, 364.7)">·</text><text xml:space="preserve" font-family="HelveticaNeue-Thin,Helvetica Neue" font-size="32.0" fill="#414141" transform="matrix(1.00, 0.00, -0.00, -1.00, 525.0, 364.7)"> </text><text xml:space="preserve" font-family="HelveticaNeue-Thin,Helvetica Neue" font-size="32.0" fill="#414141" transform="matrix(1.00, 0.00, -0.00, -1.00, 533.9, 364.7)">M</text><text xml:space="preserve" font-family="HelveticaNeue-Thin,Helvetica Neue" font-size="32.0" fill="#414141" transform="matrix(1.00, 0.00, -0.00, -1.00, 559.8, 364.7)">I</text><text xml:space="preserve" font-family="HelveticaNeue-Thin,Helvetica Neue" font-size="32.0" fill="#414141" transform="matrix(1.00, 0.00, -0.00, -1.00, 565.2, 364.7)">K</text><text xml:space="preserve" font-family="HelveticaNeue-Thin,Helvetica Neue" font-size="32.0" fill="#414141" transform="matrix(1.00, 0.00, -0.00, -1.00, 584.8, 364.7)">A</text><text xml:space="preserve" font-family="HelveticaNeue-Thin,Helvetica Neue" font-size="32.0" fill="#414141" transform="matrix(1.00, 0.00, -0.00, -1.00, 603.8, 364.7)">M</text><text xml:space="preserve" font-family="HelveticaNeue-Thin,Helvetica Neue" font-size="32.0" fill="#414141" transform="matrix(1.00, 0.00, -0.00, -1.00, 629.7, 364.7)">A</text><text xml:space="preserve" font-family="HelveticaNeue-Thin,Helvetica Neue" font-size="32.0" fill="#414141" transform="matrix(1.00, 0.00, -0.00, -1.00, 648.7, 364.7)">I</text></g></g><g><clipPath id="clip0x6080006bdf40"><path d="M 549.6 63.4 L 580.8 63.4 L 580.8 94.6 L 549.6 94.6 Z M 549.6 63.4 "></path></clipPath><g clip-path="url(#clip0x6080006bdf40)"><image xlink:href="0879FE3DA5560A566EAEF5A4DDB3A726.png" width="384.00" height="384.00" transform="matrix(0.08, 0.00, -0.00, -0.08, 549.6, 94.6)" opacity="0.36"></image></g></g><g><clipPath id="clip0x6000008b65c0"><path d="M 514.1 63.4 L 545.4 63.4 L 545.4 94.6 L 514.1 94.6 Z M 514.1 63.4 "></path></clipPath><g clip-path="url(#clip0x6000008b65c0)"><image xlink:href="B2F02D799E58B046C3C948176DF096D9.png" width="384.00" height="384.00" transform="matrix(0.08, 0.00, -0.00, -0.08, 514.1, 94.6)" opacity="0.36"></image></g></g><g><clipPath id="clip0x6000008b6620"><path d="M 478.6 63.4 L 509.9 63.4 L 509.9 94.6 L 478.6 94.6 Z M 478.6 63.4 "></path></clipPath><g clip-path="url(#clip0x6000008b6620)"><image xlink:href="9A4DB750DCAC24ADFCDDCA956319E8FD.png" width="384.00" height="384.00" transform="matrix(0.08, 0.00, -0.00, -0.08, 478.6, 94.6)" opacity="0.36"></image></g></g><g><clipPath id="clip0x6000008b6860"><path d="M 443.2 63.4 L 474.4 63.4 L 474.4 94.6 L 443.2 94.6 Z M 443.2 63.4 "></path></clipPath><g clip-path="url(#clip0x6000008b6860)"><image xlink:href="35E168461B8A6485A98D9215A067B2AC.png" width="384.00" height="384.00" transform="matrix(0.08, 0.00, -0.00, -0.08, 443.2, 94.6)" opacity="0.36"></image></g></g><g><clipPath id="clip0x6080006bdfa0"><path d="M 358.5 139.9 L 665.5 139.9 L 665.5 194.7 L 358.5 194.7 Z M 358.5 139.9 "></path></clipPath><g clip-path="url(#clip0x6080006bdfa0)"><image xlink:href="76D6F2987A372B239191918CC1E29AD0.png" width="2240.00" height="400.00" transform="matrix(0.14, 0.00, -0.00, -0.14, 358.5, 194.7)" opacity="0.80"></image></g></g><g><clipPath id="clip0x6000008b6b00"><path d="M 391.5 97.1 L 632.5 97.1 L 632.5 144.7 L 391.5 144.7 Z M 391.5 97.1 "></path></clipPath><g clip-path="url(#clip0x6000008b6b00)"><text xml:space="preserve" font-family="Helvetica-Light,Helvetica" font-size="26.0" fill="#514F4D" transform="matrix(1.00, 0.00, -0.00, -1.00, 398.7, 112.9)">M</text><text xml:space="preserve" font-family="Helvetica-Light,Helvetica" font-size="26.0" fill="#514F4D" transform="matrix(1.00, 0.00, -0.00, -1.00, 420.4, 112.9)">I</text><text xml:space="preserve" font-family="Helvetica-Light,Helvetica" font-size="26.0" fill="#514F4D" transform="matrix(1.00, 0.00, -0.00, -1.00, 427.6, 112.9)">L</text><text xml:space="preserve" font-family="Helvetica-Light,Helvetica" font-size="26.0" fill="#514F4D" transform="matrix(1.00, 0.00, -0.00, -1.00, 442.1, 112.9)">A</text><text xml:space="preserve" font-family="Helvetica-Light,Helvetica" font-size="26.0" fill="#514F4D" transform="matrix(1.00, 0.00, -0.00, -1.00, 459.4, 112.9)">N</text><text xml:space="preserve" font-family="Helvetica-Light,Helvetica" font-size="26.0" fill="#514F4D" transform="matrix(1.00, 0.00, -0.00, -1.00, 478.2, 112.9)">O</text><text xml:space="preserve" font-family="Helvetica-Light,Helvetica" font-size="26.0" fill="#514F4D" transform="matrix(1.00, 0.00, -0.00, -1.00, 498.4, 112.9)"> </text><text xml:space="preserve" font-family="HelpUsGiambattista,HelpUsGiambattista" font-size="27.0" fill="#974EA1" transform="matrix(1.00, 0.00, -0.00, -1.00, 505.7, 113.9)">3</text><text xml:space="preserve" font-family="HelpUsGiambattista,HelpUsGiambattista" font-size="27.0" fill="#974EA1" transform="matrix(1.00, 0.00, -0.00, -1.00, 519.2, 113.9)">0</text><text xml:space="preserve" font-family="HelpUsGiambattista,HelpUsGiambattista" font-size="27.0" fill="#514F4D" transform="matrix(1.00, 0.00, -0.00, -1.00, 532.7, 113.9)">.</text><text xml:space="preserve" font-family="HelpUsGiambattista,HelpUsGiambattista" font-size="27.0" fill="#514F4D" transform="matrix(1.00, 0.00, -0.00, -1.00, 538.5, 113.9)">1</text><text xml:space="preserve" font-family="HelpUsGiambattista,HelpUsGiambattista" font-size="27.0" fill="#514F4D" transform="matrix(1.00, 0.00, -0.00, -1.00, 552.0, 113.9)">1</text><text xml:space="preserve" font-family="HelpUsGiambattista,HelpUsGiambattista" font-size="27.0" fill="#514F4D" transform="matrix(1.00, 0.00, -0.00, -1.00, 565.5, 113.9)">.</text><text xml:space="preserve" font-family="HelpUsGiambattista,HelpUsGiambattista" font-size="27.0" fill="#514F4D" transform="matrix(1.00, 0.00, -0.00, -1.00, 571.3, 113.9)">2</text><text xml:space="preserve" font-family="HelpUsGiambattista,HelpUsGiambattista" font-size="27.0" fill="#514F4D" transform="matrix(1.00, 0.00, -0.00, -1.00, 584.8, 113.9)">0</text><text xml:space="preserve" font-family="HelpUsGiambattista,HelpUsGiambattista" font-size="27.0" fill="#514F4D" transform="matrix(1.00, 0.00, -0.00, -1.00, 598.3, 113.9)">1</text><text xml:space="preserve" font-family="HelpUsGiambattista,HelpUsGiambattista" font-size="27.0" fill="#514F4D" transform="matrix(1.00, 0.00, -0.00, -1.00, 611.8, 113.9)">3</text></g></g><g><clipPath id="clip0x6000008b73a0"><path d="M -346.3 -341.5 L 242.6 -341.5 L 242.6 255.0 L -346.3 255.0 Z M -346.3 -341.5 "></path></clipPath><g clip-path="url(#clip0x6000008b73a0)"><path d="M 449.8 78.3 C 552.7 182.7 552.7 351.9 449.8 456.3 C 346.9 560.6 180.1 560.6 77.2 456.3 C -25.7 351.9 -25.7 182.7 77.2 78.3 C 180.1 -26.1 346.9 -26.1 449.8 78.3 Z M 449.8 78.3 " fill="none" stroke="#78CABB" stroke-opacity="0.47" stroke-width="60.00" transform="matrix(1.00, 0.00, 0.00, -1.00, -315.3, 224.0)"></path></g></g><g><clipPath id="clip0x6000008b75e0"><path d="M -233.7 -227.3 L 130.0 -227.3 L 130.0 140.8 L -233.7 140.8 Z M -233.7 -227.3 "></path></clipPath><g clip-path="url(#clip0x6000008b75e0)"><path d="M 257.6 44.8 C 316.5 104.6 316.5 201.5 257.6 261.3 C 198.6 321.0 103.1 321.0 44.2 261.3 C -14.7 201.5 -14.7 104.6 44.2 44.8 C 103.1 -14.9 198.6 -14.9 257.6 44.8 Z M 257.6 44.8 " fill="none" stroke="#78CABB" stroke-opacity="0.47" stroke-width="60.00" transform="matrix(1.00, 0.00, 0.00, -1.00, -202.7, 109.8)"></path></g></g><path d="M 1165.8 143.9 C 1243.4 65.1 1243.4 -62.6 1165.8 -141.3 C 1088.2 -220.1 962.3 -220.1 884.6 -141.3 C 807.0 -62.6 807.0 65.1 884.6 143.9 C 962.3 222.6 1088.2 222.6 1165.8 143.9 Z M 1165.8 143.9 " fill="#FCFEFC"></path><path d="M 339.4 59.1 C 417.0 137.8 417.0 265.5 339.4 344.3 C 261.8 423.0 135.9 423.0 58.2 344.3 C -19.4 265.5 -19.4 137.8 58.2 59.1 C 135.9 -19.7 261.8 -19.7 339.4 59.1 Z M 339.4 59.1 " fill="none" stroke="#B498B5" stroke-width="100.00" transform="matrix(1.00, 0.00, 0.00, -1.00, 826.4, 202.9)"></path></g></svg>