<?xml version="1.0" encoding="UTF-8" standalone="no"?><svg xmlns="http://www.w3.org/2000/svg" xmlns:xlink="http://www.w3.org/1999/xlink" clip-rule="evenodd" stroke-miterlimit="10" viewBox="0 0 1024 768"><desc>SVG generated by Keynote</desc><defs></defs><g transform="matrix(1.00, 0.00, -0.00, -1.00, 0.0, 768.0)"><path d="M 0.0 768.0 L 1024.0 768.0 L 1024.0 0.0 L 0.0 0.0 Z M 0.0 768.0 " fill="#0065C0"></path><text xml:space="preserve" font-family="HelveticaNeue-Bold,Helvetica Neue" font-weight="bold" font-size="80.0" fill="#FEFFFF" transform="matrix(1.00, 0.00, -0.00, -1.00, 246.4, 632.7)">o</text><text xml:space="preserve" font-family="HelveticaNeue-Bold,Helvetica Neue" font-weight="bold" font-size="80.0" fill="#FEFFFF" transform="matrix(1.00, 0.00, -0.00, -1.00, 292.1, 632.7)">b</text><text xml:space="preserve" font-family="HelveticaNeue-Bold,Helvetica Neue" font-weight="bold" font-size="80.0" fill="#FEFFFF" transform="matrix(1.00, 0.00, -0.00, -1.00, 337.8, 632.7)">j</text><text xml:space="preserve" font-family="HelveticaNeue-Bold,Helvetica Neue" font-weight="bold" font-size="80.0" fill="#FEFFFF" transform="matrix(1.00, 0.00, -0.00, -1.00, 356.8, 632.7)">e</text><text xml:space="preserve" font-family="HelveticaNeue-Bold,Helvetica Neue" font-weight="bold" font-size="80.0" fill="#FEFFFF" transform="matrix(1.00, 0.00, -0.00, -1.00, 399.5, 632.7)">c</text><text xml:space="preserve" font-family="HelveticaNeue-Bold,Helvetica Neue" font-weight="bold" font-size="80.0" fill="#FEFFFF" transform="matrix(1.00, 0.00, -0.00, -1.00, 442.2, 632.7)">t</text><text xml:space="preserve" font-family="HelveticaNeue-Bold,Helvetica Neue" font-weight="bold" font-size="80.0" fill="#FEFFFF" transform="matrix(1.00, 0.00, -0.00, -1.00, 467.2, 632.7)"> </text><text xml:space="preserve" font-family="HelveticaNeue-Bold,Helvetica Neue" font-weight="bold" font-size="80.0" fill="#FEFFFF" transform="matrix(1.00, 0.00, -0.00, -1.00, 486.2, 632.7)">o</text><text xml:space="preserve" font-family="HelveticaNeue-Bold,Helvetica Neue" font-weight="bold" font-size="80.0" fill="#FEFFFF" transform="matrix(1.00, 0.00, -0.00, -1.00, 531.9, 632.7)">r</text><text xml:space="preserve" font-family="HelveticaNeue-Bold,Helvetica Neue" font-weight="bold" font-size="80.0" fill="#FEFFFF" transform="matrix(1.00, 0.00, -0.00, -1.00, 559.8, 632.7)">i</text><text xml:space="preserve" font-family="HelveticaNeue-Bold,Helvetica Neue" font-weight="bold" font-size="80.0" fill="#FEFFFF" transform="matrix(1.00, 0.00, -0.00, -1.00, 577.3, 632.7)">e</text><text xml:space="preserve" font-family="HelveticaNeue-Bold,Helvetica Neue" font-weight="bold" font-size="80.0" fill="#FEFFFF" transform="matrix(1.00, 0.00, -0.00, -1.00, 620.0, 632.7)">n</text><text xml:space="preserve" font-family="HelveticaNeue-Bold,Helvetica Neue" font-weight="bold" font-size="80.0" fill="#FEFFFF" transform="matrix(1.00, 0.00, -0.00, -1.00, 664.2, 632.7)">t</text><text xml:space="preserve" font-family="HelveticaNeue-Bold,Helvetica Neue" font-weight="bold" font-size="80.0" fill="#FEFFFF" transform="matrix(1.00, 0.00, -0.00, -1.00, 689.2, 632.7)">e</text><text xml:space="preserve" font-family="HelveticaNeue-Bold,Helvetica Neue" font-weight="bold" font-size="80.0" fill="#FEFFFF" transform="matrix(1.00, 0.00, -0.00, -1.00, 731.9, 632.7)">d</text><text xml:space="preserve" font-family="HelveticaNeue-Bold,Helvetica Neue" font-weight="bold" font-size="29.6" fill="#FEFFFF" transform="matrix(1.00, 0.00, -0.00, -1.00, 79.0, 522.4)">•</text><text xml:space="preserve" font-family="HelveticaNeue-Bold,Helvetica Neue" font-weight="bold" font-size="39.5" fill="#FEFFFF" transform="matrix(1.00, 0.00, -0.00, -1.00, 111.9, 518.7)">P</text><text xml:space="preserve" font-family="HelveticaNeue-Bold,Helvetica Neue" font-weight="bold" font-size="39.5" fill="#FEFFFF" transform="matrix(1.00, 0.00, -0.00, -1.00, 138.2, 518.7)">r</text><text xml:space="preserve" font-family="HelveticaNeue-Bold,Helvetica Neue" font-weight="bold" font-size="39.5" fill="#FEFFFF" transform="matrix(1.00, 0.00, -0.00, -1.00, 153.6, 518.7)">i</text><text xml:space="preserve" font-family="HelveticaNeue-Bold,Helvetica Neue" font-weight="bold" font-size="39.5" fill="#FEFFFF" transform="matrix(1.00, 0.00, -0.00, -1.00, 163.8, 518.7)">m</text><text xml:space="preserve" font-family="HelveticaNeue-Bold,Helvetica Neue" font-weight="bold" font-size="39.5" fill="#FEFFFF" transform="matrix(1.00, 0.00, -0.00, -1.00, 199.5, 518.7)">i</text><text xml:space="preserve" font-family="HelveticaNeue-Bold,Helvetica Neue" font-weight="bold" font-size="39.5" fill="#FEFFFF" transform="matrix(1.00, 0.00, -0.00, -1.00, 209.7, 518.7)">t</text><text xml:space="preserve" font-family="HelveticaNeue-Bold,Helvetica Neue" font-weight="bold" font-size="39.5" fill="#FEFFFF" transform="matrix(1.00, 0.00, -0.00, -1.00, 223.6, 518.7)">e</text><text xml:space="preserve" font-family="HelveticaNeue-Bold,Helvetica Neue" font-weight="bold" font-size="39.5" fill="#FEFFFF" transform="matrix(1.00, 0.00, -0.00, -1.00, 246.3, 518.7)">v</text><text xml:space="preserve" font-family="HelveticaNeue-Bold,Helvetica Neue" font-weight="bold" font-size="39.5" fill="#FEFFFF" transform="matrix(1.00, 0.00, -0.00, -1.00, 266.8, 518.7)">e</text><text xml:space="preserve" font-family="HelveticaNeue-Bold,Helvetica Neue" font-weight="bold" font-size="39.5" fill="#FEFFFF" transform="matrix(1.00, 0.00, -0.00, -1.00, 289.5, 518.7)">s</text><text xml:space="preserve" font-family="HelveticaNeue-Bold,Helvetica Neue" font-weight="bold" font-size="39.5" fill="#FEFFFF" transform="matrix(1.00, 0.00, -0.00, -1.00, 310.7, 518.7)">:</text><text xml:space="preserve" font-family="HelveticaNeue-Thin,Helvetica Neue" font-size="39.5" fill="#FEFFFF" transform="matrix(1.00, 0.00, -0.00, -1.00, 321.7, 518.7)"> </text><text xml:space="preserve" font-family="HelveticaNeue-Thin,Helvetica Neue" font-size="39.5" fill="#FEFFFF" transform="matrix(1.00, 0.00, -0.00, -1.00, 332.6, 518.7)">s</text><text xml:space="preserve" font-family="HelveticaNeue-Thin,Helvetica Neue" font-size="39.5" fill="#FEFFFF" transform="matrix(1.00, 0.00, -0.00, -1.00, 351.6, 518.7)">o</text><text xml:space="preserve" font-family="HelveticaNeue-Thin,Helvetica Neue" font-size="39.5" fill="#FEFFFF" transform="matrix(1.00, 0.00, -0.00, -1.00, 372.8, 518.7)">m</text><text xml:space="preserve" font-family="HelveticaNeue-Thin,Helvetica Neue" font-size="39.5" fill="#FEFFFF" transform="matrix(1.00, 0.00, -0.00, -1.00, 404.2, 518.7)">e</text><text xml:space="preserve" font-family="HelveticaNeue-Thin,Helvetica Neue" font-size="39.5" fill="#FEFFFF" transform="matrix(1.00, 0.00, -0.00, -1.00, 424.7, 518.7)"> </text><text xml:space="preserve" font-family="HelveticaNeue-Thin,Helvetica Neue" font-size="39.5" fill="#FEFFFF" transform="matrix(1.00, 0.00, -0.00, -1.00, 435.7, 518.7)">s</text><text xml:space="preserve" font-family="HelveticaNeue-Thin,Helvetica Neue" font-size="39.5" fill="#FEFFFF" transform="matrix(1.00, 0.00, -0.00, -1.00, 454.7, 518.7)">t</text><text xml:space="preserve" font-family="HelveticaNeue-Thin,Helvetica Neue" font-size="39.5" fill="#FEFFFF" transform="matrix(1.00, 0.00, -0.00, -1.00, 464.9, 518.7)">u</text><text xml:space="preserve" font-family="HelveticaNeue-Thin,Helvetica Neue" font-size="39.5" fill="#FEFFFF" transform="matrix(1.00, 0.00, -0.00, -1.00, 485.4, 518.7)">ﬀ</text><text xml:space="preserve" font-family="HelveticaNeue-Thin,Helvetica Neue" font-size="39.5" fill="#FEFFFF" transform="matrix(1.00, 0.00, -0.00, -1.00, 503.1, 518.7)"> </text><text xml:space="preserve" font-family="HelveticaNeue-Thin,Helvetica Neue" font-size="39.5" fill="#FEFFFF" transform="matrix(1.00, 0.00, -0.00, -1.00, 514.1, 518.7)">i</text><text xml:space="preserve" font-family="HelveticaNeue-Thin,Helvetica Neue" font-size="39.5" fill="#FEFFFF" transform="matrix(1.00, 0.00, -0.00, -1.00, 520.7, 518.7)">s</text><text xml:space="preserve" font-family="HelveticaNeue-Thin,Helvetica Neue" font-size="39.5" fill="#FEFFFF" transform="matrix(1.00, 0.00, -0.00, -1.00, 539.7, 518.7)">n</text><text xml:space="preserve" font-family="HelveticaNeue-Thin,Helvetica Neue" font-size="39.5" fill="#FEFFFF" transform="matrix(1.00, 0.00, -0.00, -1.00, 560.2, 518.7)">’</text><text xml:space="preserve" font-family="HelveticaNeue-Thin,Helvetica Neue" font-size="39.5" fill="#FEFFFF" transform="matrix(1.00, 0.00, -0.00, -1.00, 568.2, 518.7)">t</text><text xml:space="preserve" font-family="HelveticaNeue-Thin,Helvetica Neue" font-size="39.5" fill="#FEFFFF" transform="matrix(1.00, 0.00, -0.00, -1.00, 578.5, 518.7)"> </text><text xml:space="preserve" font-family="HelveticaNeue-Thin,Helvetica Neue" font-size="39.5" fill="#FEFFFF" transform="matrix(1.00, 0.00, -0.00, -1.00, 589.5, 518.7)">a</text><text xml:space="preserve" font-family="HelveticaNeue-Thin,Helvetica Neue" font-size="39.5" fill="#FEFFFF" transform="matrix(1.00, 0.00, -0.00, -1.00, 609.2, 518.7)">n</text><text xml:space="preserve" font-family="HelveticaNeue-Thin,Helvetica Neue" font-size="39.5" fill="#FEFFFF" transform="matrix(1.00, 0.00, -0.00, -1.00, 629.7, 518.7)"> </text><text xml:space="preserve" font-family="HelveticaNeue-Thin,Helvetica Neue" font-size="39.5" fill="#FEFFFF" transform="matrix(1.00, 0.00, -0.00, -1.00, 640.7, 518.7)">o</text><text xml:space="preserve" font-family="HelveticaNeue-Thin,Helvetica Neue" font-size="39.5" fill="#FEFFFF" transform="matrix(1.00, 0.00, -0.00, -1.00, 661.9, 518.7)">b</text><text xml:space="preserve" font-family="HelveticaNeue-Thin,Helvetica Neue" font-size="39.5" fill="#FEFFFF" transform="matrix(1.00, 0.00, -0.00, -1.00, 683.8, 518.7)">j</text><text xml:space="preserve" font-family="HelveticaNeue-Thin,Helvetica Neue" font-size="39.5" fill="#FEFFFF" transform="matrix(1.00, 0.00, -0.00, -1.00, 690.4, 518.7)">e</text><text xml:space="preserve" font-family="HelveticaNeue-Thin,Helvetica Neue" font-size="39.5" fill="#FEFFFF" transform="matrix(1.00, 0.00, -0.00, -1.00, 710.9, 518.7)">c</text><text xml:space="preserve" font-family="HelveticaNeue-Thin,Helvetica Neue" font-size="39.5" fill="#FEFFFF" transform="matrix(1.00, 0.00, -0.00, -1.00, 731.4, 518.7)">t</text><text xml:space="preserve" font-family="HelveticaNeue-Thin,Helvetica Neue" font-size="39.5" fill="#FEFFFF" transform="matrix(1.00, 0.00, -0.00, -1.00, 741.6, 518.7)"> </text><text xml:space="preserve" font-family="HelveticaNeue-Bold,Helvetica Neue" font-weight="bold" font-size="29.6" fill="#FEFFFF" transform="matrix(1.00, 0.00, -0.00, -1.00, 114.0, 435.4)">•</text><text xml:space="preserve" font-family="HelveticaNeue-Thin,Helvetica Neue" font-size="39.5" fill="#FEFFFF" transform="matrix(1.00, 0.00, -0.00, -1.00, 146.9, 432.1)">J</text><text xml:space="preserve" font-family="HelveticaNeue-Thin,Helvetica Neue" font-size="39.5" fill="#FEFFFF" transform="matrix(1.00, 0.00, -0.00, -1.00, 165.9, 432.1)">a</text><text xml:space="preserve" font-family="HelveticaNeue-Thin,Helvetica Neue" font-size="39.5" fill="#FEFFFF" transform="matrix(1.00, 0.00, -0.00, -1.00, 185.6, 432.1)">v</text><text xml:space="preserve" font-family="HelveticaNeue-Thin,Helvetica Neue" font-size="39.5" fill="#FEFFFF" transform="matrix(1.00, 0.00, -0.00, -1.00, 203.2, 432.1)">a</text><text xml:space="preserve" font-family="HelveticaNeue-Thin,Helvetica Neue" font-size="39.5" fill="#FEFFFF" transform="matrix(1.00, 0.00, -0.00, -1.00, 222.9, 432.1)">:</text><text xml:space="preserve" font-family="HelveticaNeue-Thin,Helvetica Neue" font-size="39.5" fill="#FEFFFF" transform="matrix(1.00, 0.00, -0.00, -1.00, 233.9, 432.1)"> </text><text xml:space="preserve" font-family="HelveticaNeue-Thin,Helvetica Neue" font-size="39.5" fill="#FEFFFF" transform="matrix(1.00, 0.00, -0.00, -1.00, 244.8, 432.1)">s</text><text xml:space="preserve" font-family="HelveticaNeue-Thin,Helvetica Neue" font-size="39.5" fill="#FEFFFF" transform="matrix(1.00, 0.00, -0.00, -1.00, 263.8, 432.1)">t</text><text xml:space="preserve" font-family="HelveticaNeue-Thin,Helvetica Neue" font-size="39.5" fill="#FEFFFF" transform="matrix(1.00, 0.00, -0.00, -1.00, 274.1, 432.1)">r</text><text xml:space="preserve" font-family="HelveticaNeue-Thin,Helvetica Neue" font-size="39.5" fill="#FEFFFF" transform="matrix(1.00, 0.00, -0.00, -1.00, 285.0, 432.1)">i</text><text xml:space="preserve" font-family="HelveticaNeue-Thin,Helvetica Neue" font-size="39.5" fill="#FEFFFF" transform="matrix(1.00, 0.00, -0.00, -1.00, 291.7, 432.1)">n</text><text xml:space="preserve" font-family="HelveticaNeue-Thin,Helvetica Neue" font-size="39.5" fill="#FEFFFF" transform="matrix(1.00, 0.00, -0.00, -1.00, 312.2, 432.1)">g</text><text xml:space="preserve" font-family="HelveticaNeue-Thin,Helvetica Neue" font-size="39.5" fill="#FEFFFF" transform="matrix(1.00, 0.00, -0.00, -1.00, 333.4, 432.1)"> </text><text xml:space="preserve" font-family="HelveticaNeue-Thin,Helvetica Neue" font-size="39.5" fill="#FEFFFF" transform="matrix(1.00, 0.00, -0.00, -1.00, 344.3, 432.1)">=</text><text xml:space="preserve" font-family="HelveticaNeue-Thin,Helvetica Neue" font-size="39.5" fill="#FEFFFF" transform="matrix(1.00, 0.00, -0.00, -1.00, 368.0, 432.1)"> </text><text xml:space="preserve" font-family="HelveticaNeue-Thin,Helvetica Neue" font-size="39.5" fill="#FEFFFF" transform="matrix(1.00, 0.00, -0.00, -1.00, 379.0, 432.1)">S</text><text xml:space="preserve" font-family="HelveticaNeue-Thin,Helvetica Neue" font-size="39.5" fill="#FEFFFF" transform="matrix(1.00, 0.00, -0.00, -1.00, 403.7, 432.1)">t</text><text xml:space="preserve" font-family="HelveticaNeue-Thin,Helvetica Neue" font-size="39.5" fill="#FEFFFF" transform="matrix(1.00, 0.00, -0.00, -1.00, 413.9, 432.1)">r</text><text xml:space="preserve" font-family="HelveticaNeue-Thin,Helvetica Neue" font-size="39.5" fill="#FEFFFF" transform="matrix(1.00, 0.00, -0.00, -1.00, 424.9, 432.1)">i</text><text xml:space="preserve" font-family="HelveticaNeue-Thin,Helvetica Neue" font-size="39.5" fill="#FEFFFF" transform="matrix(1.00, 0.00, -0.00, -1.00, 431.6, 432.1)">n</text><text xml:space="preserve" font-family="HelveticaNeue-Thin,Helvetica Neue" font-size="39.5" fill="#FEFFFF" transform="matrix(1.00, 0.00, -0.00, -1.00, 452.0, 432.1)">g</text><text xml:space="preserve" font-family="HelveticaNeue-Thin,Helvetica Neue" font-size="39.5" fill="#FEFFFF" transform="matrix(1.00, 0.00, -0.00, -1.00, 473.2, 432.1)">.</text><text xml:space="preserve" font-family="HelveticaNeue-Thin,Helvetica Neue" font-size="39.5" fill="#FEFFFF" transform="matrix(1.00, 0.00, -0.00, -1.00, 484.2, 432.1)">v</text><text xml:space="preserve" font-family="HelveticaNeue-Thin,Helvetica Neue" font-size="39.5" fill="#FEFFFF" transform="matrix(1.00, 0.00, -0.00, -1.00, 501.7, 432.1)">a</text><text xml:space="preserve" font-family="HelveticaNeue-Thin,Helvetica Neue" font-size="39.5" fill="#FEFFFF" transform="matrix(1.00, 0.00, -0.00, -1.00, 521.5, 432.1)">l</text><text xml:space="preserve" font-family="HelveticaNeue-Thin,Helvetica Neue" font-size="39.5" fill="#FEFFFF" transform="matrix(1.00, 0.00, -0.00, -1.00, 528.1, 432.1)">u</text><text xml:space="preserve" font-family="HelveticaNeue-Thin,Helvetica Neue" font-size="39.5" fill="#FEFFFF" transform="matrix(1.00, 0.00, -0.00, -1.00, 548.6, 432.1)">e</text><text xml:space="preserve" font-family="HelveticaNeue-Thin,Helvetica Neue" font-size="39.5" fill="#FEFFFF" transform="matrix(1.00, 0.00, -0.00, -1.00, 569.1, 432.1)">O</text><text xml:space="preserve" font-family="HelveticaNeue-Thin,Helvetica Neue" font-size="39.5" fill="#FEFFFF" transform="matrix(1.00, 0.00, -0.00, -1.00, 598.4, 432.1)">f</text><text xml:space="preserve" font-family="HelveticaNeue-Thin,Helvetica Neue" font-size="39.5" fill="#FEFFFF" transform="matrix(1.00, 0.00, -0.00, -1.00, 607.9, 432.1)">(</text><text xml:space="preserve" font-family="HelveticaNeue-Thin,Helvetica Neue" font-size="39.5" fill="#FEFFFF" transform="matrix(1.00, 0.00, -0.00, -1.00, 617.4, 432.1)">1</text><text xml:space="preserve" font-family="HelveticaNeue-Thin,Helvetica Neue" font-size="39.5" fill="#FEFFFF" transform="matrix(1.00, 0.00, -0.00, -1.00, 639.3, 432.1)">)</text><text xml:space="preserve" font-family="HelveticaNeue-Thin,Helvetica Neue" font-size="39.5" fill="#FEFFFF" transform="matrix(1.00, 0.00, -0.00, -1.00, 648.8, 432.1)">;</text><text xml:space="preserve" font-family="HelveticaNeue-Thin,Helvetica Neue" font-size="39.5" fill="#FEFFFF" transform="matrix(1.00, 0.00, -0.00, -1.00, 659.8, 432.1)"> </text><text xml:space="preserve" font-family="HelveticaNeue-Bold,Helvetica Neue" font-weight="bold" font-size="29.6" fill="#FEFFFF" transform="matrix(1.00, 0.00, -0.00, -1.00, 114.0, 349.0)">•</text><text xml:space="preserve" font-family="HelveticaNeue-Thin,Helvetica Neue" font-size="39.5" fill="#FEFFFF" transform="matrix(1.00, 0.00, -0.00, -1.00, 146.9, 345.6)">f</text><text xml:space="preserve" font-family="HelveticaNeue-Thin,Helvetica Neue" font-size="39.5" fill="#FEFFFF" transform="matrix(1.00, 0.00, -0.00, -1.00, 156.4, 345.6)">o</text><text xml:space="preserve" font-family="HelveticaNeue-Thin,Helvetica Neue" font-size="39.5" fill="#FEFFFF" transform="matrix(1.00, 0.00, -0.00, -1.00, 177.6, 345.6)">r</text><text xml:space="preserve" font-family="HelveticaNeue-Thin,Helvetica Neue" font-size="39.5" fill="#FEFFFF" transform="matrix(1.00, 0.00, -0.00, -1.00, 188.6, 345.6)">(</text><text xml:space="preserve" font-family="HelveticaNeue-Thin,Helvetica Neue" font-size="39.5" fill="#FEFFFF" transform="matrix(1.00, 0.00, -0.00, -1.00, 198.1, 345.6)">i</text><text xml:space="preserve" font-family="HelveticaNeue-Thin,Helvetica Neue" font-size="39.5" fill="#FEFFFF" transform="matrix(1.00, 0.00, -0.00, -1.00, 204.7, 345.6)">n</text><text xml:space="preserve" font-family="HelveticaNeue-Thin,Helvetica Neue" font-size="39.5" fill="#FEFFFF" transform="matrix(1.00, 0.00, -0.00, -1.00, 225.2, 345.6)">t</text><text xml:space="preserve" font-family="HelveticaNeue-Thin,Helvetica Neue" font-size="39.5" fill="#FEFFFF" transform="matrix(1.00, 0.00, -0.00, -1.00, 235.5, 345.6)"> </text><text xml:space="preserve" font-family="HelveticaNeue-Thin,Helvetica Neue" font-size="39.5" fill="#FEFFFF" transform="matrix(1.00, 0.00, -0.00, -1.00, 246.4, 345.6)">i</text><text xml:space="preserve" font-family="HelveticaNeue-Thin,Helvetica Neue" font-size="39.5" fill="#FEFFFF" transform="matrix(1.00, 0.00, -0.00, -1.00, 253.1, 345.6)"> </text><text xml:space="preserve" font-family="HelveticaNeue-Thin,Helvetica Neue" font-size="39.5" fill="#FEFFFF" transform="matrix(1.00, 0.00, -0.00, -1.00, 264.0, 345.6)">=</text><text xml:space="preserve" font-family="HelveticaNeue-Thin,Helvetica Neue" font-size="39.5" fill="#FEFFFF" transform="matrix(1.00, 0.00, -0.00, -1.00, 287.7, 345.6)"> </text><text xml:space="preserve" font-family="HelveticaNeue-Thin,Helvetica Neue" font-size="39.5" fill="#FEFFFF" transform="matrix(1.00, 0.00, -0.00, -1.00, 298.7, 345.6)">0</text><text xml:space="preserve" font-family="HelveticaNeue-Thin,Helvetica Neue" font-size="39.5" fill="#FEFFFF" transform="matrix(1.00, 0.00, -0.00, -1.00, 320.7, 345.6)">;</text><text xml:space="preserve" font-family="HelveticaNeue-Thin,Helvetica Neue" font-size="39.5" fill="#FEFFFF" transform="matrix(1.00, 0.00, -0.00, -1.00, 331.6, 345.6)"> </text><text xml:space="preserve" font-family="HelveticaNeue-Thin,Helvetica Neue" font-size="39.5" fill="#FEFFFF" transform="matrix(1.00, 0.00, -0.00, -1.00, 342.6, 345.6)">i</text><text xml:space="preserve" font-family="HelveticaNeue-Thin,Helvetica Neue" font-size="39.5" fill="#FEFFFF" transform="matrix(1.00, 0.00, -0.00, -1.00, 349.2, 345.6)"> </text><text xml:space="preserve" font-family="HelveticaNeue-Thin,Helvetica Neue" font-size="39.5" fill="#FEFFFF" transform="matrix(1.00, 0.00, -0.00, -1.00, 360.2, 345.6)">&lt;</text><text xml:space="preserve" font-family="HelveticaNeue-Thin,Helvetica Neue" font-size="39.5" fill="#FEFFFF" transform="matrix(1.00, 0.00, -0.00, -1.00, 383.9, 345.6)">=</text><text xml:space="preserve" font-family="HelveticaNeue-Thin,Helvetica Neue" font-size="39.5" fill="#FEFFFF" transform="matrix(1.00, 0.00, -0.00, -1.00, 407.6, 345.6)"> </text><text xml:space="preserve" font-family="HelveticaNeue-Thin,Helvetica Neue" font-size="39.5" fill="#FEFFFF" transform="matrix(1.00, 0.00, -0.00, -1.00, 418.6, 345.6)">3</text><text xml:space="preserve" font-family="HelveticaNeue-Thin,Helvetica Neue" font-size="39.5" fill="#FEFFFF" transform="matrix(1.00, 0.00, -0.00, -1.00, 440.5, 345.6)">;</text><text xml:space="preserve" font-family="HelveticaNeue-Thin,Helvetica Neue" font-size="39.5" fill="#FEFFFF" transform="matrix(1.00, 0.00, -0.00, -1.00, 451.5, 345.6)"> </text><text xml:space="preserve" font-family="HelveticaNeue-Thin,Helvetica Neue" font-size="39.5" fill="#FEFFFF" transform="matrix(1.00, 0.00, -0.00, -1.00, 462.5, 345.6)">i</text><text xml:space="preserve" font-family="HelveticaNeue-Thin,Helvetica Neue" font-size="39.5" fill="#FEFFFF" transform="matrix(1.00, 0.00, -0.00, -1.00, 469.1, 345.6)">+</text><text xml:space="preserve" font-family="HelveticaNeue-Thin,Helvetica Neue" font-size="39.5" fill="#FEFFFF" transform="matrix(1.00, 0.00, -0.00, -1.00, 492.8, 345.6)">+</text><text xml:space="preserve" font-family="HelveticaNeue-Thin,Helvetica Neue" font-size="39.5" fill="#FEFFFF" transform="matrix(1.00, 0.00, -0.00, -1.00, 516.5, 345.6)">)</text><text xml:space="preserve" font-family="HelveticaNeue-Thin,Helvetica Neue" font-size="39.5" fill="#FEFFFF" transform="matrix(1.00, 0.00, -0.00, -1.00, 526.0, 345.6)"> </text><text xml:space="preserve" font-family="HelveticaNeue-Thin,Helvetica Neue" font-size="39.5" fill="#FEFFFF" transform="matrix(1.00, 0.00, -0.00, -1.00, 537.0, 345.6)">{</text><text xml:space="preserve" font-family="HelveticaNeue-Thin,Helvetica Neue" font-size="39.5" fill="#FEFFFF" transform="matrix(1.00, 0.00, -0.00, -1.00, 550.1, 345.6)"> </text><text xml:space="preserve" font-family="HelveticaNeue-Thin,Helvetica Neue" font-size="39.5" fill="#FEFFFF" transform="matrix(1.00, 0.00, -0.00, -1.00, 561.1, 345.6)">S</text><text xml:space="preserve" font-family="HelveticaNeue-Thin,Helvetica Neue" font-size="39.5" fill="#FEFFFF" transform="matrix(1.00, 0.00, -0.00, -1.00, 585.8, 345.6)">y</text><text xml:space="preserve" font-family="HelveticaNeue-Thin,Helvetica Neue" font-size="39.5" fill="#FEFFFF" transform="matrix(1.00, 0.00, -0.00, -1.00, 603.3, 345.6)">s</text><text xml:space="preserve" font-family="HelveticaNeue-Thin,Helvetica Neue" font-size="39.5" fill="#FEFFFF" transform="matrix(1.00, 0.00, -0.00, -1.00, 622.3, 345.6)">t</text><text xml:space="preserve" font-family="HelveticaNeue-Thin,Helvetica Neue" font-size="39.5" fill="#FEFFFF" transform="matrix(1.00, 0.00, -0.00, -1.00, 632.0, 345.6)">e</text><text xml:space="preserve" font-family="HelveticaNeue-Thin,Helvetica Neue" font-size="39.5" fill="#FEFFFF" transform="matrix(1.00, 0.00, -0.00, -1.00, 652.5, 345.6)">m</text><text xml:space="preserve" font-family="HelveticaNeue-Thin,Helvetica Neue" font-size="39.5" fill="#FEFFFF" transform="matrix(1.00, 0.00, -0.00, -1.00, 683.9, 345.6)">.</text><text xml:space="preserve" font-family="HelveticaNeue-Thin,Helvetica Neue" font-size="39.5" fill="#FEFFFF" transform="matrix(1.00, 0.00, -0.00, -1.00, 694.9, 345.6)">o</text><text xml:space="preserve" font-family="HelveticaNeue-Thin,Helvetica Neue" font-size="39.5" fill="#FEFFFF" transform="matrix(1.00, 0.00, -0.00, -1.00, 716.1, 345.6)">u</text><text xml:space="preserve" font-family="HelveticaNeue-Thin,Helvetica Neue" font-size="39.5" fill="#FEFFFF" transform="matrix(1.00, 0.00, -0.00, -1.00, 736.6, 345.6)">t</text><text xml:space="preserve" font-family="HelveticaNeue-Thin,Helvetica Neue" font-size="39.5" fill="#FEFFFF" transform="matrix(1.00, 0.00, -0.00, -1.00, 746.8, 345.6)">.</text><text xml:space="preserve" font-family="HelveticaNeue-Thin,Helvetica Neue" font-size="39.5" fill="#FEFFFF" transform="matrix(1.00, 0.00, -0.00, -1.00, 757.8, 345.6)">p</text><text xml:space="preserve" font-family="HelveticaNeue-Thin,Helvetica Neue" font-size="39.5" fill="#FEFFFF" transform="matrix(1.00, 0.00, -0.00, -1.00, 779.7, 345.6)">r</text><text xml:space="preserve" font-family="HelveticaNeue-Thin,Helvetica Neue" font-size="39.5" fill="#FEFFFF" transform="matrix(1.00, 0.00, -0.00, -1.00, 790.7, 345.6)">i</text><text xml:space="preserve" font-family="HelveticaNeue-Thin,Helvetica Neue" font-size="39.5" fill="#FEFFFF" transform="matrix(1.00, 0.00, -0.00, -1.00, 797.3, 345.6)">n</text><text xml:space="preserve" font-family="HelveticaNeue-Thin,Helvetica Neue" font-size="39.5" fill="#FEFFFF" transform="matrix(1.00, 0.00, -0.00, -1.00, 817.8, 345.6)">t</text><text xml:space="preserve" font-family="HelveticaNeue-Thin,Helvetica Neue" font-size="39.5" fill="#FEFFFF" transform="matrix(1.00, 0.00, -0.00, -1.00, 828.0, 345.6)">l</text><text xml:space="preserve" font-family="HelveticaNeue-Thin,Helvetica Neue" font-size="39.5" fill="#FEFFFF" transform="matrix(1.00, 0.00, -0.00, -1.00, 834.7, 345.6)">n</text><text xml:space="preserve" font-family="HelveticaNeue-Thin,Helvetica Neue" font-size="39.5" fill="#FEFFFF" transform="matrix(1.00, 0.00, -0.00, -1.00, 855.2, 345.6)">…</text><text xml:space="preserve" font-family="HelveticaNeue-Thin,Helvetica Neue" font-size="39.5" fill="#FEFFFF" transform="matrix(1.00, 0.00, -0.00, -1.00, 894.7, 345.6)"> </text><text xml:space="preserve" font-family="HelveticaNeue-Bold,Helvetica Neue" font-weight="bold" font-size="29.6" fill="#FEFFFF" transform="matrix(1.00, 0.00, -0.00, -1.00, 79.0, 262.0)">•</text><text xml:space="preserve" font-family="HelveticaNeue-Bold,Helvetica Neue" font-weight="bold" font-size="39.5" fill="#FEFFFF" transform="matrix(1.00, 0.00, -0.00, -1.00, 111.9, 258.3)">O</text><text xml:space="preserve" font-family="HelveticaNeue-Bold,Helvetica Neue" font-weight="bold" font-size="39.5" fill="#FEFFFF" transform="matrix(1.00, 0.00, -0.00, -1.00, 142.6, 258.3)">b</text><text xml:space="preserve" font-family="HelveticaNeue-Bold,Helvetica Neue" font-weight="bold" font-size="39.5" fill="#FEFFFF" transform="matrix(1.00, 0.00, -0.00, -1.00, 166.7, 258.3)">j</text><text xml:space="preserve" font-family="HelveticaNeue-Bold,Helvetica Neue" font-weight="bold" font-size="39.5" fill="#FEFFFF" transform="matrix(1.00, 0.00, -0.00, -1.00, 177.7, 258.3)">e</text><text xml:space="preserve" font-family="HelveticaNeue-Bold,Helvetica Neue" font-weight="bold" font-size="39.5" fill="#FEFFFF" transform="matrix(1.00, 0.00, -0.00, -1.00, 200.4, 258.3)">c</text><text xml:space="preserve" font-family="HelveticaNeue-Bold,Helvetica Neue" font-weight="bold" font-size="39.5" fill="#FEFFFF" transform="matrix(1.00, 0.00, -0.00, -1.00, 223.0, 258.3)">t</text><text xml:space="preserve" font-family="HelveticaNeue-Bold,Helvetica Neue" font-weight="bold" font-size="39.5" fill="#FEFFFF" transform="matrix(1.00, 0.00, -0.00, -1.00, 236.9, 258.3)">s</text><text xml:space="preserve" font-family="HelveticaNeue-Bold,Helvetica Neue" font-weight="bold" font-size="39.5" fill="#FEFFFF" transform="matrix(1.00, 0.00, -0.00, -1.00, 258.1, 258.3)">:</text><text xml:space="preserve" font-family="HelveticaNeue-Thin,Helvetica Neue" font-size="39.5" fill="#FEFFFF" transform="matrix(1.00, 0.00, -0.00, -1.00, 269.1, 258.3)"> </text><text xml:space="preserve" font-family="HelveticaNeue-Thin,Helvetica Neue" font-size="39.5" fill="#FEFFFF" transform="matrix(1.00, 0.00, -0.00, -1.00, 280.1, 258.3)">e</text><text xml:space="preserve" font-family="HelveticaNeue-Thin,Helvetica Neue" font-size="39.5" fill="#FEFFFF" transform="matrix(1.00, 0.00, -0.00, -1.00, 300.6, 258.3)">v</text><text xml:space="preserve" font-family="HelveticaNeue-Thin,Helvetica Neue" font-size="39.5" fill="#FEFFFF" transform="matrix(1.00, 0.00, -0.00, -1.00, 318.1, 258.3)">e</text><text xml:space="preserve" font-family="HelveticaNeue-Thin,Helvetica Neue" font-size="39.5" fill="#FEFFFF" transform="matrix(1.00, 0.00, -0.00, -1.00, 338.6, 258.3)">r</text><text xml:space="preserve" font-family="HelveticaNeue-Thin,Helvetica Neue" font-size="39.5" fill="#FEFFFF" transform="matrix(1.00, 0.00, -0.00, -1.00, 350.3, 258.3)">y</text><text xml:space="preserve" font-family="HelveticaNeue-Thin,Helvetica Neue" font-size="39.5" fill="#FEFFFF" transform="matrix(1.00, 0.00, -0.00, -1.00, 367.8, 258.3)">t</text><text xml:space="preserve" font-family="HelveticaNeue-Thin,Helvetica Neue" font-size="39.5" fill="#FEFFFF" transform="matrix(1.00, 0.00, -0.00, -1.00, 378.0, 258.3)">h</text><text xml:space="preserve" font-family="HelveticaNeue-Thin,Helvetica Neue" font-size="39.5" fill="#FEFFFF" transform="matrix(1.00, 0.00, -0.00, -1.00, 398.5, 258.3)">i</text><text xml:space="preserve" font-family="HelveticaNeue-Thin,Helvetica Neue" font-size="39.5" fill="#FEFFFF" transform="matrix(1.00, 0.00, -0.00, -1.00, 405.2, 258.3)">n</text><text xml:space="preserve" font-family="HelveticaNeue-Thin,Helvetica Neue" font-size="39.5" fill="#FEFFFF" transform="matrix(1.00, 0.00, -0.00, -1.00, 425.6, 258.3)">g</text><text xml:space="preserve" font-family="HelveticaNeue-Thin,Helvetica Neue" font-size="39.5" fill="#FEFFFF" transform="matrix(1.00, 0.00, -0.00, -1.00, 446.8, 258.3)"> </text><text xml:space="preserve" font-family="HelveticaNeue-Thin,Helvetica Neue" font-size="39.5" fill="#FEFFFF" transform="matrix(1.00, 0.00, -0.00, -1.00, 457.8, 258.3)">i</text><text xml:space="preserve" font-family="HelveticaNeue-Thin,Helvetica Neue" font-size="39.5" fill="#FEFFFF" transform="matrix(1.00, 0.00, -0.00, -1.00, 464.5, 258.3)">s</text><text xml:space="preserve" font-family="HelveticaNeue-Thin,Helvetica Neue" font-size="39.5" fill="#FEFFFF" transform="matrix(1.00, 0.00, -0.00, -1.00, 483.4, 258.3)"> </text><text xml:space="preserve" font-family="HelveticaNeue-Thin,Helvetica Neue" font-size="39.5" fill="#FEFFFF" transform="matrix(1.00, 0.00, -0.00, -1.00, 494.4, 258.3)">a</text><text xml:space="preserve" font-family="HelveticaNeue-Thin,Helvetica Neue" font-size="39.5" fill="#FEFFFF" transform="matrix(1.00, 0.00, -0.00, -1.00, 514.2, 258.3)">n</text><text xml:space="preserve" font-family="HelveticaNeue-Thin,Helvetica Neue" font-size="39.5" fill="#FEFFFF" transform="matrix(1.00, 0.00, -0.00, -1.00, 534.7, 258.3)"> </text><text xml:space="preserve" font-family="HelveticaNeue-Thin,Helvetica Neue" font-size="39.5" fill="#FEFFFF" transform="matrix(1.00, 0.00, -0.00, -1.00, 545.6, 258.3)">o</text><text xml:space="preserve" font-family="HelveticaNeue-Thin,Helvetica Neue" font-size="39.5" fill="#FEFFFF" transform="matrix(1.00, 0.00, -0.00, -1.00, 566.8, 258.3)">b</text><text xml:space="preserve" font-family="HelveticaNeue-Thin,Helvetica Neue" font-size="39.5" fill="#FEFFFF" transform="matrix(1.00, 0.00, -0.00, -1.00, 588.8, 258.3)">j</text><text xml:space="preserve" font-family="HelveticaNeue-Thin,Helvetica Neue" font-size="39.5" fill="#FEFFFF" transform="matrix(1.00, 0.00, -0.00, -1.00, 595.4, 258.3)">e</text><text xml:space="preserve" font-family="HelveticaNeue-Thin,Helvetica Neue" font-size="39.5" fill="#FEFFFF" transform="matrix(1.00, 0.00, -0.00, -1.00, 615.9, 258.3)">c</text><text xml:space="preserve" font-family="HelveticaNeue-Thin,Helvetica Neue" font-size="39.5" fill="#FEFFFF" transform="matrix(1.00, 0.00, -0.00, -1.00, 636.4, 258.3)">t</text><text xml:space="preserve" font-family="HelveticaNeue-Thin,Helvetica Neue" font-size="39.5" fill="#FEFFFF" transform="matrix(1.00, 0.00, -0.00, -1.00, 646.6, 258.3)"> </text><text xml:space="preserve" font-family="HelveticaNeue-Bold,Helvetica Neue" font-weight="bold" font-size="29.6" fill="#FEFFFF" transform="matrix(1.00, 0.00, -0.00, -1.00, 114.0, 175.0)">•</text><text xml:space="preserve" font-family="HelveticaNeue-Thin,Helvetica Neue" font-size="39.5" fill="#FEFFFF" transform="matrix(1.00, 0.00, -0.00, -1.00, 146.9, 171.6)">s</text><text xml:space="preserve" font-family="HelveticaNeue-Thin,Helvetica Neue" font-size="39.5" fill="#FEFFFF" transform="matrix(1.00, 0.00, -0.00, -1.00, 165.9, 171.6)">t</text><text xml:space="preserve" font-family="HelveticaNeue-Thin,Helvetica Neue" font-size="39.5" fill="#FEFFFF" transform="matrix(1.00, 0.00, -0.00, -1.00, 176.1, 171.6)">r</text><text xml:space="preserve" font-family="HelveticaNeue-Thin,Helvetica Neue" font-size="39.5" fill="#FEFFFF" transform="matrix(1.00, 0.00, -0.00, -1.00, 187.1, 171.6)">i</text><text xml:space="preserve" font-family="HelveticaNeue-Thin,Helvetica Neue" font-size="39.5" fill="#FEFFFF" transform="matrix(1.00, 0.00, -0.00, -1.00, 193.7, 171.6)">n</text><text xml:space="preserve" font-family="HelveticaNeue-Thin,Helvetica Neue" font-size="39.5" fill="#FEFFFF" transform="matrix(1.00, 0.00, -0.00, -1.00, 214.2, 171.6)">g</text><text xml:space="preserve" font-family="HelveticaNeue-Thin,Helvetica Neue" font-size="39.5" fill="#FEFFFF" transform="matrix(1.00, 0.00, -0.00, -1.00, 235.4, 171.6)"> </text><text xml:space="preserve" font-family="HelveticaNeue-Thin,Helvetica Neue" font-size="39.5" fill="#FEFFFF" transform="matrix(1.00, 0.00, -0.00, -1.00, 246.4, 171.6)">=</text><text xml:space="preserve" font-family="HelveticaNeue-Thin,Helvetica Neue" font-size="39.5" fill="#FEFFFF" transform="matrix(1.00, 0.00, -0.00, -1.00, 270.1, 171.6)"> </text><text xml:space="preserve" font-family="HelveticaNeue-Thin,Helvetica Neue" font-size="39.5" fill="#FEFFFF" transform="matrix(1.00, 0.00, -0.00, -1.00, 281.1, 171.6)">1</text><text xml:space="preserve" font-family="HelveticaNeue-Thin,Helvetica Neue" font-size="39.5" fill="#FEFFFF" transform="matrix(1.00, 0.00, -0.00, -1.00, 303.0, 171.6)">.</text><text xml:space="preserve" font-family="HelveticaNeue-Thin,Helvetica Neue" font-size="39.5" fill="#FEFFFF" transform="matrix(1.00, 0.00, -0.00, -1.00, 314.0, 171.6)">t</text><text xml:space="preserve" font-family="HelveticaNeue-Thin,Helvetica Neue" font-size="39.5" fill="#FEFFFF" transform="matrix(1.00, 0.00, -0.00, -1.00, 323.7, 171.6)">o</text><text xml:space="preserve" font-family="HelveticaNeue-Thin,Helvetica Neue" font-size="39.5" fill="#FEFFFF" transform="matrix(1.00, 0.00, -0.00, -1.00, 344.9, 171.6)">_</text><text xml:space="preserve" font-family="HelveticaNeue-Thin,Helvetica Neue" font-size="39.5" fill="#FEFFFF" transform="matrix(1.00, 0.00, -0.00, -1.00, 364.6, 171.6)">s</text><text xml:space="preserve" font-family="HelveticaNeue-Thin,Helvetica Neue" font-size="39.5" fill="#FEFFFF" transform="matrix(1.00, 0.00, -0.00, -1.00, 383.6, 171.6)"> </text><text xml:space="preserve" font-family="HelveticaNeue-Bold,Helvetica Neue" font-weight="bold" font-size="29.6" fill="#FEFFFF" transform="matrix(1.00, 0.00, -0.00, -1.00, 114.0, 88.5)">•</text><text xml:space="preserve" font-family="HelveticaNeue-Thin,Helvetica Neue" font-size="39.5" fill="#FEFFFF" transform="matrix(1.00, 0.00, -0.00, -1.00, 146.9, 85.2)">3</text><text xml:space="preserve" font-family="HelveticaNeue-Thin,Helvetica Neue" font-size="39.5" fill="#FEFFFF" transform="matrix(1.00, 0.00, -0.00, -1.00, 168.9, 85.2)">.</text><text xml:space="preserve" font-family="HelveticaNeue-Thin,Helvetica Neue" font-size="39.5" fill="#FEFFFF" transform="matrix(1.00, 0.00, -0.00, -1.00, 179.8, 85.2)">t</text><text xml:space="preserve" font-family="HelveticaNeue-Thin,Helvetica Neue" font-size="39.5" fill="#FEFFFF" transform="matrix(1.00, 0.00, -0.00, -1.00, 190.1, 85.2)">i</text><text xml:space="preserve" font-family="HelveticaNeue-Thin,Helvetica Neue" font-size="39.5" fill="#FEFFFF" transform="matrix(1.00, 0.00, -0.00, -1.00, 196.7, 85.2)">m</text><text xml:space="preserve" font-family="HelveticaNeue-Thin,Helvetica Neue" font-size="39.5" fill="#FEFFFF" transform="matrix(1.00, 0.00, -0.00, -1.00, 228.1, 85.2)">e</text><text xml:space="preserve" font-family="HelveticaNeue-Thin,Helvetica Neue" font-size="39.5" fill="#FEFFFF" transform="matrix(1.00, 0.00, -0.00, -1.00, 248.6, 85.2)">s</text><text xml:space="preserve" font-family="HelveticaNeue-Thin,Helvetica Neue" font-size="39.5" fill="#FEFFFF" transform="matrix(1.00, 0.00, -0.00, -1.00, 267.6, 85.2)"> </text><text xml:space="preserve" font-family="HelveticaNeue-Thin,Helvetica Neue" font-size="39.5" fill="#FEFFFF" transform="matrix(1.00, 0.00, -0.00, -1.00, 278.6, 85.2)">{</text><text xml:space="preserve" font-family="HelveticaNeue-Thin,Helvetica Neue" font-size="39.5" fill="#FEFFFF" transform="matrix(1.00, 0.00, -0.00, -1.00, 291.7, 85.2)"> </text><text xml:space="preserve" font-family="HelveticaNeue-Thin,Helvetica Neue" font-size="39.5" fill="#FEFFFF" transform="matrix(1.00, 0.00, -0.00, -1.00, 302.7, 85.2)">p</text><text xml:space="preserve" font-family="HelveticaNeue-Thin,Helvetica Neue" font-size="39.5" fill="#FEFFFF" transform="matrix(1.00, 0.00, -0.00, -1.00, 324.6, 85.2)">u</text><text xml:space="preserve" font-family="HelveticaNeue-Thin,Helvetica Neue" font-size="39.5" fill="#FEFFFF" transform="matrix(1.00, 0.00, -0.00, -1.00, 345.1, 85.2)">t</text><text xml:space="preserve" font-family="HelveticaNeue-Thin,Helvetica Neue" font-size="39.5" fill="#FEFFFF" transform="matrix(1.00, 0.00, -0.00, -1.00, 355.4, 85.2)">s</text><text xml:space="preserve" font-family="HelveticaNeue-Thin,Helvetica Neue" font-size="39.5" fill="#FEFFFF" transform="matrix(1.00, 0.00, -0.00, -1.00, 374.3, 85.2)"> </text><text xml:space="preserve" font-family="HelveticaNeue-Thin,Helvetica Neue" font-size="39.5" fill="#FEFFFF" transform="matrix(1.00, 0.00, -0.00, -1.00, 385.3, 85.2)">‘</text><text xml:space="preserve" font-family="HelveticaNeue-Thin,Helvetica Neue" font-size="39.5" fill="#FEFFFF" transform="matrix(1.00, 0.00, -0.00, -1.00, 393.4, 85.2)">h</text><text xml:space="preserve" font-family="HelveticaNeue-Thin,Helvetica Neue" font-size="39.5" fill="#FEFFFF" transform="matrix(1.00, 0.00, -0.00, -1.00, 413.9, 85.2)">e</text><text xml:space="preserve" font-family="HelveticaNeue-Thin,Helvetica Neue" font-size="39.5" fill="#FEFFFF" transform="matrix(1.00, 0.00, -0.00, -1.00, 434.4, 85.2)">l</text><text xml:space="preserve" font-family="HelveticaNeue-Thin,Helvetica Neue" font-size="39.5" fill="#FEFFFF" transform="matrix(1.00, 0.00, -0.00, -1.00, 441.0, 85.2)">l</text><text xml:space="preserve" font-family="HelveticaNeue-Thin,Helvetica Neue" font-size="39.5" fill="#FEFFFF" transform="matrix(1.00, 0.00, -0.00, -1.00, 447.6, 85.2)">o</text><text xml:space="preserve" font-family="HelveticaNeue-Thin,Helvetica Neue" font-size="39.5" fill="#FEFFFF" transform="matrix(1.00, 0.00, -0.00, -1.00, 468.8, 85.2)">!</text><text xml:space="preserve" font-family="HelveticaNeue-Thin,Helvetica Neue" font-size="39.5" fill="#FEFFFF" transform="matrix(1.00, 0.00, -0.00, -1.00, 479.0, 85.2)">’</text><text xml:space="preserve" font-family="HelveticaNeue-Thin,Helvetica Neue" font-size="39.5" fill="#FEFFFF" transform="matrix(1.00, 0.00, -0.00, -1.00, 487.1, 85.2)"> </text><text xml:space="preserve" font-family="HelveticaNeue-Thin,Helvetica Neue" font-size="39.5" fill="#FEFFFF" transform="matrix(1.00, 0.00, -0.00, -1.00, 498.1, 85.2)">}</text></g></svg>