<?xml version="1.0" encoding="UTF-8" standalone="no"?><svg xmlns="http://www.w3.org/2000/svg" xmlns:xlink="http://www.w3.org/1999/xlink" clip-rule="evenodd" stroke-miterlimit="10" viewBox="0 0 1024 768"><desc>SVG generated by Keynote</desc><defs></defs><g transform="matrix(1.00, 0.00, -0.00, -1.00, 0.0, 768.0)"><path d="M 0.0 768.0 L 1024.0 768.0 L 1024.0 0.0 L 0.0 0.0 Z M 0.0 768.0 " fill="#669C3B"></path><text xml:space="preserve" font-family="HelveticaNeue-Bold,Helvetica Neue" font-weight="bold" font-size="80.0" fill="#FEFFFF" transform="matrix(1.00, 0.00, -0.00, -1.00, 397.0, 632.7)">H</text><text xml:space="preserve" font-family="HelveticaNeue-Bold,Helvetica Neue" font-weight="bold" font-size="80.0" fill="#FEFFFF" transform="matrix(1.00, 0.00, -0.00, -1.00, 453.1, 632.7)">o</text><text xml:space="preserve" font-family="HelveticaNeue-Bold,Helvetica Neue" font-weight="bold" font-size="80.0" fill="#FEFFFF" transform="matrix(1.00, 0.00, -0.00, -1.00, 498.8, 632.7)">o</text><text xml:space="preserve" font-family="HelveticaNeue-Bold,Helvetica Neue" font-weight="bold" font-size="80.0" fill="#FEFFFF" transform="matrix(1.00, 0.00, -0.00, -1.00, 544.5, 632.7)">k</text><text xml:space="preserve" font-family="HelveticaNeue-Bold,Helvetica Neue" font-weight="bold" font-size="80.0" fill="#FEFFFF" transform="matrix(1.00, 0.00, -0.00, -1.00, 587.2, 632.7)">s</text><path d="M 75.0 564.0 L 949.0 564.0 L 949.0 69.0 L 75.0 69.0 Z M 75.0 564.0 " fill="#161616"></path><image xlink:href="../../8F0C1197-3438-4549-8091-6032C74756B9/assets/932506F90606F6BEA790D89AA40BDE8B.png" width="872.00" height="493.00" transform="matrix(1.00, 0.00, -0.00, 1.00, 76.0, 70.0)"></image><g><clipPath id="clip0x6000010a9600"><path d="M 76.0 70.0 L 948.0 70.0 L 948.0 563.0 L 76.0 563.0 Z M 76.0 70.0 "></path></clipPath><g clip-path="url(#clip0x6000010a9600)"><path d="M 99.0 531.0 L 309.6 531.0 L 309.6 495.0 L 99.0 495.0 Z M 99.0 531.0 " fill="#000000" fill-opacity="0.00"></path><path d="M 99.0 495.0 L 633.7 495.0 L 633.7 459.0 L 99.0 459.0 Z M 99.0 495.0 " fill="#000000" fill-opacity="0.00"></path><path d="M 99.0 459.0 L 617.5 459.0 L 617.5 423.0 L 99.0 423.0 Z M 99.0 459.0 " fill="#000000" fill-opacity="0.00"></path><path d="M 99.0 423.0 L 180.0 423.0 L 180.0 387.0 L 99.0 387.0 Z M 99.0 423.0 " fill="#000000" fill-opacity="0.00"></path><path d="M 99.0 351.0 L 358.2 351.0 L 358.2 315.0 L 99.0 315.0 Z M 99.0 351.0 " fill="#000000" fill-opacity="0.00"></path><path d="M 99.0 315.0 L 439.3 315.0 L 439.3 279.0 L 99.0 279.0 Z M 99.0 315.0 " fill="#000000" fill-opacity="0.00"></path><path d="M 99.0 279.0 L 180.0 279.0 L 180.0 243.0 L 99.0 243.0 Z M 99.0 279.0 " fill="#000000" fill-opacity="0.00"></path><path d="M 99.0 243.0 L 147.6 243.0 L 147.6 207.0 L 99.0 207.0 Z M 99.0 243.0 " fill="#000000" fill-opacity="0.00"></path><path d="M 99.0 171.0 L 261.0 171.0 L 261.0 135.0 L 99.0 135.0 Z M 99.0 171.0 " fill="#000000" fill-opacity="0.00"></path><path d="M 99.0 135.0 L 520.3 135.0 L 520.3 99.0 L 99.0 99.0 Z M 99.0 135.0 " fill="#000000" fill-opacity="0.00"></path><text xml:space="preserve" font-family="Monaco,Monaco" font-size="27.0" fill="#E18964" transform="matrix(1.00, 0.00, -0.00, -1.00, 99.0, 504.0)">c</text><text xml:space="preserve" font-family="Monaco,Monaco" font-size="27.0" fill="#E18964" transform="matrix(1.00, 0.00, -0.00, -1.00, 115.2, 504.0)">l</text><text xml:space="preserve" font-family="Monaco,Monaco" font-size="27.0" fill="#E18964" transform="matrix(1.00, 0.00, -0.00, -1.00, 131.4, 504.0)">a</text><text xml:space="preserve" font-family="Monaco,Monaco" font-size="27.0" fill="#E18964" transform="matrix(1.00, 0.00, -0.00, -1.00, 147.6, 504.0)">s</text><text xml:space="preserve" font-family="Monaco,Monaco" font-size="27.0" fill="#E18964" transform="matrix(1.00, 0.00, -0.00, -1.00, 163.8, 504.0)">s</text><text xml:space="preserve" font-family="Monaco,Monaco" font-size="27.0" fill="#F7F7F7" transform="matrix(1.00, 0.00, -0.00, -1.00, 180.0, 504.0)"> </text><text xml:space="preserve" font-family="Monaco,Monaco" font-size="27.0" fill="#89BDFF" transform="matrix(1.00, 0.00, -0.00, -1.00, 196.2, 504.0)">M</text><text xml:space="preserve" font-family="Monaco,Monaco" font-size="27.0" fill="#89BDFF" transform="matrix(1.00, 0.00, -0.00, -1.00, 212.4, 504.0)">y</text><text xml:space="preserve" font-family="Monaco,Monaco" font-size="27.0" fill="#89BDFF" transform="matrix(1.00, 0.00, -0.00, -1.00, 228.6, 504.0)">C</text><text xml:space="preserve" font-family="Monaco,Monaco" font-size="27.0" fill="#89BDFF" transform="matrix(1.00, 0.00, -0.00, -1.00, 244.8, 504.0)">l</text><text xml:space="preserve" font-family="Monaco,Monaco" font-size="27.0" fill="#89BDFF" transform="matrix(1.00, 0.00, -0.00, -1.00, 261.0, 504.0)">a</text><text xml:space="preserve" font-family="Monaco,Monaco" font-size="27.0" fill="#89BDFF" transform="matrix(1.00, 0.00, -0.00, -1.00, 277.2, 504.0)">s</text><text xml:space="preserve" font-family="Monaco,Monaco" font-size="27.0" fill="#89BDFF" transform="matrix(1.00, 0.00, -0.00, -1.00, 293.4, 504.0)">s</text><text xml:space="preserve" font-family="Monaco,Monaco" font-size="27.0" fill="#F7F7F7" transform="matrix(1.00, 0.00, -0.00, -1.00, 309.6, 504.0)">	</text><path d="M 120.2 60.0 L 233.6 60.0 " fill="none" stroke="#89BDFF" stroke-width="2.04" transform="matrix(1.00, 0.00, 0.00, -1.00, 76.0, 563.0)"></path><text xml:space="preserve" font-family="Monaco,Monaco" font-size="27.0" fill="#F7F7F7" transform="matrix(1.00, 0.00, -0.00, -1.00, 99.0, 468.0)"> </text><text xml:space="preserve" font-family="Monaco,Monaco" font-size="27.0" fill="#F7F7F7" transform="matrix(1.00, 0.00, -0.00, -1.00, 115.2, 468.0)"> </text><text xml:space="preserve" font-family="Monaco,Monaco" font-size="27.0" fill="#E18964" transform="matrix(1.00, 0.00, -0.00, -1.00, 131.4, 468.0)">d</text><text xml:space="preserve" font-family="Monaco,Monaco" font-size="27.0" fill="#E18964" transform="matrix(1.00, 0.00, -0.00, -1.00, 147.6, 468.0)">e</text><text xml:space="preserve" font-family="Monaco,Monaco" font-size="27.0" fill="#E18964" transform="matrix(1.00, 0.00, -0.00, -1.00, 163.8, 468.0)">f</text><text xml:space="preserve" font-family="Monaco,Monaco" font-size="27.0" fill="#F7F7F7" transform="matrix(1.00, 0.00, -0.00, -1.00, 180.0, 468.0)"> </text><text xml:space="preserve" font-family="Monaco,Monaco" font-size="27.0" fill="#89BDFF" transform="matrix(1.00, 0.00, -0.00, -1.00, 196.2, 468.0)">M</text><text xml:space="preserve" font-family="Monaco,Monaco" font-size="27.0" fill="#89BDFF" transform="matrix(1.00, 0.00, -0.00, -1.00, 212.4, 468.0)">y</text><text xml:space="preserve" font-family="Monaco,Monaco" font-size="27.0" fill="#89BDFF" transform="matrix(1.00, 0.00, -0.00, -1.00, 228.6, 468.0)">C</text><text xml:space="preserve" font-family="Monaco,Monaco" font-size="27.0" fill="#89BDFF" transform="matrix(1.00, 0.00, -0.00, -1.00, 244.8, 468.0)">l</text><text xml:space="preserve" font-family="Monaco,Monaco" font-size="27.0" fill="#89BDFF" transform="matrix(1.00, 0.00, -0.00, -1.00, 261.0, 468.0)">a</text><text xml:space="preserve" font-family="Monaco,Monaco" font-size="27.0" fill="#89BDFF" transform="matrix(1.00, 0.00, -0.00, -1.00, 277.2, 468.0)">s</text><text xml:space="preserve" font-family="Monaco,Monaco" font-size="27.0" fill="#89BDFF" transform="matrix(1.00, 0.00, -0.00, -1.00, 293.4, 468.0)">s</text><text xml:space="preserve" font-family="Monaco,Monaco" font-size="27.0" fill="#89BDFF" transform="matrix(1.00, 0.00, -0.00, -1.00, 309.7, 468.0)">.</text><text xml:space="preserve" font-family="Monaco,Monaco" font-size="27.0" fill="#89BDFF" transform="matrix(1.00, 0.00, -0.00, -1.00, 325.9, 468.0)">m</text><text xml:space="preserve" font-family="Monaco,Monaco" font-size="27.0" fill="#89BDFF" transform="matrix(1.00, 0.00, -0.00, -1.00, 342.1, 468.0)">e</text><text xml:space="preserve" font-family="Monaco,Monaco" font-size="27.0" fill="#89BDFF" transform="matrix(1.00, 0.00, -0.00, -1.00, 358.3, 468.0)">t</text><text xml:space="preserve" font-family="Monaco,Monaco" font-size="27.0" fill="#89BDFF" transform="matrix(1.00, 0.00, -0.00, -1.00, 374.5, 468.0)">h</text><text xml:space="preserve" font-family="Monaco,Monaco" font-size="27.0" fill="#89BDFF" transform="matrix(1.00, 0.00, -0.00, -1.00, 390.7, 468.0)">o</text><text xml:space="preserve" font-family="Monaco,Monaco" font-size="27.0" fill="#89BDFF" transform="matrix(1.00, 0.00, -0.00, -1.00, 406.9, 468.0)">d</text><text xml:space="preserve" font-family="Monaco,Monaco" font-size="27.0" fill="#89BDFF" transform="matrix(1.00, 0.00, -0.00, -1.00, 423.1, 468.0)">_</text><text xml:space="preserve" font-family="Monaco,Monaco" font-size="27.0" fill="#89BDFF" transform="matrix(1.00, 0.00, -0.00, -1.00, 439.3, 468.0)">a</text><text xml:space="preserve" font-family="Monaco,Monaco" font-size="27.0" fill="#89BDFF" transform="matrix(1.00, 0.00, -0.00, -1.00, 455.5, 468.0)">d</text><text xml:space="preserve" font-family="Monaco,Monaco" font-size="27.0" fill="#89BDFF" transform="matrix(1.00, 0.00, -0.00, -1.00, 471.7, 468.0)">d</text><text xml:space="preserve" font-family="Monaco,Monaco" font-size="27.0" fill="#89BDFF" transform="matrix(1.00, 0.00, -0.00, -1.00, 487.9, 468.0)">e</text><text xml:space="preserve" font-family="Monaco,Monaco" font-size="27.0" fill="#89BDFF" transform="matrix(1.00, 0.00, -0.00, -1.00, 504.1, 468.0)">d</text><text xml:space="preserve" font-family="Monaco,Monaco" font-size="27.0" fill="#F7F7F7" transform="matrix(1.00, 0.00, -0.00, -1.00, 520.3, 468.0)">(</text><text xml:space="preserve" font-family="Monaco,Monaco" font-size="27.0" fill="#3D86E3" transform="matrix(1.00, 0.00, -0.00, -1.00, 536.5, 468.0)">n</text><text xml:space="preserve" font-family="Monaco,Monaco" font-size="27.0" fill="#3D86E3" transform="matrix(1.00, 0.00, -0.00, -1.00, 552.7, 468.0)">a</text><text xml:space="preserve" font-family="Monaco,Monaco" font-size="27.0" fill="#3D86E3" transform="matrix(1.00, 0.00, -0.00, -1.00, 568.9, 468.0)">m</text><text xml:space="preserve" font-family="Monaco,Monaco" font-size="27.0" fill="#3D86E3" transform="matrix(1.00, 0.00, -0.00, -1.00, 585.1, 468.0)">e</text><text xml:space="preserve" font-family="Monaco,Monaco" font-size="27.0" fill="#F7F7F7" transform="matrix(1.00, 0.00, -0.00, -1.00, 601.3, 468.0)">)</text><text xml:space="preserve" font-family="Monaco,Monaco" font-size="27.0" fill="#F7F7F7" transform="matrix(1.00, 0.00, -0.00, -1.00, 617.5, 468.0)">	</text><text xml:space="preserve" font-family="Monaco,Monaco" font-size="27.0" fill="#F7F7F7" transform="matrix(1.00, 0.00, -0.00, -1.00, 99.0, 432.0)"> </text><text xml:space="preserve" font-family="Monaco,Monaco" font-size="27.0" fill="#F7F7F7" transform="matrix(1.00, 0.00, -0.00, -1.00, 115.2, 432.0)"> </text><text xml:space="preserve" font-family="Monaco,Monaco" font-size="27.0" fill="#F7F7F7" transform="matrix(1.00, 0.00, -0.00, -1.00, 131.4, 432.0)"> </text><text xml:space="preserve" font-family="Monaco,Monaco" font-size="27.0" fill="#F7F7F7" transform="matrix(1.00, 0.00, -0.00, -1.00, 147.6, 432.0)"> </text><text xml:space="preserve" font-family="Monaco,Monaco" font-size="27.0" fill="#F7F7F7" transform="matrix(1.00, 0.00, -0.00, -1.00, 163.8, 432.0)">p</text><text xml:space="preserve" font-family="Monaco,Monaco" font-size="27.0" fill="#F7F7F7" transform="matrix(1.00, 0.00, -0.00, -1.00, 180.0, 432.0)">u</text><text xml:space="preserve" font-family="Monaco,Monaco" font-size="27.0" fill="#F7F7F7" transform="matrix(1.00, 0.00, -0.00, -1.00, 196.2, 432.0)">t</text><text xml:space="preserve" font-family="Monaco,Monaco" font-size="27.0" fill="#F7F7F7" transform="matrix(1.00, 0.00, -0.00, -1.00, 212.4, 432.0)">s</text><text xml:space="preserve" font-family="Monaco,Monaco" font-size="27.0" fill="#F7F7F7" transform="matrix(1.00, 0.00, -0.00, -1.00, 228.6, 432.0)"> </text><text xml:space="preserve" font-family="Monaco,Monaco" font-size="27.0" fill="#64AF41" transform="matrix(1.00, 0.00, -0.00, -1.00, 244.8, 432.0)">"</text><text xml:space="preserve" font-family="Monaco,Monaco" font-size="27.0" fill="#64AF41" transform="matrix(1.00, 0.00, -0.00, -1.00, 261.0, 432.0)">A</text><text xml:space="preserve" font-family="Monaco,Monaco" font-size="27.0" fill="#64AF41" transform="matrix(1.00, 0.00, -0.00, -1.00, 277.2, 432.0)">d</text><text xml:space="preserve" font-family="Monaco,Monaco" font-size="27.0" fill="#64AF41" transform="matrix(1.00, 0.00, -0.00, -1.00, 293.4, 432.0)">d</text><text xml:space="preserve" font-family="Monaco,Monaco" font-size="27.0" fill="#64AF41" transform="matrix(1.00, 0.00, -0.00, -1.00, 309.6, 432.0)">i</text><text xml:space="preserve" font-family="Monaco,Monaco" font-size="27.0" fill="#64AF41" transform="matrix(1.00, 0.00, -0.00, -1.00, 325.9, 432.0)">n</text><text xml:space="preserve" font-family="Monaco,Monaco" font-size="27.0" fill="#64AF41" transform="matrix(1.00, 0.00, -0.00, -1.00, 342.1, 432.0)">g</text><text xml:space="preserve" font-family="Monaco,Monaco" font-size="27.0" fill="#64AF41" transform="matrix(1.00, 0.00, -0.00, -1.00, 358.3, 432.0)"> </text><text xml:space="preserve" font-family="Monaco,Monaco" font-size="27.0" fill="#64AF41" transform="matrix(1.00, 0.00, -0.00, -1.00, 374.5, 432.0)">M</text><text xml:space="preserve" font-family="Monaco,Monaco" font-size="27.0" fill="#64AF41" transform="matrix(1.00, 0.00, -0.00, -1.00, 390.7, 432.0)">e</text><text xml:space="preserve" font-family="Monaco,Monaco" font-size="27.0" fill="#64AF41" transform="matrix(1.00, 0.00, -0.00, -1.00, 406.9, 432.0)">t</text><text xml:space="preserve" font-family="Monaco,Monaco" font-size="27.0" fill="#64AF41" transform="matrix(1.00, 0.00, -0.00, -1.00, 423.1, 432.0)">h</text><text xml:space="preserve" font-family="Monaco,Monaco" font-size="27.0" fill="#64AF41" transform="matrix(1.00, 0.00, -0.00, -1.00, 439.3, 432.0)">o</text><text xml:space="preserve" font-family="Monaco,Monaco" font-size="27.0" fill="#64AF41" transform="matrix(1.00, 0.00, -0.00, -1.00, 455.5, 432.0)">d</text><text xml:space="preserve" font-family="Monaco,Monaco" font-size="27.0" fill="#64AF41" transform="matrix(1.00, 0.00, -0.00, -1.00, 471.7, 432.0)"> </text><text xml:space="preserve" font-family="Monaco,Monaco" font-size="27.0" fill="#64AF41" transform="matrix(1.00, 0.00, -0.00, -1.00, 487.9, 432.0)">#</text><text xml:space="preserve" font-family="Monaco,Monaco" font-size="27.0" fill="#64AF41" transform="matrix(1.00, 0.00, -0.00, -1.00, 504.1, 432.0)">{</text><text xml:space="preserve" font-family="Monaco,Monaco" font-size="27.0" fill="#D9EEA2" transform="matrix(1.00, 0.00, -0.00, -1.00, 520.3, 432.0)">n</text><text xml:space="preserve" font-family="Monaco,Monaco" font-size="27.0" fill="#D9EEA2" transform="matrix(1.00, 0.00, -0.00, -1.00, 536.5, 432.0)">a</text><text xml:space="preserve" font-family="Monaco,Monaco" font-size="27.0" fill="#D9EEA2" transform="matrix(1.00, 0.00, -0.00, -1.00, 552.7, 432.0)">m</text><text xml:space="preserve" font-family="Monaco,Monaco" font-size="27.0" fill="#D9EEA2" transform="matrix(1.00, 0.00, -0.00, -1.00, 568.9, 432.0)">e</text><text xml:space="preserve" font-family="Monaco,Monaco" font-size="27.0" fill="#64AF41" transform="matrix(1.00, 0.00, -0.00, -1.00, 585.1, 432.0)">}</text><text xml:space="preserve" font-family="Monaco,Monaco" font-size="27.0" fill="#64AF41" transform="matrix(1.00, 0.00, -0.00, -1.00, 601.3, 432.0)">"</text><text xml:space="preserve" font-family="Monaco,Monaco" font-size="27.0" fill="#F7F7F7" transform="matrix(1.00, 0.00, -0.00, -1.00, 617.5, 432.0)">	</text><text xml:space="preserve" font-family="Monaco,Monaco" font-size="27.0" fill="#F7F7F7" transform="matrix(1.00, 0.00, -0.00, -1.00, 99.0, 396.0)"> </text><text xml:space="preserve" font-family="Monaco,Monaco" font-size="27.0" fill="#F7F7F7" transform="matrix(1.00, 0.00, -0.00, -1.00, 115.2, 396.0)"> </text><text xml:space="preserve" font-family="Monaco,Monaco" font-size="27.0" fill="#E18964" transform="matrix(1.00, 0.00, -0.00, -1.00, 131.4, 396.0)">e</text><text xml:space="preserve" font-family="Monaco,Monaco" font-size="27.0" fill="#E18964" transform="matrix(1.00, 0.00, -0.00, -1.00, 147.6, 396.0)">n</text><text xml:space="preserve" font-family="Monaco,Monaco" font-size="27.0" fill="#E18964" transform="matrix(1.00, 0.00, -0.00, -1.00, 163.8, 396.0)">d</text><text xml:space="preserve" font-family="Monaco,Monaco" font-size="27.0" fill="#F7F7F7" transform="matrix(1.00, 0.00, -0.00, -1.00, 180.0, 396.0)">	</text><text xml:space="preserve" font-family="Monaco,Monaco" font-size="27.0" fill="#F7F7F7" transform="matrix(1.00, 0.00, -0.00, -1.00, 99.0, 324.0)"> </text><text xml:space="preserve" font-family="Monaco,Monaco" font-size="27.0" fill="#F7F7F7" transform="matrix(1.00, 0.00, -0.00, -1.00, 115.2, 324.0)"> </text><text xml:space="preserve" font-family="Monaco,Monaco" font-size="27.0" fill="#E18964" transform="matrix(1.00, 0.00, -0.00, -1.00, 131.4, 324.0)">d</text><text xml:space="preserve" font-family="Monaco,Monaco" font-size="27.0" fill="#E18964" transform="matrix(1.00, 0.00, -0.00, -1.00, 147.6, 324.0)">e</text><text xml:space="preserve" font-family="Monaco,Monaco" font-size="27.0" fill="#E18964" transform="matrix(1.00, 0.00, -0.00, -1.00, 163.8, 324.0)">f</text><text xml:space="preserve" font-family="Monaco,Monaco" font-size="27.0" fill="#F7F7F7" transform="matrix(1.00, 0.00, -0.00, -1.00, 180.0, 324.0)"> </text><text xml:space="preserve" font-family="Monaco,Monaco" font-size="27.0" fill="#89BDFF" transform="matrix(1.00, 0.00, -0.00, -1.00, 196.2, 324.0)">n</text><text xml:space="preserve" font-family="Monaco,Monaco" font-size="27.0" fill="#89BDFF" transform="matrix(1.00, 0.00, -0.00, -1.00, 212.4, 324.0)">e</text><text xml:space="preserve" font-family="Monaco,Monaco" font-size="27.0" fill="#89BDFF" transform="matrix(1.00, 0.00, -0.00, -1.00, 228.6, 324.0)">w</text><text xml:space="preserve" font-family="Monaco,Monaco" font-size="27.0" fill="#89BDFF" transform="matrix(1.00, 0.00, -0.00, -1.00, 244.8, 324.0)">_</text><text xml:space="preserve" font-family="Monaco,Monaco" font-size="27.0" fill="#89BDFF" transform="matrix(1.00, 0.00, -0.00, -1.00, 261.0, 324.0)">m</text><text xml:space="preserve" font-family="Monaco,Monaco" font-size="27.0" fill="#89BDFF" transform="matrix(1.00, 0.00, -0.00, -1.00, 277.2, 324.0)">e</text><text xml:space="preserve" font-family="Monaco,Monaco" font-size="27.0" fill="#89BDFF" transform="matrix(1.00, 0.00, -0.00, -1.00, 293.4, 324.0)">t</text><text xml:space="preserve" font-family="Monaco,Monaco" font-size="27.0" fill="#89BDFF" transform="matrix(1.00, 0.00, -0.00, -1.00, 309.7, 324.0)">h</text><text xml:space="preserve" font-family="Monaco,Monaco" font-size="27.0" fill="#89BDFF" transform="matrix(1.00, 0.00, -0.00, -1.00, 325.9, 324.0)">o</text><text xml:space="preserve" font-family="Monaco,Monaco" font-size="27.0" fill="#89BDFF" transform="matrix(1.00, 0.00, -0.00, -1.00, 342.1, 324.0)">d</text><text xml:space="preserve" font-family="Monaco,Monaco" font-size="27.0" fill="#F7F7F7" transform="matrix(1.00, 0.00, -0.00, -1.00, 358.2, 324.0)">	</text><text xml:space="preserve" font-family="Monaco,Monaco" font-size="27.0" fill="#F7F7F7" transform="matrix(1.00, 0.00, -0.00, -1.00, 99.0, 288.0)"> </text><text xml:space="preserve" font-family="Monaco,Monaco" font-size="27.0" fill="#F7F7F7" transform="matrix(1.00, 0.00, -0.00, -1.00, 115.2, 288.0)"> </text><text xml:space="preserve" font-family="Monaco,Monaco" font-size="27.0" fill="#F7F7F7" transform="matrix(1.00, 0.00, -0.00, -1.00, 131.4, 288.0)"> </text><text xml:space="preserve" font-family="Monaco,Monaco" font-size="27.0" fill="#F7F7F7" transform="matrix(1.00, 0.00, -0.00, -1.00, 147.6, 288.0)"> </text><text xml:space="preserve" font-family="Monaco,Monaco" font-size="27.0" fill="#ADADAD" transform="matrix(1.00, 0.00, -0.00, -1.00, 163.8, 288.0)">#</text><text xml:space="preserve" font-family="Monaco,Monaco" font-size="27.0" fill="#ADADAD" transform="matrix(1.00, 0.00, -0.00, -1.00, 180.0, 288.0)"> </text><text xml:space="preserve" font-family="Monaco,Monaco" font-size="27.0" fill="#ADADAD" transform="matrix(1.00, 0.00, -0.00, -1.00, 196.2, 288.0)">Y</text><text xml:space="preserve" font-family="Monaco,Monaco" font-size="27.0" fill="#ADADAD" transform="matrix(1.00, 0.00, -0.00, -1.00, 212.4, 288.0)">a</text><text xml:space="preserve" font-family="Monaco,Monaco" font-size="27.0" fill="#ADADAD" transform="matrix(1.00, 0.00, -0.00, -1.00, 228.6, 288.0)">d</text><text xml:space="preserve" font-family="Monaco,Monaco" font-size="27.0" fill="#ADADAD" transform="matrix(1.00, 0.00, -0.00, -1.00, 244.8, 288.0)">a</text><text xml:space="preserve" font-family="Monaco,Monaco" font-size="27.0" fill="#ADADAD" transform="matrix(1.00, 0.00, -0.00, -1.00, 261.0, 288.0)"> </text><text xml:space="preserve" font-family="Monaco,Monaco" font-size="27.0" fill="#ADADAD" transform="matrix(1.00, 0.00, -0.00, -1.00, 277.2, 288.0)">y</text><text xml:space="preserve" font-family="Monaco,Monaco" font-size="27.0" fill="#ADADAD" transform="matrix(1.00, 0.00, -0.00, -1.00, 293.5, 288.0)">a</text><text xml:space="preserve" font-family="Monaco,Monaco" font-size="27.0" fill="#ADADAD" transform="matrix(1.00, 0.00, -0.00, -1.00, 309.7, 288.0)">d</text><text xml:space="preserve" font-family="Monaco,Monaco" font-size="27.0" fill="#ADADAD" transform="matrix(1.00, 0.00, -0.00, -1.00, 325.9, 288.0)">a</text><text xml:space="preserve" font-family="Monaco,Monaco" font-size="27.0" fill="#ADADAD" transform="matrix(1.00, 0.00, -0.00, -1.00, 342.1, 288.0)"> </text><text xml:space="preserve" font-family="Monaco,Monaco" font-size="27.0" fill="#ADADAD" transform="matrix(1.00, 0.00, -0.00, -1.00, 358.3, 288.0)">y</text><text xml:space="preserve" font-family="Monaco,Monaco" font-size="27.0" fill="#ADADAD" transform="matrix(1.00, 0.00, -0.00, -1.00, 374.5, 288.0)">a</text><text xml:space="preserve" font-family="Monaco,Monaco" font-size="27.0" fill="#ADADAD" transform="matrix(1.00, 0.00, -0.00, -1.00, 390.7, 288.0)">d</text><text xml:space="preserve" font-family="Monaco,Monaco" font-size="27.0" fill="#ADADAD" transform="matrix(1.00, 0.00, -0.00, -1.00, 406.9, 288.0)">a</text><text xml:space="preserve" font-family="Monaco,Monaco" font-size="27.0" fill="#ADADAD" transform="matrix(1.00, 0.00, -0.00, -1.00, 423.1, 288.0)">	</text><text xml:space="preserve" font-family="Monaco,Monaco" font-size="27.0" fill="#F7F7F7" transform="matrix(1.00, 0.00, -0.00, -1.00, 99.0, 252.0)"> </text><text xml:space="preserve" font-family="Monaco,Monaco" font-size="27.0" fill="#F7F7F7" transform="matrix(1.00, 0.00, -0.00, -1.00, 115.2, 252.0)"> </text><text xml:space="preserve" font-family="Monaco,Monaco" font-size="27.0" fill="#E18964" transform="matrix(1.00, 0.00, -0.00, -1.00, 131.4, 252.0)">e</text><text xml:space="preserve" font-family="Monaco,Monaco" font-size="27.0" fill="#E18964" transform="matrix(1.00, 0.00, -0.00, -1.00, 147.6, 252.0)">n</text><text xml:space="preserve" font-family="Monaco,Monaco" font-size="27.0" fill="#E18964" transform="matrix(1.00, 0.00, -0.00, -1.00, 163.8, 252.0)">d</text><text xml:space="preserve" font-family="Monaco,Monaco" font-size="27.0" fill="#F7F7F7" transform="matrix(1.00, 0.00, -0.00, -1.00, 180.0, 252.0)">	</text><text xml:space="preserve" font-family="Monaco,Monaco" font-size="27.0" fill="#E18964" transform="matrix(1.00, 0.00, -0.00, -1.00, 99.0, 216.0)">e</text><text xml:space="preserve" font-family="Monaco,Monaco" font-size="27.0" fill="#E18964" transform="matrix(1.00, 0.00, -0.00, -1.00, 115.2, 216.0)">n</text><text xml:space="preserve" font-family="Monaco,Monaco" font-size="27.0" fill="#E18964" transform="matrix(1.00, 0.00, -0.00, -1.00, 131.4, 216.0)">d</text><text xml:space="preserve" font-family="Monaco,Monaco" font-size="27.0" fill="#E18964" transform="matrix(1.00, 0.00, -0.00, -1.00, 147.6, 216.0)">	</text><text xml:space="preserve" font-family="Monaco,Monaco" font-size="27.0" fill="#ADADAD" transform="matrix(1.00, 0.00, -0.00, -1.00, 99.0, 144.0)">#</text><text xml:space="preserve" font-family="Monaco,Monaco" font-size="27.0" fill="#ADADAD" transform="matrix(1.00, 0.00, -0.00, -1.00, 115.2, 144.0)"> </text><text xml:space="preserve" font-family="Monaco,Monaco" font-size="27.0" fill="#ADADAD" transform="matrix(1.00, 0.00, -0.00, -1.00, 131.4, 144.0)">o</text><text xml:space="preserve" font-family="Monaco,Monaco" font-size="27.0" fill="#ADADAD" transform="matrix(1.00, 0.00, -0.00, -1.00, 147.6, 144.0)">u</text><text xml:space="preserve" font-family="Monaco,Monaco" font-size="27.0" fill="#ADADAD" transform="matrix(1.00, 0.00, -0.00, -1.00, 163.8, 144.0)">t</text><text xml:space="preserve" font-family="Monaco,Monaco" font-size="27.0" fill="#ADADAD" transform="matrix(1.00, 0.00, -0.00, -1.00, 180.0, 144.0)">p</text><text xml:space="preserve" font-family="Monaco,Monaco" font-size="27.0" fill="#ADADAD" transform="matrix(1.00, 0.00, -0.00, -1.00, 196.2, 144.0)">u</text><text xml:space="preserve" font-family="Monaco,Monaco" font-size="27.0" fill="#ADADAD" transform="matrix(1.00, 0.00, -0.00, -1.00, 212.4, 144.0)">t</text><text xml:space="preserve" font-family="Monaco,Monaco" font-size="27.0" fill="#ADADAD" transform="matrix(1.00, 0.00, -0.00, -1.00, 228.6, 144.0)">:</text><text xml:space="preserve" font-family="Monaco,Monaco" font-size="27.0" fill="#ADADAD" transform="matrix(1.00, 0.00, -0.00, -1.00, 244.8, 144.0)">	</text><text xml:space="preserve" font-family="Monaco,Monaco" font-size="27.0" fill="#ADADAD" transform="matrix(1.00, 0.00, -0.00, -1.00, 99.0, 108.0)">#</text><text xml:space="preserve" font-family="Monaco,Monaco" font-size="27.0" fill="#ADADAD" transform="matrix(1.00, 0.00, -0.00, -1.00, 115.2, 108.0)"> </text><text xml:space="preserve" font-family="Monaco,Monaco" font-size="27.0" fill="#ADADAD" transform="matrix(1.00, 0.00, -0.00, -1.00, 131.4, 108.0)">A</text><text xml:space="preserve" font-family="Monaco,Monaco" font-size="27.0" fill="#ADADAD" transform="matrix(1.00, 0.00, -0.00, -1.00, 147.6, 108.0)">d</text><text xml:space="preserve" font-family="Monaco,Monaco" font-size="27.0" fill="#ADADAD" transform="matrix(1.00, 0.00, -0.00, -1.00, 163.8, 108.0)">d</text><text xml:space="preserve" font-family="Monaco,Monaco" font-size="27.0" fill="#ADADAD" transform="matrix(1.00, 0.00, -0.00, -1.00, 180.0, 108.0)">i</text><text xml:space="preserve" font-family="Monaco,Monaco" font-size="27.0" fill="#ADADAD" transform="matrix(1.00, 0.00, -0.00, -1.00, 196.2, 108.0)">n</text><text xml:space="preserve" font-family="Monaco,Monaco" font-size="27.0" fill="#ADADAD" transform="matrix(1.00, 0.00, -0.00, -1.00, 212.4, 108.0)">g</text><text xml:space="preserve" font-family="Monaco,Monaco" font-size="27.0" fill="#ADADAD" transform="matrix(1.00, 0.00, -0.00, -1.00, 228.6, 108.0)"> </text><text xml:space="preserve" font-family="Monaco,Monaco" font-size="27.0" fill="#ADADAD" transform="matrix(1.00, 0.00, -0.00, -1.00, 244.8, 108.0)">M</text><text xml:space="preserve" font-family="Monaco,Monaco" font-size="27.0" fill="#ADADAD" transform="matrix(1.00, 0.00, -0.00, -1.00, 261.0, 108.0)">e</text><text xml:space="preserve" font-family="Monaco,Monaco" font-size="27.0" fill="#ADADAD" transform="matrix(1.00, 0.00, -0.00, -1.00, 277.3, 108.0)">t</text><text xml:space="preserve" font-family="Monaco,Monaco" font-size="27.0" fill="#ADADAD" transform="matrix(1.00, 0.00, -0.00, -1.00, 293.5, 108.0)">h</text><text xml:space="preserve" font-family="Monaco,Monaco" font-size="27.0" fill="#ADADAD" transform="matrix(1.00, 0.00, -0.00, -1.00, 309.7, 108.0)">o</text><text xml:space="preserve" font-family="Monaco,Monaco" font-size="27.0" fill="#ADADAD" transform="matrix(1.00, 0.00, -0.00, -1.00, 325.9, 108.0)">d</text><text xml:space="preserve" font-family="Monaco,Monaco" font-size="27.0" fill="#ADADAD" transform="matrix(1.00, 0.00, -0.00, -1.00, 342.1, 108.0)"> </text><text xml:space="preserve" font-family="Monaco,Monaco" font-size="27.0" fill="#ADADAD" transform="matrix(1.00, 0.00, -0.00, -1.00, 358.3, 108.0)">n</text><text xml:space="preserve" font-family="Monaco,Monaco" font-size="27.0" fill="#ADADAD" transform="matrix(1.00, 0.00, -0.00, -1.00, 374.5, 108.0)">e</text><text xml:space="preserve" font-family="Monaco,Monaco" font-size="27.0" fill="#ADADAD" transform="matrix(1.00, 0.00, -0.00, -1.00, 390.7, 108.0)">w</text><text xml:space="preserve" font-family="Monaco,Monaco" font-size="27.0" fill="#ADADAD" transform="matrix(1.00, 0.00, -0.00, -1.00, 406.9, 108.0)">_</text><text xml:space="preserve" font-family="Monaco,Monaco" font-size="27.0" fill="#ADADAD" transform="matrix(1.00, 0.00, -0.00, -1.00, 423.1, 108.0)">m</text><text xml:space="preserve" font-family="Monaco,Monaco" font-size="27.0" fill="#ADADAD" transform="matrix(1.00, 0.00, -0.00, -1.00, 439.3, 108.0)">e</text><text xml:space="preserve" font-family="Monaco,Monaco" font-size="27.0" fill="#ADADAD" transform="matrix(1.00, 0.00, -0.00, -1.00, 455.5, 108.0)">t</text><text xml:space="preserve" font-family="Monaco,Monaco" font-size="27.0" fill="#ADADAD" transform="matrix(1.00, 0.00, -0.00, -1.00, 471.7, 108.0)">h</text><text xml:space="preserve" font-family="Monaco,Monaco" font-size="27.0" fill="#ADADAD" transform="matrix(1.00, 0.00, -0.00, -1.00, 487.9, 108.0)">o</text><text xml:space="preserve" font-family="Monaco,Monaco" font-size="27.0" fill="#ADADAD" transform="matrix(1.00, 0.00, -0.00, -1.00, 504.1, 108.0)">d</text></g></g></g></svg>