<?xml version="1.0" encoding="UTF-8" standalone="no"?><svg xmlns="http://www.w3.org/2000/svg" xmlns:xlink="http://www.w3.org/1999/xlink" clip-rule="evenodd" stroke-miterlimit="10" viewBox="0 0 1024 768"><desc>SVG generated by Keynote</desc><defs></defs><g transform="matrix(1.00, 0.00, -0.00, -1.00, 0.0, 768.0)"><path d="M 0.0 768.0 L 1024.0 768.0 L 1024.0 0.0 L 0.0 0.0 Z M 0.0 768.0 " fill="#669C3B"></path><text xml:space="preserve" font-family="HelveticaNeue-Bold,Helvetica Neue" font-weight="bold" font-size="80.0" fill="#FEFFFF" transform="matrix(1.00, 0.00, -0.00, -1.00, 215.6, 632.7)">c</text><text xml:space="preserve" font-family="HelveticaNeue-Bold,Helvetica Neue" font-weight="bold" font-size="80.0" fill="#FEFFFF" transform="matrix(1.00, 0.00, -0.00, -1.00, 258.3, 632.7)">l</text><text xml:space="preserve" font-family="HelveticaNeue-Bold,Helvetica Neue" font-weight="bold" font-size="80.0" fill="#FEFFFF" transform="matrix(1.00, 0.00, -0.00, -1.00, 275.8, 632.7)">o</text><text xml:space="preserve" font-family="HelveticaNeue-Bold,Helvetica Neue" font-weight="bold" font-size="80.0" fill="#FEFFFF" transform="matrix(1.00, 0.00, -0.00, -1.00, 321.4, 632.7)">s</text><text xml:space="preserve" font-family="HelveticaNeue-Bold,Helvetica Neue" font-weight="bold" font-size="80.0" fill="#FEFFFF" transform="matrix(1.00, 0.00, -0.00, -1.00, 361.2, 632.7)">u</text><text xml:space="preserve" font-family="HelveticaNeue-Bold,Helvetica Neue" font-weight="bold" font-size="80.0" fill="#FEFFFF" transform="matrix(1.00, 0.00, -0.00, -1.00, 405.4, 632.7)">r</text><text xml:space="preserve" font-family="HelveticaNeue-Bold,Helvetica Neue" font-weight="bold" font-size="80.0" fill="#FEFFFF" transform="matrix(1.00, 0.00, -0.00, -1.00, 431.9, 632.7)">e</text><text xml:space="preserve" font-family="HelveticaNeue-Bold,Helvetica Neue" font-weight="bold" font-size="80.0" fill="#FEFFFF" transform="matrix(1.00, 0.00, -0.00, -1.00, 474.6, 632.7)">s</text><text xml:space="preserve" font-family="HelveticaNeue-Bold,Helvetica Neue" font-weight="bold" font-size="80.0" fill="#FEFFFF" transform="matrix(1.00, 0.00, -0.00, -1.00, 514.4, 632.7)"> </text><text xml:space="preserve" font-family="HelveticaNeue-Bold,Helvetica Neue" font-weight="bold" font-size="80.0" fill="#FEFFFF" transform="matrix(1.00, 0.00, -0.00, -1.00, 533.4, 632.7)">(</text><text xml:space="preserve" font-family="HelveticaNeue-Bold,Helvetica Neue" font-weight="bold" font-size="80.0" fill="#FEFFFF" transform="matrix(1.00, 0.00, -0.00, -1.00, 553.9, 632.7)">b</text><text xml:space="preserve" font-family="HelveticaNeue-Bold,Helvetica Neue" font-weight="bold" font-size="80.0" fill="#FEFFFF" transform="matrix(1.00, 0.00, -0.00, -1.00, 599.6, 632.7)">l</text><text xml:space="preserve" font-family="HelveticaNeue-Bold,Helvetica Neue" font-weight="bold" font-size="80.0" fill="#FEFFFF" transform="matrix(1.00, 0.00, -0.00, -1.00, 617.0, 632.7)">o</text><text xml:space="preserve" font-family="HelveticaNeue-Bold,Helvetica Neue" font-weight="bold" font-size="80.0" fill="#FEFFFF" transform="matrix(1.00, 0.00, -0.00, -1.00, 662.7, 632.7)">c</text><text xml:space="preserve" font-family="HelveticaNeue-Bold,Helvetica Neue" font-weight="bold" font-size="80.0" fill="#FEFFFF" transform="matrix(1.00, 0.00, -0.00, -1.00, 705.4, 632.7)">k</text><text xml:space="preserve" font-family="HelveticaNeue-Bold,Helvetica Neue" font-weight="bold" font-size="80.0" fill="#FEFFFF" transform="matrix(1.00, 0.00, -0.00, -1.00, 748.2, 632.7)">s</text><text xml:space="preserve" font-family="HelveticaNeue-Bold,Helvetica Neue" font-weight="bold" font-size="80.0" fill="#FEFFFF" transform="matrix(1.00, 0.00, -0.00, -1.00, 787.9, 632.7)">)</text><path d="M 75.0 564.0 L 949.0 564.0 L 949.0 69.0 L 75.0 69.0 Z M 75.0 564.0 " fill="#161616"></path><image xlink:href="../../8F0C1197-3438-4549-8091-6032C74756B9/assets/932506F90606F6BEA790D89AA40BDE8B.png" width="872.00" height="493.00" transform="matrix(1.00, 0.00, -0.00, 1.00, 76.0, 70.0)"></image><g><clipPath id="clip0x6000014a1f20"><path d="M 76.0 70.0 L 948.0 70.0 L 948.0 563.0 L 76.0 563.0 Z M 76.0 70.0 "></path></clipPath><g clip-path="url(#clip0x6000014a1f20)"><path d="M 99.0 536.0 L 285.7 536.0 L 285.7 502.0 L 99.0 502.0 Z M 99.0 536.0 " fill="#000000"></path><path d="M 99.0 468.0 L 690.1 468.0 L 690.1 434.0 L 99.0 434.0 Z M 99.0 468.0 " fill="#000000"></path><path d="M 99.0 366.0 L 441.2 366.0 L 441.2 332.0 L 99.0 332.0 Z M 99.0 366.0 " fill="#000000"></path><path d="M 99.0 298.0 L 861.2 298.0 L 861.2 264.0 L 99.0 264.0 Z M 99.0 298.0 " fill="#000000"></path><path d="M 99.0 196.0 L 285.7 196.0 L 285.7 162.0 L 99.0 162.0 Z M 99.0 196.0 " fill="#000000"></path><path d="M 99.0 128.0 L 907.8 128.0 L 907.8 94.0 L 99.0 94.0 Z M 99.0 128.0 " fill="#000000"></path><text xml:space="preserve" font-family="Monaco,Monaco" font-size="25.9" fill="#ADADAD" transform="matrix(1.00, 0.00, -0.00, -1.00, 99.0, 510.6)">#</text><text xml:space="preserve" font-family="Monaco,Monaco" font-size="25.9" fill="#ADADAD" transform="matrix(1.00, 0.00, -0.00, -1.00, 114.6, 510.6)"> </text><text xml:space="preserve" font-family="Monaco,Monaco" font-size="25.9" fill="#ADADAD" transform="matrix(1.00, 0.00, -0.00, -1.00, 130.1, 510.6)">I</text><text xml:space="preserve" font-family="Monaco,Monaco" font-size="25.9" fill="#ADADAD" transform="matrix(1.00, 0.00, -0.00, -1.00, 145.7, 510.6)">t</text><text xml:space="preserve" font-family="Monaco,Monaco" font-size="25.9" fill="#ADADAD" transform="matrix(1.00, 0.00, -0.00, -1.00, 161.2, 510.6)">e</text><text xml:space="preserve" font-family="Monaco,Monaco" font-size="25.9" fill="#ADADAD" transform="matrix(1.00, 0.00, -0.00, -1.00, 176.8, 510.6)">r</text><text xml:space="preserve" font-family="Monaco,Monaco" font-size="25.9" fill="#ADADAD" transform="matrix(1.00, 0.00, -0.00, -1.00, 192.3, 510.6)">a</text><text xml:space="preserve" font-family="Monaco,Monaco" font-size="25.9" fill="#ADADAD" transform="matrix(1.00, 0.00, -0.00, -1.00, 207.9, 510.6)">t</text><text xml:space="preserve" font-family="Monaco,Monaco" font-size="25.9" fill="#ADADAD" transform="matrix(1.00, 0.00, -0.00, -1.00, 223.5, 510.6)">i</text><text xml:space="preserve" font-family="Monaco,Monaco" font-size="25.9" fill="#ADADAD" transform="matrix(1.00, 0.00, -0.00, -1.00, 239.0, 510.6)">o</text><text xml:space="preserve" font-family="Monaco,Monaco" font-size="25.9" fill="#ADADAD" transform="matrix(1.00, 0.00, -0.00, -1.00, 254.6, 510.6)">n</text><text xml:space="preserve" font-family="Monaco,Monaco" font-size="25.9" fill="#ADADAD" transform="matrix(1.00, 0.00, -0.00, -1.00, 270.1, 510.6)">	</text><text xml:space="preserve" font-family="Monaco,Monaco" font-size="25.9" fill="#F7F7F7" transform="matrix(1.00, 0.00, -0.00, -1.00, 99.0, 442.6)"> </text><text xml:space="preserve" font-family="Monaco,Monaco" font-size="25.9" fill="#F7F7F7" transform="matrix(1.00, 0.00, -0.00, -1.00, 114.6, 442.6)"> </text><text xml:space="preserve" font-family="Monaco,Monaco" font-size="25.9" fill="#F7F7F7" transform="matrix(1.00, 0.00, -0.00, -1.00, 130.1, 442.6)">[</text><text xml:space="preserve" font-family="Monaco,Monaco" font-size="25.9" fill="#3287CB" transform="matrix(1.00, 0.00, -0.00, -1.00, 145.7, 442.6)">1</text><text xml:space="preserve" font-family="Monaco,Monaco" font-size="25.9" fill="#F7F7F7" transform="matrix(1.00, 0.00, -0.00, -1.00, 161.2, 442.6)">,</text><text xml:space="preserve" font-family="Monaco,Monaco" font-size="25.9" fill="#3287CB" transform="matrix(1.00, 0.00, -0.00, -1.00, 176.8, 442.6)">2</text><text xml:space="preserve" font-family="Monaco,Monaco" font-size="25.9" fill="#F7F7F7" transform="matrix(1.00, 0.00, -0.00, -1.00, 192.3, 442.6)">,</text><text xml:space="preserve" font-family="Monaco,Monaco" font-size="25.9" fill="#3287CB" transform="matrix(1.00, 0.00, -0.00, -1.00, 207.9, 442.6)">3</text><text xml:space="preserve" font-family="Monaco,Monaco" font-size="25.9" fill="#F7F7F7" transform="matrix(1.00, 0.00, -0.00, -1.00, 223.4, 442.6)">]</text><text xml:space="preserve" font-family="Monaco,Monaco" font-size="25.9" fill="#F7F7F7" transform="matrix(1.00, 0.00, -0.00, -1.00, 239.0, 442.6)">.</text><text xml:space="preserve" font-family="Monaco,Monaco" font-size="25.9" fill="#F7F7F7" transform="matrix(1.00, 0.00, -0.00, -1.00, 254.6, 442.6)">e</text><text xml:space="preserve" font-family="Monaco,Monaco" font-size="25.9" fill="#F7F7F7" transform="matrix(1.00, 0.00, -0.00, -1.00, 270.1, 442.6)">a</text><text xml:space="preserve" font-family="Monaco,Monaco" font-size="25.9" fill="#F7F7F7" transform="matrix(1.00, 0.00, -0.00, -1.00, 285.7, 442.6)">c</text><text xml:space="preserve" font-family="Monaco,Monaco" font-size="25.9" fill="#F7F7F7" transform="matrix(1.00, 0.00, -0.00, -1.00, 301.2, 442.6)">h</text><text xml:space="preserve" font-family="Monaco,Monaco" font-size="25.9" fill="#F7F7F7" transform="matrix(1.00, 0.00, -0.00, -1.00, 316.8, 442.6)"> </text><text xml:space="preserve" font-family="Monaco,Monaco" font-size="25.9" fill="#E18964" transform="matrix(1.00, 0.00, -0.00, -1.00, 332.3, 442.6)">d</text><text xml:space="preserve" font-family="Monaco,Monaco" font-size="25.9" fill="#E18964" transform="matrix(1.00, 0.00, -0.00, -1.00, 347.9, 442.6)">o</text><text xml:space="preserve" font-family="Monaco,Monaco" font-size="25.9" fill="#E18964" transform="matrix(1.00, 0.00, -0.00, -1.00, 363.4, 442.6)"> </text><text xml:space="preserve" font-family="Monaco,Monaco" font-size="25.9" fill="#F7F7F7" transform="matrix(1.00, 0.00, -0.00, -1.00, 379.0, 442.6)">|</text><text xml:space="preserve" font-family="Monaco,Monaco" font-size="25.9" fill="#3D86E3" transform="matrix(1.00, 0.00, -0.00, -1.00, 394.5, 442.6)">i</text><text xml:space="preserve" font-family="Monaco,Monaco" font-size="25.9" fill="#3D86E3" transform="matrix(1.00, 0.00, -0.00, -1.00, 410.1, 442.6)">t</text><text xml:space="preserve" font-family="Monaco,Monaco" font-size="25.9" fill="#3D86E3" transform="matrix(1.00, 0.00, -0.00, -1.00, 425.7, 442.6)">e</text><text xml:space="preserve" font-family="Monaco,Monaco" font-size="25.9" fill="#3D86E3" transform="matrix(1.00, 0.00, -0.00, -1.00, 441.2, 442.6)">m</text><text xml:space="preserve" font-family="Monaco,Monaco" font-size="25.9" fill="#F7F7F7" transform="matrix(1.00, 0.00, -0.00, -1.00, 456.8, 442.6)">|</text><text xml:space="preserve" font-family="Monaco,Monaco" font-size="25.9" fill="#F7F7F7" transform="matrix(1.00, 0.00, -0.00, -1.00, 472.3, 442.6)"> </text><text xml:space="preserve" font-family="Monaco,Monaco" font-size="25.9" fill="#F7F7F7" transform="matrix(1.00, 0.00, -0.00, -1.00, 487.9, 442.6)">p</text><text xml:space="preserve" font-family="Monaco,Monaco" font-size="25.9" fill="#F7F7F7" transform="matrix(1.00, 0.00, -0.00, -1.00, 503.4, 442.6)">u</text><text xml:space="preserve" font-family="Monaco,Monaco" font-size="25.9" fill="#F7F7F7" transform="matrix(1.00, 0.00, -0.00, -1.00, 519.0, 442.6)">t</text><text xml:space="preserve" font-family="Monaco,Monaco" font-size="25.9" fill="#F7F7F7" transform="matrix(1.00, 0.00, -0.00, -1.00, 534.5, 442.6)">s</text><text xml:space="preserve" font-family="Monaco,Monaco" font-size="25.9" fill="#F7F7F7" transform="matrix(1.00, 0.00, -0.00, -1.00, 550.1, 442.6)"> </text><text xml:space="preserve" font-family="Monaco,Monaco" font-size="25.9" fill="#F7F7F7" transform="matrix(1.00, 0.00, -0.00, -1.00, 565.7, 442.6)">i</text><text xml:space="preserve" font-family="Monaco,Monaco" font-size="25.9" fill="#F7F7F7" transform="matrix(1.00, 0.00, -0.00, -1.00, 581.2, 442.6)">t</text><text xml:space="preserve" font-family="Monaco,Monaco" font-size="25.9" fill="#F7F7F7" transform="matrix(1.00, 0.00, -0.00, -1.00, 596.8, 442.6)">e</text><text xml:space="preserve" font-family="Monaco,Monaco" font-size="25.9" fill="#F7F7F7" transform="matrix(1.00, 0.00, -0.00, -1.00, 612.3, 442.6)">m</text><text xml:space="preserve" font-family="Monaco,Monaco" font-size="25.9" fill="#F7F7F7" transform="matrix(1.00, 0.00, -0.00, -1.00, 627.9, 442.6)"> </text><text xml:space="preserve" font-family="Monaco,Monaco" font-size="25.9" fill="#E18964" transform="matrix(1.00, 0.00, -0.00, -1.00, 643.4, 442.6)">e</text><text xml:space="preserve" font-family="Monaco,Monaco" font-size="25.9" fill="#E18964" transform="matrix(1.00, 0.00, -0.00, -1.00, 659.0, 442.6)">n</text><text xml:space="preserve" font-family="Monaco,Monaco" font-size="25.9" fill="#E18964" transform="matrix(1.00, 0.00, -0.00, -1.00, 674.5, 442.6)">d</text><text xml:space="preserve" font-family="Monaco,Monaco" font-size="25.9" fill="#F7F7F7" transform="matrix(1.00, 0.00, -0.00, -1.00, 690.1, 442.6)">	</text><text xml:space="preserve" font-family="Monaco,Monaco" font-size="25.9" fill="#ADADAD" transform="matrix(1.00, 0.00, -0.00, -1.00, 99.0, 340.6)">#</text><text xml:space="preserve" font-family="Monaco,Monaco" font-size="25.9" fill="#ADADAD" transform="matrix(1.00, 0.00, -0.00, -1.00, 114.6, 340.6)"> </text><text xml:space="preserve" font-family="Monaco,Monaco" font-size="25.9" fill="#ADADAD" transform="matrix(1.00, 0.00, -0.00, -1.00, 130.1, 340.6)">R</text><text xml:space="preserve" font-family="Monaco,Monaco" font-size="25.9" fill="#ADADAD" transform="matrix(1.00, 0.00, -0.00, -1.00, 145.7, 340.6)">e</text><text xml:space="preserve" font-family="Monaco,Monaco" font-size="25.9" fill="#ADADAD" transform="matrix(1.00, 0.00, -0.00, -1.00, 161.2, 340.6)">s</text><text xml:space="preserve" font-family="Monaco,Monaco" font-size="25.9" fill="#ADADAD" transform="matrix(1.00, 0.00, -0.00, -1.00, 176.8, 340.6)">o</text><text xml:space="preserve" font-family="Monaco,Monaco" font-size="25.9" fill="#ADADAD" transform="matrix(1.00, 0.00, -0.00, -1.00, 192.3, 340.6)">u</text><text xml:space="preserve" font-family="Monaco,Monaco" font-size="25.9" fill="#ADADAD" transform="matrix(1.00, 0.00, -0.00, -1.00, 207.9, 340.6)">r</text><text xml:space="preserve" font-family="Monaco,Monaco" font-size="25.9" fill="#ADADAD" transform="matrix(1.00, 0.00, -0.00, -1.00, 223.5, 340.6)">c</text><text xml:space="preserve" font-family="Monaco,Monaco" font-size="25.9" fill="#ADADAD" transform="matrix(1.00, 0.00, -0.00, -1.00, 239.0, 340.6)">e</text><text xml:space="preserve" font-family="Monaco,Monaco" font-size="25.9" fill="#ADADAD" transform="matrix(1.00, 0.00, -0.00, -1.00, 254.6, 340.6)"> </text><text xml:space="preserve" font-family="Monaco,Monaco" font-size="25.9" fill="#ADADAD" transform="matrix(1.00, 0.00, -0.00, -1.00, 270.1, 340.6)">M</text><text xml:space="preserve" font-family="Monaco,Monaco" font-size="25.9" fill="#ADADAD" transform="matrix(1.00, 0.00, -0.00, -1.00, 285.7, 340.6)">a</text><text xml:space="preserve" font-family="Monaco,Monaco" font-size="25.9" fill="#ADADAD" transform="matrix(1.00, 0.00, -0.00, -1.00, 301.2, 340.6)">n</text><text xml:space="preserve" font-family="Monaco,Monaco" font-size="25.9" fill="#ADADAD" transform="matrix(1.00, 0.00, -0.00, -1.00, 316.8, 340.6)">a</text><text xml:space="preserve" font-family="Monaco,Monaco" font-size="25.9" fill="#ADADAD" transform="matrix(1.00, 0.00, -0.00, -1.00, 332.4, 340.6)">g</text><text xml:space="preserve" font-family="Monaco,Monaco" font-size="25.9" fill="#ADADAD" transform="matrix(1.00, 0.00, -0.00, -1.00, 347.9, 340.6)">e</text><text xml:space="preserve" font-family="Monaco,Monaco" font-size="25.9" fill="#ADADAD" transform="matrix(1.00, 0.00, -0.00, -1.00, 363.5, 340.6)">m</text><text xml:space="preserve" font-family="Monaco,Monaco" font-size="25.9" fill="#ADADAD" transform="matrix(1.00, 0.00, -0.00, -1.00, 379.0, 340.6)">e</text><text xml:space="preserve" font-family="Monaco,Monaco" font-size="25.9" fill="#ADADAD" transform="matrix(1.00, 0.00, -0.00, -1.00, 394.6, 340.6)">n</text><text xml:space="preserve" font-family="Monaco,Monaco" font-size="25.9" fill="#ADADAD" transform="matrix(1.00, 0.00, -0.00, -1.00, 410.1, 340.6)">t</text><text xml:space="preserve" font-family="Monaco,Monaco" font-size="25.9" fill="#ADADAD" transform="matrix(1.00, 0.00, -0.00, -1.00, 425.7, 340.6)">	</text><text xml:space="preserve" font-family="Monaco,Monaco" font-size="25.9" fill="#F7F7F7" transform="matrix(1.00, 0.00, -0.00, -1.00, 99.0, 272.6)"> </text><text xml:space="preserve" font-family="Monaco,Monaco" font-size="25.9" fill="#F7F7F7" transform="matrix(1.00, 0.00, -0.00, -1.00, 114.6, 272.6)"> </text><text xml:space="preserve" font-family="Monaco,Monaco" font-size="25.9" fill="#F7F7F7" transform="matrix(1.00, 0.00, -0.00, -1.00, 130.1, 272.6)">f</text><text xml:space="preserve" font-family="Monaco,Monaco" font-size="25.9" fill="#F7F7F7" transform="matrix(1.00, 0.00, -0.00, -1.00, 145.7, 272.6)">i</text><text xml:space="preserve" font-family="Monaco,Monaco" font-size="25.9" fill="#F7F7F7" transform="matrix(1.00, 0.00, -0.00, -1.00, 161.2, 272.6)">l</text><text xml:space="preserve" font-family="Monaco,Monaco" font-size="25.9" fill="#F7F7F7" transform="matrix(1.00, 0.00, -0.00, -1.00, 176.8, 272.6)">e</text><text xml:space="preserve" font-family="Monaco,Monaco" font-size="25.9" fill="#F7F7F7" transform="matrix(1.00, 0.00, -0.00, -1.00, 192.3, 272.6)">_</text><text xml:space="preserve" font-family="Monaco,Monaco" font-size="25.9" fill="#F7F7F7" transform="matrix(1.00, 0.00, -0.00, -1.00, 207.9, 272.6)">c</text><text xml:space="preserve" font-family="Monaco,Monaco" font-size="25.9" fill="#F7F7F7" transform="matrix(1.00, 0.00, -0.00, -1.00, 223.5, 272.6)">o</text><text xml:space="preserve" font-family="Monaco,Monaco" font-size="25.9" fill="#F7F7F7" transform="matrix(1.00, 0.00, -0.00, -1.00, 239.0, 272.6)">n</text><text xml:space="preserve" font-family="Monaco,Monaco" font-size="25.9" fill="#F7F7F7" transform="matrix(1.00, 0.00, -0.00, -1.00, 254.6, 272.6)">t</text><text xml:space="preserve" font-family="Monaco,Monaco" font-size="25.9" fill="#F7F7F7" transform="matrix(1.00, 0.00, -0.00, -1.00, 270.1, 272.6)">e</text><text xml:space="preserve" font-family="Monaco,Monaco" font-size="25.9" fill="#F7F7F7" transform="matrix(1.00, 0.00, -0.00, -1.00, 285.7, 272.6)">n</text><text xml:space="preserve" font-family="Monaco,Monaco" font-size="25.9" fill="#F7F7F7" transform="matrix(1.00, 0.00, -0.00, -1.00, 301.2, 272.6)">t</text><text xml:space="preserve" font-family="Monaco,Monaco" font-size="25.9" fill="#F7F7F7" transform="matrix(1.00, 0.00, -0.00, -1.00, 316.8, 272.6)">s</text><text xml:space="preserve" font-family="Monaco,Monaco" font-size="25.9" fill="#F7F7F7" transform="matrix(1.00, 0.00, -0.00, -1.00, 332.4, 272.6)"> </text><text xml:space="preserve" font-family="Monaco,Monaco" font-size="25.9" fill="#E18964" transform="matrix(1.00, 0.00, -0.00, -1.00, 347.9, 272.6)">=</text><text xml:space="preserve" font-family="Monaco,Monaco" font-size="25.9" fill="#F7F7F7" transform="matrix(1.00, 0.00, -0.00, -1.00, 363.4, 272.6)"> </text><text xml:space="preserve" font-family="Monaco,Monaco" font-size="25.9" fill="#F7F7F7" transform="matrix(1.00, 0.00, -0.00, -1.00, 379.0, 272.6)">o</text><text xml:space="preserve" font-family="Monaco,Monaco" font-size="25.9" fill="#F7F7F7" transform="matrix(1.00, 0.00, -0.00, -1.00, 394.5, 272.6)">p</text><text xml:space="preserve" font-family="Monaco,Monaco" font-size="25.9" fill="#F7F7F7" transform="matrix(1.00, 0.00, -0.00, -1.00, 410.1, 272.6)">e</text><text xml:space="preserve" font-family="Monaco,Monaco" font-size="25.9" fill="#F7F7F7" transform="matrix(1.00, 0.00, -0.00, -1.00, 425.7, 272.6)">n</text><text xml:space="preserve" font-family="Monaco,Monaco" font-size="25.9" fill="#F7F7F7" transform="matrix(1.00, 0.00, -0.00, -1.00, 441.2, 272.6)">(</text><text xml:space="preserve" font-family="Monaco,Monaco" font-size="25.9" fill="#F7F7F7" transform="matrix(1.00, 0.00, -0.00, -1.00, 456.8, 272.6)">f</text><text xml:space="preserve" font-family="Monaco,Monaco" font-size="25.9" fill="#F7F7F7" transform="matrix(1.00, 0.00, -0.00, -1.00, 472.3, 272.6)">i</text><text xml:space="preserve" font-family="Monaco,Monaco" font-size="25.9" fill="#F7F7F7" transform="matrix(1.00, 0.00, -0.00, -1.00, 487.9, 272.6)">l</text><text xml:space="preserve" font-family="Monaco,Monaco" font-size="25.9" fill="#F7F7F7" transform="matrix(1.00, 0.00, -0.00, -1.00, 503.4, 272.6)">e</text><text xml:space="preserve" font-family="Monaco,Monaco" font-size="25.9" fill="#F7F7F7" transform="matrix(1.00, 0.00, -0.00, -1.00, 519.0, 272.6)">_</text><text xml:space="preserve" font-family="Monaco,Monaco" font-size="25.9" fill="#F7F7F7" transform="matrix(1.00, 0.00, -0.00, -1.00, 534.6, 272.6)">n</text><text xml:space="preserve" font-family="Monaco,Monaco" font-size="25.9" fill="#F7F7F7" transform="matrix(1.00, 0.00, -0.00, -1.00, 550.1, 272.6)">a</text><text xml:space="preserve" font-family="Monaco,Monaco" font-size="25.9" fill="#F7F7F7" transform="matrix(1.00, 0.00, -0.00, -1.00, 565.7, 272.6)">m</text><text xml:space="preserve" font-family="Monaco,Monaco" font-size="25.9" fill="#F7F7F7" transform="matrix(1.00, 0.00, -0.00, -1.00, 581.2, 272.6)">e</text><text xml:space="preserve" font-family="Monaco,Monaco" font-size="25.9" fill="#F7F7F7" transform="matrix(1.00, 0.00, -0.00, -1.00, 596.8, 272.6)">)</text><text xml:space="preserve" font-family="Monaco,Monaco" font-size="25.9" fill="#F7F7F7" transform="matrix(1.00, 0.00, -0.00, -1.00, 612.3, 272.6)"> </text><text xml:space="preserve" font-family="Monaco,Monaco" font-size="25.9" fill="#F7F7F7" transform="matrix(1.00, 0.00, -0.00, -1.00, 627.9, 272.6)">{</text><text xml:space="preserve" font-family="Monaco,Monaco" font-size="25.9" fill="#F7F7F7" transform="matrix(1.00, 0.00, -0.00, -1.00, 643.5, 272.6)"> </text><text xml:space="preserve" font-family="Monaco,Monaco" font-size="25.9" fill="#F7F7F7" transform="matrix(1.00, 0.00, -0.00, -1.00, 659.0, 272.6)">|</text><text xml:space="preserve" font-family="Monaco,Monaco" font-size="25.9" fill="#3D86E3" transform="matrix(1.00, 0.00, -0.00, -1.00, 674.5, 272.6)">f</text><text xml:space="preserve" font-family="Monaco,Monaco" font-size="25.9" fill="#F7F7F7" transform="matrix(1.00, 0.00, -0.00, -1.00, 690.1, 272.6)">|</text><text xml:space="preserve" font-family="Monaco,Monaco" font-size="25.9" fill="#F7F7F7" transform="matrix(1.00, 0.00, -0.00, -1.00, 705.6, 272.6)"> </text><text xml:space="preserve" font-family="Monaco,Monaco" font-size="25.9" fill="#F7F7F7" transform="matrix(1.00, 0.00, -0.00, -1.00, 721.2, 272.6)">f</text><text xml:space="preserve" font-family="Monaco,Monaco" font-size="25.9" fill="#F7F7F7" transform="matrix(1.00, 0.00, -0.00, -1.00, 736.7, 272.6)">.</text><text xml:space="preserve" font-family="Monaco,Monaco" font-size="25.9" fill="#F7F7F7" transform="matrix(1.00, 0.00, -0.00, -1.00, 752.3, 272.6)">r</text><text xml:space="preserve" font-family="Monaco,Monaco" font-size="25.9" fill="#F7F7F7" transform="matrix(1.00, 0.00, -0.00, -1.00, 767.9, 272.6)">e</text><text xml:space="preserve" font-family="Monaco,Monaco" font-size="25.9" fill="#F7F7F7" transform="matrix(1.00, 0.00, -0.00, -1.00, 783.4, 272.6)">a</text><text xml:space="preserve" font-family="Monaco,Monaco" font-size="25.9" fill="#F7F7F7" transform="matrix(1.00, 0.00, -0.00, -1.00, 799.0, 272.6)">d</text><text xml:space="preserve" font-family="Monaco,Monaco" font-size="25.9" fill="#F7F7F7" transform="matrix(1.00, 0.00, -0.00, -1.00, 814.5, 272.6)"> </text><text xml:space="preserve" font-family="Monaco,Monaco" font-size="25.9" fill="#F7F7F7" transform="matrix(1.00, 0.00, -0.00, -1.00, 830.1, 272.6)">}</text><text xml:space="preserve" font-family="Monaco,Monaco" font-size="25.9" fill="#F7F7F7" transform="matrix(1.00, 0.00, -0.00, -1.00, 845.6, 272.6)">	</text><text xml:space="preserve" font-family="Monaco,Monaco" font-size="25.9" fill="#ADADAD" transform="matrix(1.00, 0.00, -0.00, -1.00, 99.0, 170.6)">#</text><text xml:space="preserve" font-family="Monaco,Monaco" font-size="25.9" fill="#ADADAD" transform="matrix(1.00, 0.00, -0.00, -1.00, 114.6, 170.6)"> </text><text xml:space="preserve" font-family="Monaco,Monaco" font-size="25.9" fill="#ADADAD" transform="matrix(1.00, 0.00, -0.00, -1.00, 130.1, 170.6)">C</text><text xml:space="preserve" font-family="Monaco,Monaco" font-size="25.9" fill="#ADADAD" transform="matrix(1.00, 0.00, -0.00, -1.00, 145.7, 170.6)">a</text><text xml:space="preserve" font-family="Monaco,Monaco" font-size="25.9" fill="#ADADAD" transform="matrix(1.00, 0.00, -0.00, -1.00, 161.2, 170.6)">l</text><text xml:space="preserve" font-family="Monaco,Monaco" font-size="25.9" fill="#ADADAD" transform="matrix(1.00, 0.00, -0.00, -1.00, 176.8, 170.6)">l</text><text xml:space="preserve" font-family="Monaco,Monaco" font-size="25.9" fill="#ADADAD" transform="matrix(1.00, 0.00, -0.00, -1.00, 192.3, 170.6)">b</text><text xml:space="preserve" font-family="Monaco,Monaco" font-size="25.9" fill="#ADADAD" transform="matrix(1.00, 0.00, -0.00, -1.00, 207.9, 170.6)">a</text><text xml:space="preserve" font-family="Monaco,Monaco" font-size="25.9" fill="#ADADAD" transform="matrix(1.00, 0.00, -0.00, -1.00, 223.5, 170.6)">c</text><text xml:space="preserve" font-family="Monaco,Monaco" font-size="25.9" fill="#ADADAD" transform="matrix(1.00, 0.00, -0.00, -1.00, 239.0, 170.6)">k</text><text xml:space="preserve" font-family="Monaco,Monaco" font-size="25.9" fill="#ADADAD" transform="matrix(1.00, 0.00, -0.00, -1.00, 254.6, 170.6)">s</text><text xml:space="preserve" font-family="Monaco,Monaco" font-size="25.9" fill="#ADADAD" transform="matrix(1.00, 0.00, -0.00, -1.00, 270.1, 170.6)">	</text><text xml:space="preserve" font-family="Monaco,Monaco" font-size="25.9" fill="#F7F7F7" transform="matrix(1.00, 0.00, -0.00, -1.00, 99.0, 102.6)"> </text><text xml:space="preserve" font-family="Monaco,Monaco" font-size="25.9" fill="#F7F7F7" transform="matrix(1.00, 0.00, -0.00, -1.00, 114.6, 102.6)"> </text><text xml:space="preserve" font-family="Monaco,Monaco" font-size="25.9" fill="#F7F7F7" transform="matrix(1.00, 0.00, -0.00, -1.00, 130.1, 102.6)">w</text><text xml:space="preserve" font-family="Monaco,Monaco" font-size="25.9" fill="#F7F7F7" transform="matrix(1.00, 0.00, -0.00, -1.00, 145.7, 102.6)">i</text><text xml:space="preserve" font-family="Monaco,Monaco" font-size="25.9" fill="#F7F7F7" transform="matrix(1.00, 0.00, -0.00, -1.00, 161.2, 102.6)">d</text><text xml:space="preserve" font-family="Monaco,Monaco" font-size="25.9" fill="#F7F7F7" transform="matrix(1.00, 0.00, -0.00, -1.00, 176.8, 102.6)">g</text><text xml:space="preserve" font-family="Monaco,Monaco" font-size="25.9" fill="#F7F7F7" transform="matrix(1.00, 0.00, -0.00, -1.00, 192.3, 102.6)">e</text><text xml:space="preserve" font-family="Monaco,Monaco" font-size="25.9" fill="#F7F7F7" transform="matrix(1.00, 0.00, -0.00, -1.00, 207.9, 102.6)">t</text><text xml:space="preserve" font-family="Monaco,Monaco" font-size="25.9" fill="#F7F7F7" transform="matrix(1.00, 0.00, -0.00, -1.00, 223.5, 102.6)">.</text><text xml:space="preserve" font-family="Monaco,Monaco" font-size="25.9" fill="#F7F7F7" transform="matrix(1.00, 0.00, -0.00, -1.00, 239.0, 102.6)">o</text><text xml:space="preserve" font-family="Monaco,Monaco" font-size="25.9" fill="#F7F7F7" transform="matrix(1.00, 0.00, -0.00, -1.00, 254.6, 102.6)">n</text><text xml:space="preserve" font-family="Monaco,Monaco" font-size="25.9" fill="#F7F7F7" transform="matrix(1.00, 0.00, -0.00, -1.00, 270.1, 102.6)">_</text><text xml:space="preserve" font-family="Monaco,Monaco" font-size="25.9" fill="#F7F7F7" transform="matrix(1.00, 0.00, -0.00, -1.00, 285.7, 102.6)">b</text><text xml:space="preserve" font-family="Monaco,Monaco" font-size="25.9" fill="#F7F7F7" transform="matrix(1.00, 0.00, -0.00, -1.00, 301.2, 102.6)">u</text><text xml:space="preserve" font-family="Monaco,Monaco" font-size="25.9" fill="#F7F7F7" transform="matrix(1.00, 0.00, -0.00, -1.00, 316.8, 102.6)">t</text><text xml:space="preserve" font-family="Monaco,Monaco" font-size="25.9" fill="#F7F7F7" transform="matrix(1.00, 0.00, -0.00, -1.00, 332.4, 102.6)">t</text><text xml:space="preserve" font-family="Monaco,Monaco" font-size="25.9" fill="#F7F7F7" transform="matrix(1.00, 0.00, -0.00, -1.00, 347.9, 102.6)">o</text><text xml:space="preserve" font-family="Monaco,Monaco" font-size="25.9" fill="#F7F7F7" transform="matrix(1.00, 0.00, -0.00, -1.00, 363.5, 102.6)">n</text><text xml:space="preserve" font-family="Monaco,Monaco" font-size="25.9" fill="#F7F7F7" transform="matrix(1.00, 0.00, -0.00, -1.00, 379.0, 102.6)">_</text><text xml:space="preserve" font-family="Monaco,Monaco" font-size="25.9" fill="#F7F7F7" transform="matrix(1.00, 0.00, -0.00, -1.00, 394.6, 102.6)">p</text><text xml:space="preserve" font-family="Monaco,Monaco" font-size="25.9" fill="#F7F7F7" transform="matrix(1.00, 0.00, -0.00, -1.00, 410.1, 102.6)">r</text><text xml:space="preserve" font-family="Monaco,Monaco" font-size="25.9" fill="#F7F7F7" transform="matrix(1.00, 0.00, -0.00, -1.00, 425.7, 102.6)">e</text><text xml:space="preserve" font-family="Monaco,Monaco" font-size="25.9" fill="#F7F7F7" transform="matrix(1.00, 0.00, -0.00, -1.00, 441.3, 102.6)">s</text><text xml:space="preserve" font-family="Monaco,Monaco" font-size="25.9" fill="#F7F7F7" transform="matrix(1.00, 0.00, -0.00, -1.00, 456.8, 102.6)">s</text><text xml:space="preserve" font-family="Monaco,Monaco" font-size="25.9" fill="#F7F7F7" transform="matrix(1.00, 0.00, -0.00, -1.00, 472.4, 102.6)"> </text><text xml:space="preserve" font-family="Monaco,Monaco" font-size="25.9" fill="#F7F7F7" transform="matrix(1.00, 0.00, -0.00, -1.00, 487.9, 102.6)">{</text><text xml:space="preserve" font-family="Monaco,Monaco" font-size="25.9" fill="#F7F7F7" transform="matrix(1.00, 0.00, -0.00, -1.00, 503.5, 102.6)"> </text><text xml:space="preserve" font-family="Monaco,Monaco" font-size="25.9" fill="#F7F7F7" transform="matrix(1.00, 0.00, -0.00, -1.00, 519.0, 102.6)">p</text><text xml:space="preserve" font-family="Monaco,Monaco" font-size="25.9" fill="#F7F7F7" transform="matrix(1.00, 0.00, -0.00, -1.00, 534.6, 102.6)">u</text><text xml:space="preserve" font-family="Monaco,Monaco" font-size="25.9" fill="#F7F7F7" transform="matrix(1.00, 0.00, -0.00, -1.00, 550.2, 102.6)">t</text><text xml:space="preserve" font-family="Monaco,Monaco" font-size="25.9" fill="#F7F7F7" transform="matrix(1.00, 0.00, -0.00, -1.00, 565.7, 102.6)">s</text><text xml:space="preserve" font-family="Monaco,Monaco" font-size="25.9" fill="#F7F7F7" transform="matrix(1.00, 0.00, -0.00, -1.00, 581.3, 102.6)"> </text><text xml:space="preserve" font-family="Monaco,Monaco" font-size="25.9" fill="#64AF41" transform="matrix(1.00, 0.00, -0.00, -1.00, 596.7, 102.6)">"</text><text xml:space="preserve" font-family="Monaco,Monaco" font-size="25.9" fill="#64AF41" transform="matrix(1.00, 0.00, -0.00, -1.00, 612.3, 102.6)">G</text><text xml:space="preserve" font-family="Monaco,Monaco" font-size="25.9" fill="#64AF41" transform="matrix(1.00, 0.00, -0.00, -1.00, 627.9, 102.6)">o</text><text xml:space="preserve" font-family="Monaco,Monaco" font-size="25.9" fill="#64AF41" transform="matrix(1.00, 0.00, -0.00, -1.00, 643.4, 102.6)">t</text><text xml:space="preserve" font-family="Monaco,Monaco" font-size="25.9" fill="#64AF41" transform="matrix(1.00, 0.00, -0.00, -1.00, 659.0, 102.6)"> </text><text xml:space="preserve" font-family="Monaco,Monaco" font-size="25.9" fill="#64AF41" transform="matrix(1.00, 0.00, -0.00, -1.00, 674.5, 102.6)">B</text><text xml:space="preserve" font-family="Monaco,Monaco" font-size="25.9" fill="#64AF41" transform="matrix(1.00, 0.00, -0.00, -1.00, 690.1, 102.6)">u</text><text xml:space="preserve" font-family="Monaco,Monaco" font-size="25.9" fill="#64AF41" transform="matrix(1.00, 0.00, -0.00, -1.00, 705.6, 102.6)">t</text><text xml:space="preserve" font-family="Monaco,Monaco" font-size="25.9" fill="#64AF41" transform="matrix(1.00, 0.00, -0.00, -1.00, 721.2, 102.6)">t</text><text xml:space="preserve" font-family="Monaco,Monaco" font-size="25.9" fill="#64AF41" transform="matrix(1.00, 0.00, -0.00, -1.00, 736.8, 102.6)">o</text><text xml:space="preserve" font-family="Monaco,Monaco" font-size="25.9" fill="#64AF41" transform="matrix(1.00, 0.00, -0.00, -1.00, 752.3, 102.6)">n</text><text xml:space="preserve" font-family="Monaco,Monaco" font-size="25.9" fill="#64AF41" transform="matrix(1.00, 0.00, -0.00, -1.00, 767.9, 102.6)"> </text><text xml:space="preserve" font-family="Monaco,Monaco" font-size="25.9" fill="#64AF41" transform="matrix(1.00, 0.00, -0.00, -1.00, 783.4, 102.6)">P</text><text xml:space="preserve" font-family="Monaco,Monaco" font-size="25.9" fill="#64AF41" transform="matrix(1.00, 0.00, -0.00, -1.00, 799.0, 102.6)">r</text><text xml:space="preserve" font-family="Monaco,Monaco" font-size="25.9" fill="#64AF41" transform="matrix(1.00, 0.00, -0.00, -1.00, 814.5, 102.6)">e</text><text xml:space="preserve" font-family="Monaco,Monaco" font-size="25.9" fill="#64AF41" transform="matrix(1.00, 0.00, -0.00, -1.00, 830.1, 102.6)">s</text><text xml:space="preserve" font-family="Monaco,Monaco" font-size="25.9" fill="#64AF41" transform="matrix(1.00, 0.00, -0.00, -1.00, 845.7, 102.6)">s</text><text xml:space="preserve" font-family="Monaco,Monaco" font-size="25.9" fill="#64AF41" transform="matrix(1.00, 0.00, -0.00, -1.00, 861.2, 102.6)">"</text><text xml:space="preserve" font-family="Monaco,Monaco" font-size="25.9" fill="#F7F7F7" transform="matrix(1.00, 0.00, -0.00, -1.00, 876.7, 102.6)"> </text><text xml:space="preserve" font-family="Monaco,Monaco" font-size="25.9" fill="#F7F7F7" transform="matrix(1.00, 0.00, -0.00, -1.00, 892.3, 102.6)">}</text></g></g></g></svg>