<?xml version="1.0" encoding="UTF-8" standalone="no"?><svg xmlns="http://www.w3.org/2000/svg" xmlns:xlink="http://www.w3.org/1999/xlink" clip-rule="evenodd" stroke-miterlimit="10" viewBox="0 0 1024 768"><desc>SVG generated by Keynote</desc><defs></defs><g transform="matrix(1.00, 0.00, -0.00, -1.00, 0.0, 768.0)"><path d="M 0.0 768.0 L 1024.0 768.0 L 1024.0 0.0 L 0.0 0.0 Z M 0.0 768.0 " fill="#669C3B"></path><text xml:space="preserve" font-family="HelveticaNeue-Bold,Helvetica Neue" font-weight="bold" font-size="80.0" fill="#FEFFFF" transform="matrix(1.00, 0.00, -0.00, -1.00, 219.8, 632.7)">m</text><text xml:space="preserve" font-family="HelveticaNeue-Bold,Helvetica Neue" font-weight="bold" font-size="80.0" fill="#FEFFFF" transform="matrix(1.00, 0.00, -0.00, -1.00, 289.1, 632.7)">o</text><text xml:space="preserve" font-family="HelveticaNeue-Bold,Helvetica Neue" font-weight="bold" font-size="80.0" fill="#FEFFFF" transform="matrix(1.00, 0.00, -0.00, -1.00, 334.8, 632.7)">d</text><text xml:space="preserve" font-family="HelveticaNeue-Bold,Helvetica Neue" font-weight="bold" font-size="80.0" fill="#FEFFFF" transform="matrix(1.00, 0.00, -0.00, -1.00, 380.4, 632.7)">u</text><text xml:space="preserve" font-family="HelveticaNeue-Bold,Helvetica Neue" font-weight="bold" font-size="80.0" fill="#FEFFFF" transform="matrix(1.00, 0.00, -0.00, -1.00, 424.7, 632.7)">l</text><text xml:space="preserve" font-family="HelveticaNeue-Bold,Helvetica Neue" font-weight="bold" font-size="80.0" fill="#FEFFFF" transform="matrix(1.00, 0.00, -0.00, -1.00, 442.1, 632.7)">e</text><text xml:space="preserve" font-family="HelveticaNeue-Bold,Helvetica Neue" font-weight="bold" font-size="80.0" fill="#FEFFFF" transform="matrix(1.00, 0.00, -0.00, -1.00, 484.8, 632.7)"> </text><text xml:space="preserve" font-family="HelveticaNeue-Bold,Helvetica Neue" font-weight="bold" font-size="80.0" fill="#FEFFFF" transform="matrix(1.00, 0.00, -0.00, -1.00, 503.9, 632.7)">e</text><text xml:space="preserve" font-family="HelveticaNeue-Bold,Helvetica Neue" font-weight="bold" font-size="80.0" fill="#FEFFFF" transform="matrix(1.00, 0.00, -0.00, -1.00, 546.6, 632.7)">x</text><text xml:space="preserve" font-family="HelveticaNeue-Bold,Helvetica Neue" font-weight="bold" font-size="80.0" fill="#FEFFFF" transform="matrix(1.00, 0.00, -0.00, -1.00, 586.4, 632.7)">a</text><text xml:space="preserve" font-family="HelveticaNeue-Bold,Helvetica Neue" font-weight="bold" font-size="80.0" fill="#FEFFFF" transform="matrix(1.00, 0.00, -0.00, -1.00, 629.1, 632.7)">m</text><text xml:space="preserve" font-family="HelveticaNeue-Bold,Helvetica Neue" font-weight="bold" font-size="80.0" fill="#FEFFFF" transform="matrix(1.00, 0.00, -0.00, -1.00, 698.4, 632.7)">p</text><text xml:space="preserve" font-family="HelveticaNeue-Bold,Helvetica Neue" font-weight="bold" font-size="80.0" fill="#FEFFFF" transform="matrix(1.00, 0.00, -0.00, -1.00, 744.0, 632.7)">l</text><text xml:space="preserve" font-family="HelveticaNeue-Bold,Helvetica Neue" font-weight="bold" font-size="80.0" fill="#FEFFFF" transform="matrix(1.00, 0.00, -0.00, -1.00, 761.5, 632.7)">e</text><path d="M 75.0 564.0 L 949.0 564.0 L 949.0 69.0 L 75.0 69.0 Z M 75.0 564.0 " fill="#161616"></path><image xlink:href="../../8F0C1197-3438-4549-8091-6032C74756B9/assets/932506F90606F6BEA790D89AA40BDE8B.png" width="872.00" height="493.00" transform="matrix(1.00, 0.00, -0.00, 1.00, 76.0, 70.0)"></image><g><clipPath id="clip0x608000eaffc0"><path d="M 76.0 70.0 L 948.0 70.0 L 948.0 563.0 L 76.0 563.0 Z M 76.0 70.0 "></path></clipPath><g clip-path="url(#clip0x608000eaffc0)"><path d="M 99.0 536.0 L 285.7 536.0 L 285.7 502.0 L 99.0 502.0 Z M 99.0 536.0 " fill="#000000"></path><path d="M 99.0 502.0 L 441.2 502.0 L 441.2 468.0 L 99.0 468.0 Z M 99.0 502.0 " fill="#000000"></path><path d="M 99.0 434.0 L 316.8 434.0 L 316.8 400.0 L 99.0 400.0 Z M 99.0 434.0 " fill="#000000"></path><path d="M 99.0 400.0 L 550.1 400.0 L 550.1 366.0 L 99.0 366.0 Z M 99.0 400.0 " fill="#000000"></path><path d="M 99.0 366.0 L 176.8 366.0 L 176.8 332.0 L 99.0 332.0 Z M 99.0 366.0 " fill="#000000"></path><path d="M 99.0 298.0 L 301.2 298.0 L 301.2 264.0 L 99.0 264.0 Z M 99.0 298.0 " fill="#000000"></path><path d="M 99.0 264.0 L 534.5 264.0 L 534.5 230.0 L 99.0 230.0 Z M 99.0 264.0 " fill="#000000"></path><path d="M 99.0 230.0 L 176.8 230.0 L 176.8 196.0 L 99.0 196.0 Z M 99.0 230.0 " fill="#000000"></path><path d="M 99.0 162.0 L 612.3 162.0 L 612.3 128.0 L 99.0 128.0 Z M 99.0 162.0 " fill="#000000"></path><path d="M 99.0 128.0 L 145.7 128.0 L 145.7 94.0 L 99.0 94.0 Z M 99.0 128.0 " fill="#000000"></path><text xml:space="preserve" font-family="Monaco,Monaco" font-size="25.9" fill="#E18964" transform="matrix(1.00, 0.00, -0.00, -1.00, 99.0, 510.6)">c</text><text xml:space="preserve" font-family="Monaco,Monaco" font-size="25.9" fill="#E18964" transform="matrix(1.00, 0.00, -0.00, -1.00, 114.6, 510.6)">l</text><text xml:space="preserve" font-family="Monaco,Monaco" font-size="25.9" fill="#E18964" transform="matrix(1.00, 0.00, -0.00, -1.00, 130.1, 510.6)">a</text><text xml:space="preserve" font-family="Monaco,Monaco" font-size="25.9" fill="#E18964" transform="matrix(1.00, 0.00, -0.00, -1.00, 145.7, 510.6)">s</text><text xml:space="preserve" font-family="Monaco,Monaco" font-size="25.9" fill="#E18964" transform="matrix(1.00, 0.00, -0.00, -1.00, 161.2, 510.6)">s</text><text xml:space="preserve" font-family="Monaco,Monaco" font-size="25.9" fill="#F7F7F7" transform="matrix(1.00, 0.00, -0.00, -1.00, 176.8, 510.6)"> </text><text xml:space="preserve" font-family="Monaco,Monaco" font-size="25.9" fill="#89BDFF" transform="matrix(1.00, 0.00, -0.00, -1.00, 192.3, 510.6)">P</text><text xml:space="preserve" font-family="Monaco,Monaco" font-size="25.9" fill="#89BDFF" transform="matrix(1.00, 0.00, -0.00, -1.00, 207.9, 510.6)">e</text><text xml:space="preserve" font-family="Monaco,Monaco" font-size="25.9" fill="#89BDFF" transform="matrix(1.00, 0.00, -0.00, -1.00, 223.4, 510.6)">r</text><text xml:space="preserve" font-family="Monaco,Monaco" font-size="25.9" fill="#89BDFF" transform="matrix(1.00, 0.00, -0.00, -1.00, 239.0, 510.6)">s</text><text xml:space="preserve" font-family="Monaco,Monaco" font-size="25.9" fill="#89BDFF" transform="matrix(1.00, 0.00, -0.00, -1.00, 254.6, 510.6)">o</text><text xml:space="preserve" font-family="Monaco,Monaco" font-size="25.9" fill="#89BDFF" transform="matrix(1.00, 0.00, -0.00, -1.00, 270.1, 510.6)">n</text><text xml:space="preserve" font-family="Monaco,Monaco" font-size="25.9" fill="#F7F7F7" transform="matrix(1.00, 0.00, -0.00, -1.00, 285.7, 510.6)">	</text><path d="M 116.3 55.2 L 209.7 55.2 " fill="none" stroke="#89BDFF" stroke-width="1.96" transform="matrix(1.00, 0.00, 0.00, -1.00, 76.0, 563.0)"></path><text xml:space="preserve" font-family="Monaco,Monaco" font-size="25.9" fill="#F7F7F7" transform="matrix(1.00, 0.00, -0.00, -1.00, 99.0, 476.6)"> </text><text xml:space="preserve" font-family="Monaco,Monaco" font-size="25.9" fill="#F7F7F7" transform="matrix(1.00, 0.00, -0.00, -1.00, 114.6, 476.6)"> </text><text xml:space="preserve" font-family="Monaco,Monaco" font-size="25.9" fill="#E18964" transform="matrix(1.00, 0.00, -0.00, -1.00, 130.1, 476.6)">a</text><text xml:space="preserve" font-family="Monaco,Monaco" font-size="25.9" fill="#E18964" transform="matrix(1.00, 0.00, -0.00, -1.00, 145.7, 476.6)">t</text><text xml:space="preserve" font-family="Monaco,Monaco" font-size="25.9" fill="#E18964" transform="matrix(1.00, 0.00, -0.00, -1.00, 161.2, 476.6)">t</text><text xml:space="preserve" font-family="Monaco,Monaco" font-size="25.9" fill="#E18964" transform="matrix(1.00, 0.00, -0.00, -1.00, 176.8, 476.6)">r</text><text xml:space="preserve" font-family="Monaco,Monaco" font-size="25.9" fill="#F7F7F7" transform="matrix(1.00, 0.00, -0.00, -1.00, 192.3, 476.6)"> </text><text xml:space="preserve" font-family="Monaco,Monaco" font-size="25.9" fill="#3287CB" transform="matrix(1.00, 0.00, -0.00, -1.00, 207.9, 476.6)">:</text><text xml:space="preserve" font-family="Monaco,Monaco" font-size="25.9" fill="#3287CB" transform="matrix(1.00, 0.00, -0.00, -1.00, 223.4, 476.6)">n</text><text xml:space="preserve" font-family="Monaco,Monaco" font-size="25.9" fill="#3287CB" transform="matrix(1.00, 0.00, -0.00, -1.00, 239.0, 476.6)">a</text><text xml:space="preserve" font-family="Monaco,Monaco" font-size="25.9" fill="#3287CB" transform="matrix(1.00, 0.00, -0.00, -1.00, 254.6, 476.6)">m</text><text xml:space="preserve" font-family="Monaco,Monaco" font-size="25.9" fill="#3287CB" transform="matrix(1.00, 0.00, -0.00, -1.00, 270.1, 476.6)">e</text><text xml:space="preserve" font-family="Monaco,Monaco" font-size="25.9" fill="#F7F7F7" transform="matrix(1.00, 0.00, -0.00, -1.00, 285.7, 476.6)">,</text><text xml:space="preserve" font-family="Monaco,Monaco" font-size="25.9" fill="#F7F7F7" transform="matrix(1.00, 0.00, -0.00, -1.00, 301.2, 476.6)"> </text><text xml:space="preserve" font-family="Monaco,Monaco" font-size="25.9" fill="#3287CB" transform="matrix(1.00, 0.00, -0.00, -1.00, 316.8, 476.6)">:</text><text xml:space="preserve" font-family="Monaco,Monaco" font-size="25.9" fill="#3287CB" transform="matrix(1.00, 0.00, -0.00, -1.00, 332.3, 476.6)">s</text><text xml:space="preserve" font-family="Monaco,Monaco" font-size="25.9" fill="#3287CB" transform="matrix(1.00, 0.00, -0.00, -1.00, 347.9, 476.6)">u</text><text xml:space="preserve" font-family="Monaco,Monaco" font-size="25.9" fill="#3287CB" transform="matrix(1.00, 0.00, -0.00, -1.00, 363.4, 476.6)">r</text><text xml:space="preserve" font-family="Monaco,Monaco" font-size="25.9" fill="#3287CB" transform="matrix(1.00, 0.00, -0.00, -1.00, 379.0, 476.6)">n</text><text xml:space="preserve" font-family="Monaco,Monaco" font-size="25.9" fill="#3287CB" transform="matrix(1.00, 0.00, -0.00, -1.00, 394.5, 476.6)">a</text><text xml:space="preserve" font-family="Monaco,Monaco" font-size="25.9" fill="#3287CB" transform="matrix(1.00, 0.00, -0.00, -1.00, 410.1, 476.6)">m</text><text xml:space="preserve" font-family="Monaco,Monaco" font-size="25.9" fill="#3287CB" transform="matrix(1.00, 0.00, -0.00, -1.00, 425.7, 476.6)">e</text><text xml:space="preserve" font-family="Monaco,Monaco" font-size="25.9" fill="#F7F7F7" transform="matrix(1.00, 0.00, -0.00, -1.00, 441.2, 476.6)">	</text><text xml:space="preserve" font-family="Monaco,Monaco" font-size="25.9" fill="#F7F7F7" transform="matrix(1.00, 0.00, -0.00, -1.00, 99.0, 442.6)"> </text><text xml:space="preserve" font-family="Monaco,Monaco" font-size="25.9" fill="#F7F7F7" transform="matrix(1.00, 0.00, -0.00, -1.00, 114.6, 442.6)"> </text><text xml:space="preserve" font-family="Monaco,Monaco" font-size="25.9" fill="#F7F7F7" transform="matrix(1.00, 0.00, -0.00, -1.00, 130.1, 442.6)">	</text><text xml:space="preserve" font-family="Monaco,Monaco" font-size="25.9" fill="#F7F7F7" transform="matrix(1.00, 0.00, -0.00, -1.00, 99.0, 408.6)"> </text><text xml:space="preserve" font-family="Monaco,Monaco" font-size="25.9" fill="#F7F7F7" transform="matrix(1.00, 0.00, -0.00, -1.00, 114.6, 408.6)"> </text><text xml:space="preserve" font-family="Monaco,Monaco" font-size="25.9" fill="#E18964" transform="matrix(1.00, 0.00, -0.00, -1.00, 130.1, 408.6)">d</text><text xml:space="preserve" font-family="Monaco,Monaco" font-size="25.9" fill="#E18964" transform="matrix(1.00, 0.00, -0.00, -1.00, 145.7, 408.6)">e</text><text xml:space="preserve" font-family="Monaco,Monaco" font-size="25.9" fill="#E18964" transform="matrix(1.00, 0.00, -0.00, -1.00, 161.2, 408.6)">f</text><text xml:space="preserve" font-family="Monaco,Monaco" font-size="25.9" fill="#F7F7F7" transform="matrix(1.00, 0.00, -0.00, -1.00, 176.8, 408.6)"> </text><text xml:space="preserve" font-family="Monaco,Monaco" font-size="25.9" fill="#89BDFF" transform="matrix(1.00, 0.00, -0.00, -1.00, 192.3, 408.6)">=</text><text xml:space="preserve" font-family="Monaco,Monaco" font-size="25.9" fill="#89BDFF" transform="matrix(1.00, 0.00, -0.00, -1.00, 207.9, 408.6)">=</text><text xml:space="preserve" font-family="Monaco,Monaco" font-size="25.9" fill="#F7F7F7" transform="matrix(1.00, 0.00, -0.00, -1.00, 223.4, 408.6)"> </text><text xml:space="preserve" font-family="Monaco,Monaco" font-size="25.9" fill="#3D86E3" transform="matrix(1.00, 0.00, -0.00, -1.00, 239.0, 408.6)">o</text><text xml:space="preserve" font-family="Monaco,Monaco" font-size="25.9" fill="#3D86E3" transform="matrix(1.00, 0.00, -0.00, -1.00, 254.5, 408.6)">t</text><text xml:space="preserve" font-family="Monaco,Monaco" font-size="25.9" fill="#3D86E3" transform="matrix(1.00, 0.00, -0.00, -1.00, 270.1, 408.6)">h</text><text xml:space="preserve" font-family="Monaco,Monaco" font-size="25.9" fill="#3D86E3" transform="matrix(1.00, 0.00, -0.00, -1.00, 285.7, 408.6)">e</text><text xml:space="preserve" font-family="Monaco,Monaco" font-size="25.9" fill="#3D86E3" transform="matrix(1.00, 0.00, -0.00, -1.00, 301.2, 408.6)">r</text><text xml:space="preserve" font-family="Monaco,Monaco" font-size="25.9" fill="#F7F7F7" transform="matrix(1.00, 0.00, -0.00, -1.00, 316.8, 408.6)">	</text><text xml:space="preserve" font-family="Monaco,Monaco" font-size="25.9" fill="#F7F7F7" transform="matrix(1.00, 0.00, -0.00, -1.00, 99.0, 374.6)"> </text><text xml:space="preserve" font-family="Monaco,Monaco" font-size="25.9" fill="#F7F7F7" transform="matrix(1.00, 0.00, -0.00, -1.00, 114.6, 374.6)"> </text><text xml:space="preserve" font-family="Monaco,Monaco" font-size="25.9" fill="#F7F7F7" transform="matrix(1.00, 0.00, -0.00, -1.00, 130.1, 374.6)"> </text><text xml:space="preserve" font-family="Monaco,Monaco" font-size="25.9" fill="#F7F7F7" transform="matrix(1.00, 0.00, -0.00, -1.00, 145.7, 374.6)"> </text><text xml:space="preserve" font-family="Monaco,Monaco" font-size="25.9" fill="#F7F7F7" transform="matrix(1.00, 0.00, -0.00, -1.00, 161.2, 374.6)">s</text><text xml:space="preserve" font-family="Monaco,Monaco" font-size="25.9" fill="#F7F7F7" transform="matrix(1.00, 0.00, -0.00, -1.00, 176.8, 374.6)">u</text><text xml:space="preserve" font-family="Monaco,Monaco" font-size="25.9" fill="#F7F7F7" transform="matrix(1.00, 0.00, -0.00, -1.00, 192.3, 374.6)">r</text><text xml:space="preserve" font-family="Monaco,Monaco" font-size="25.9" fill="#F7F7F7" transform="matrix(1.00, 0.00, -0.00, -1.00, 207.9, 374.6)">n</text><text xml:space="preserve" font-family="Monaco,Monaco" font-size="25.9" fill="#F7F7F7" transform="matrix(1.00, 0.00, -0.00, -1.00, 223.5, 374.6)">a</text><text xml:space="preserve" font-family="Monaco,Monaco" font-size="25.9" fill="#F7F7F7" transform="matrix(1.00, 0.00, -0.00, -1.00, 239.0, 374.6)">m</text><text xml:space="preserve" font-family="Monaco,Monaco" font-size="25.9" fill="#F7F7F7" transform="matrix(1.00, 0.00, -0.00, -1.00, 254.6, 374.6)">e</text><text xml:space="preserve" font-family="Monaco,Monaco" font-size="25.9" fill="#F7F7F7" transform="matrix(1.00, 0.00, -0.00, -1.00, 270.1, 374.6)"> </text><text xml:space="preserve" font-family="Monaco,Monaco" font-size="25.9" fill="#E18964" transform="matrix(1.00, 0.00, -0.00, -1.00, 285.7, 374.6)">=</text><text xml:space="preserve" font-family="Monaco,Monaco" font-size="25.9" fill="#E18964" transform="matrix(1.00, 0.00, -0.00, -1.00, 301.2, 374.6)">=</text><text xml:space="preserve" font-family="Monaco,Monaco" font-size="25.9" fill="#F7F7F7" transform="matrix(1.00, 0.00, -0.00, -1.00, 316.8, 374.6)"> </text><text xml:space="preserve" font-family="Monaco,Monaco" font-size="25.9" fill="#F7F7F7" transform="matrix(1.00, 0.00, -0.00, -1.00, 332.3, 374.6)">o</text><text xml:space="preserve" font-family="Monaco,Monaco" font-size="25.9" fill="#F7F7F7" transform="matrix(1.00, 0.00, -0.00, -1.00, 347.9, 374.6)">t</text><text xml:space="preserve" font-family="Monaco,Monaco" font-size="25.9" fill="#F7F7F7" transform="matrix(1.00, 0.00, -0.00, -1.00, 363.4, 374.6)">h</text><text xml:space="preserve" font-family="Monaco,Monaco" font-size="25.9" fill="#F7F7F7" transform="matrix(1.00, 0.00, -0.00, -1.00, 379.0, 374.6)">e</text><text xml:space="preserve" font-family="Monaco,Monaco" font-size="25.9" fill="#F7F7F7" transform="matrix(1.00, 0.00, -0.00, -1.00, 394.5, 374.6)">r</text><text xml:space="preserve" font-family="Monaco,Monaco" font-size="25.9" fill="#F7F7F7" transform="matrix(1.00, 0.00, -0.00, -1.00, 410.1, 374.6)">.</text><text xml:space="preserve" font-family="Monaco,Monaco" font-size="25.9" fill="#F7F7F7" transform="matrix(1.00, 0.00, -0.00, -1.00, 425.7, 374.6)">s</text><text xml:space="preserve" font-family="Monaco,Monaco" font-size="25.9" fill="#F7F7F7" transform="matrix(1.00, 0.00, -0.00, -1.00, 441.2, 374.6)">u</text><text xml:space="preserve" font-family="Monaco,Monaco" font-size="25.9" fill="#F7F7F7" transform="matrix(1.00, 0.00, -0.00, -1.00, 456.8, 374.6)">r</text><text xml:space="preserve" font-family="Monaco,Monaco" font-size="25.9" fill="#F7F7F7" transform="matrix(1.00, 0.00, -0.00, -1.00, 472.3, 374.6)">n</text><text xml:space="preserve" font-family="Monaco,Monaco" font-size="25.9" fill="#F7F7F7" transform="matrix(1.00, 0.00, -0.00, -1.00, 487.9, 374.6)">a</text><text xml:space="preserve" font-family="Monaco,Monaco" font-size="25.9" fill="#F7F7F7" transform="matrix(1.00, 0.00, -0.00, -1.00, 503.4, 374.6)">m</text><text xml:space="preserve" font-family="Monaco,Monaco" font-size="25.9" fill="#F7F7F7" transform="matrix(1.00, 0.00, -0.00, -1.00, 519.0, 374.6)">e</text><text xml:space="preserve" font-family="Monaco,Monaco" font-size="25.9" fill="#F7F7F7" transform="matrix(1.00, 0.00, -0.00, -1.00, 534.6, 374.6)">	</text><text xml:space="preserve" font-family="Monaco,Monaco" font-size="25.9" fill="#F7F7F7" transform="matrix(1.00, 0.00, -0.00, -1.00, 99.0, 340.6)"> </text><text xml:space="preserve" font-family="Monaco,Monaco" font-size="25.9" fill="#F7F7F7" transform="matrix(1.00, 0.00, -0.00, -1.00, 114.6, 340.6)"> </text><text xml:space="preserve" font-family="Monaco,Monaco" font-size="25.9" fill="#E18964" transform="matrix(1.00, 0.00, -0.00, -1.00, 130.1, 340.6)">e</text><text xml:space="preserve" font-family="Monaco,Monaco" font-size="25.9" fill="#E18964" transform="matrix(1.00, 0.00, -0.00, -1.00, 145.7, 340.6)">n</text><text xml:space="preserve" font-family="Monaco,Monaco" font-size="25.9" fill="#E18964" transform="matrix(1.00, 0.00, -0.00, -1.00, 161.2, 340.6)">d</text><text xml:space="preserve" font-family="Monaco,Monaco" font-size="25.9" fill="#F7F7F7" transform="matrix(1.00, 0.00, -0.00, -1.00, 176.8, 340.6)">	</text><text xml:space="preserve" font-family="Monaco,Monaco" font-size="25.9" fill="#F7F7F7" transform="matrix(1.00, 0.00, -0.00, -1.00, 99.0, 306.6)"> </text><text xml:space="preserve" font-family="Monaco,Monaco" font-size="25.9" fill="#F7F7F7" transform="matrix(1.00, 0.00, -0.00, -1.00, 114.6, 306.6)"> </text><text xml:space="preserve" font-family="Monaco,Monaco" font-size="25.9" fill="#F7F7F7" transform="matrix(1.00, 0.00, -0.00, -1.00, 130.1, 306.6)">	</text><text xml:space="preserve" font-family="Monaco,Monaco" font-size="25.9" fill="#F7F7F7" transform="matrix(1.00, 0.00, -0.00, -1.00, 99.0, 272.6)"> </text><text xml:space="preserve" font-family="Monaco,Monaco" font-size="25.9" fill="#F7F7F7" transform="matrix(1.00, 0.00, -0.00, -1.00, 114.6, 272.6)"> </text><text xml:space="preserve" font-family="Monaco,Monaco" font-size="25.9" fill="#E18964" transform="matrix(1.00, 0.00, -0.00, -1.00, 130.1, 272.6)">d</text><text xml:space="preserve" font-family="Monaco,Monaco" font-size="25.9" fill="#E18964" transform="matrix(1.00, 0.00, -0.00, -1.00, 145.7, 272.6)">e</text><text xml:space="preserve" font-family="Monaco,Monaco" font-size="25.9" fill="#E18964" transform="matrix(1.00, 0.00, -0.00, -1.00, 161.2, 272.6)">f</text><text xml:space="preserve" font-family="Monaco,Monaco" font-size="25.9" fill="#F7F7F7" transform="matrix(1.00, 0.00, -0.00, -1.00, 176.8, 272.6)"> </text><text xml:space="preserve" font-family="Monaco,Monaco" font-size="25.9" fill="#89BDFF" transform="matrix(1.00, 0.00, -0.00, -1.00, 192.3, 272.6)">&lt;</text><text xml:space="preserve" font-family="Monaco,Monaco" font-size="25.9" fill="#F7F7F7" transform="matrix(1.00, 0.00, -0.00, -1.00, 207.9, 272.6)"> </text><text xml:space="preserve" font-family="Monaco,Monaco" font-size="25.9" fill="#3D86E3" transform="matrix(1.00, 0.00, -0.00, -1.00, 223.4, 272.6)">o</text><text xml:space="preserve" font-family="Monaco,Monaco" font-size="25.9" fill="#3D86E3" transform="matrix(1.00, 0.00, -0.00, -1.00, 239.0, 272.6)">t</text><text xml:space="preserve" font-family="Monaco,Monaco" font-size="25.9" fill="#3D86E3" transform="matrix(1.00, 0.00, -0.00, -1.00, 254.6, 272.6)">h</text><text xml:space="preserve" font-family="Monaco,Monaco" font-size="25.9" fill="#3D86E3" transform="matrix(1.00, 0.00, -0.00, -1.00, 270.1, 272.6)">e</text><text xml:space="preserve" font-family="Monaco,Monaco" font-size="25.9" fill="#3D86E3" transform="matrix(1.00, 0.00, -0.00, -1.00, 285.7, 272.6)">r</text><text xml:space="preserve" font-family="Monaco,Monaco" font-size="25.9" fill="#F7F7F7" transform="matrix(1.00, 0.00, -0.00, -1.00, 301.2, 272.6)">	</text><text xml:space="preserve" font-family="Monaco,Monaco" font-size="25.9" fill="#F7F7F7" transform="matrix(1.00, 0.00, -0.00, -1.00, 99.0, 238.6)"> </text><text xml:space="preserve" font-family="Monaco,Monaco" font-size="25.9" fill="#F7F7F7" transform="matrix(1.00, 0.00, -0.00, -1.00, 114.6, 238.6)"> </text><text xml:space="preserve" font-family="Monaco,Monaco" font-size="25.9" fill="#F7F7F7" transform="matrix(1.00, 0.00, -0.00, -1.00, 130.1, 238.6)"> </text><text xml:space="preserve" font-family="Monaco,Monaco" font-size="25.9" fill="#F7F7F7" transform="matrix(1.00, 0.00, -0.00, -1.00, 145.7, 238.6)"> </text><text xml:space="preserve" font-family="Monaco,Monaco" font-size="25.9" fill="#F7F7F7" transform="matrix(1.00, 0.00, -0.00, -1.00, 161.2, 238.6)">s</text><text xml:space="preserve" font-family="Monaco,Monaco" font-size="25.9" fill="#F7F7F7" transform="matrix(1.00, 0.00, -0.00, -1.00, 176.8, 238.6)">u</text><text xml:space="preserve" font-family="Monaco,Monaco" font-size="25.9" fill="#F7F7F7" transform="matrix(1.00, 0.00, -0.00, -1.00, 192.3, 238.6)">r</text><text xml:space="preserve" font-family="Monaco,Monaco" font-size="25.9" fill="#F7F7F7" transform="matrix(1.00, 0.00, -0.00, -1.00, 207.9, 238.6)">n</text><text xml:space="preserve" font-family="Monaco,Monaco" font-size="25.9" fill="#F7F7F7" transform="matrix(1.00, 0.00, -0.00, -1.00, 223.5, 238.6)">a</text><text xml:space="preserve" font-family="Monaco,Monaco" font-size="25.9" fill="#F7F7F7" transform="matrix(1.00, 0.00, -0.00, -1.00, 239.0, 238.6)">m</text><text xml:space="preserve" font-family="Monaco,Monaco" font-size="25.9" fill="#F7F7F7" transform="matrix(1.00, 0.00, -0.00, -1.00, 254.6, 238.6)">e</text><text xml:space="preserve" font-family="Monaco,Monaco" font-size="25.9" fill="#F7F7F7" transform="matrix(1.00, 0.00, -0.00, -1.00, 270.1, 238.6)"> </text><text xml:space="preserve" font-family="Monaco,Monaco" font-size="25.9" fill="#E18964" transform="matrix(1.00, 0.00, -0.00, -1.00, 285.7, 238.6)">&lt;</text><text xml:space="preserve" font-family="Monaco,Monaco" font-size="25.9" fill="#F7F7F7" transform="matrix(1.00, 0.00, -0.00, -1.00, 301.2, 238.6)"> </text><text xml:space="preserve" font-family="Monaco,Monaco" font-size="25.9" fill="#F7F7F7" transform="matrix(1.00, 0.00, -0.00, -1.00, 316.8, 238.6)">o</text><text xml:space="preserve" font-family="Monaco,Monaco" font-size="25.9" fill="#F7F7F7" transform="matrix(1.00, 0.00, -0.00, -1.00, 332.3, 238.6)">t</text><text xml:space="preserve" font-family="Monaco,Monaco" font-size="25.9" fill="#F7F7F7" transform="matrix(1.00, 0.00, -0.00, -1.00, 347.9, 238.6)">h</text><text xml:space="preserve" font-family="Monaco,Monaco" font-size="25.9" fill="#F7F7F7" transform="matrix(1.00, 0.00, -0.00, -1.00, 363.4, 238.6)">e</text><text xml:space="preserve" font-family="Monaco,Monaco" font-size="25.9" fill="#F7F7F7" transform="matrix(1.00, 0.00, -0.00, -1.00, 379.0, 238.6)">r</text><text xml:space="preserve" font-family="Monaco,Monaco" font-size="25.9" fill="#F7F7F7" transform="matrix(1.00, 0.00, -0.00, -1.00, 394.6, 238.6)">.</text><text xml:space="preserve" font-family="Monaco,Monaco" font-size="25.9" fill="#F7F7F7" transform="matrix(1.00, 0.00, -0.00, -1.00, 410.1, 238.6)">s</text><text xml:space="preserve" font-family="Monaco,Monaco" font-size="25.9" fill="#F7F7F7" transform="matrix(1.00, 0.00, -0.00, -1.00, 425.7, 238.6)">u</text><text xml:space="preserve" font-family="Monaco,Monaco" font-size="25.9" fill="#F7F7F7" transform="matrix(1.00, 0.00, -0.00, -1.00, 441.2, 238.6)">r</text><text xml:space="preserve" font-family="Monaco,Monaco" font-size="25.9" fill="#F7F7F7" transform="matrix(1.00, 0.00, -0.00, -1.00, 456.8, 238.6)">n</text><text xml:space="preserve" font-family="Monaco,Monaco" font-size="25.9" fill="#F7F7F7" transform="matrix(1.00, 0.00, -0.00, -1.00, 472.3, 238.6)">a</text><text xml:space="preserve" font-family="Monaco,Monaco" font-size="25.9" fill="#F7F7F7" transform="matrix(1.00, 0.00, -0.00, -1.00, 487.9, 238.6)">m</text><text xml:space="preserve" font-family="Monaco,Monaco" font-size="25.9" fill="#F7F7F7" transform="matrix(1.00, 0.00, -0.00, -1.00, 503.5, 238.6)">e</text><text xml:space="preserve" font-family="Monaco,Monaco" font-size="25.9" fill="#F7F7F7" transform="matrix(1.00, 0.00, -0.00, -1.00, 519.0, 238.6)">	</text><text xml:space="preserve" font-family="Monaco,Monaco" font-size="25.9" fill="#F7F7F7" transform="matrix(1.00, 0.00, -0.00, -1.00, 99.0, 204.6)"> </text><text xml:space="preserve" font-family="Monaco,Monaco" font-size="25.9" fill="#F7F7F7" transform="matrix(1.00, 0.00, -0.00, -1.00, 114.6, 204.6)"> </text><text xml:space="preserve" font-family="Monaco,Monaco" font-size="25.9" fill="#E18964" transform="matrix(1.00, 0.00, -0.00, -1.00, 130.1, 204.6)">e</text><text xml:space="preserve" font-family="Monaco,Monaco" font-size="25.9" fill="#E18964" transform="matrix(1.00, 0.00, -0.00, -1.00, 145.7, 204.6)">n</text><text xml:space="preserve" font-family="Monaco,Monaco" font-size="25.9" fill="#E18964" transform="matrix(1.00, 0.00, -0.00, -1.00, 161.2, 204.6)">d</text><text xml:space="preserve" font-family="Monaco,Monaco" font-size="25.9" fill="#F7F7F7" transform="matrix(1.00, 0.00, -0.00, -1.00, 176.8, 204.6)">	</text><text xml:space="preserve" font-family="Monaco,Monaco" font-size="25.9" fill="#F7F7F7" transform="matrix(1.00, 0.00, -0.00, -1.00, 99.0, 170.6)"> </text><text xml:space="preserve" font-family="Monaco,Monaco" font-size="25.9" fill="#F7F7F7" transform="matrix(1.00, 0.00, -0.00, -1.00, 114.6, 170.6)"> </text><text xml:space="preserve" font-family="Monaco,Monaco" font-size="25.9" fill="#F7F7F7" transform="matrix(1.00, 0.00, -0.00, -1.00, 130.1, 170.6)">	</text><text xml:space="preserve" font-family="Monaco,Monaco" font-size="25.9" fill="#F7F7F7" transform="matrix(1.00, 0.00, -0.00, -1.00, 99.0, 136.6)"> </text><text xml:space="preserve" font-family="Monaco,Monaco" font-size="25.9" fill="#F7F7F7" transform="matrix(1.00, 0.00, -0.00, -1.00, 114.6, 136.6)"> </text><text xml:space="preserve" font-family="Monaco,Monaco" font-size="25.9" fill="#ADADAD" transform="matrix(1.00, 0.00, -0.00, -1.00, 130.1, 136.6)">#</text><text xml:space="preserve" font-family="Monaco,Monaco" font-size="25.9" fill="#ADADAD" transform="matrix(1.00, 0.00, -0.00, -1.00, 145.7, 136.6)"> </text><text xml:space="preserve" font-family="Monaco,Monaco" font-size="25.9" fill="#ADADAD" transform="matrix(1.00, 0.00, -0.00, -1.00, 161.2, 136.6)">m</text><text xml:space="preserve" font-family="Monaco,Monaco" font-size="25.9" fill="#ADADAD" transform="matrix(1.00, 0.00, -0.00, -1.00, 176.8, 136.6)">u</text><text xml:space="preserve" font-family="Monaco,Monaco" font-size="25.9" fill="#ADADAD" transform="matrix(1.00, 0.00, -0.00, -1.00, 192.3, 136.6)">s</text><text xml:space="preserve" font-family="Monaco,Monaco" font-size="25.9" fill="#ADADAD" transform="matrix(1.00, 0.00, -0.00, -1.00, 207.9, 136.6)">t</text><text xml:space="preserve" font-family="Monaco,Monaco" font-size="25.9" fill="#ADADAD" transform="matrix(1.00, 0.00, -0.00, -1.00, 223.5, 136.6)"> </text><text xml:space="preserve" font-family="Monaco,Monaco" font-size="25.9" fill="#ADADAD" transform="matrix(1.00, 0.00, -0.00, -1.00, 239.0, 136.6)">d</text><text xml:space="preserve" font-family="Monaco,Monaco" font-size="25.9" fill="#ADADAD" transform="matrix(1.00, 0.00, -0.00, -1.00, 254.6, 136.6)">e</text><text xml:space="preserve" font-family="Monaco,Monaco" font-size="25.9" fill="#ADADAD" transform="matrix(1.00, 0.00, -0.00, -1.00, 270.1, 136.6)">f</text><text xml:space="preserve" font-family="Monaco,Monaco" font-size="25.9" fill="#ADADAD" transform="matrix(1.00, 0.00, -0.00, -1.00, 285.7, 136.6)">i</text><text xml:space="preserve" font-family="Monaco,Monaco" font-size="25.9" fill="#ADADAD" transform="matrix(1.00, 0.00, -0.00, -1.00, 301.2, 136.6)">n</text><text xml:space="preserve" font-family="Monaco,Monaco" font-size="25.9" fill="#ADADAD" transform="matrix(1.00, 0.00, -0.00, -1.00, 316.8, 136.6)">e</text><text xml:space="preserve" font-family="Monaco,Monaco" font-size="25.9" fill="#ADADAD" transform="matrix(1.00, 0.00, -0.00, -1.00, 332.4, 136.6)"> </text><text xml:space="preserve" font-family="Monaco,Monaco" font-size="25.9" fill="#ADADAD" transform="matrix(1.00, 0.00, -0.00, -1.00, 347.9, 136.6)">a</text><text xml:space="preserve" font-family="Monaco,Monaco" font-size="25.9" fill="#ADADAD" transform="matrix(1.00, 0.00, -0.00, -1.00, 363.5, 136.6)">l</text><text xml:space="preserve" font-family="Monaco,Monaco" font-size="25.9" fill="#ADADAD" transform="matrix(1.00, 0.00, -0.00, -1.00, 379.0, 136.6)">s</text><text xml:space="preserve" font-family="Monaco,Monaco" font-size="25.9" fill="#ADADAD" transform="matrix(1.00, 0.00, -0.00, -1.00, 394.6, 136.6)">o</text><text xml:space="preserve" font-family="Monaco,Monaco" font-size="25.9" fill="#ADADAD" transform="matrix(1.00, 0.00, -0.00, -1.00, 410.1, 136.6)">:</text><text xml:space="preserve" font-family="Monaco,Monaco" font-size="25.9" fill="#ADADAD" transform="matrix(1.00, 0.00, -0.00, -1.00, 425.7, 136.6)"> </text><text xml:space="preserve" font-family="Monaco,Monaco" font-size="25.9" fill="#ADADAD" transform="matrix(1.00, 0.00, -0.00, -1.00, 441.3, 136.6)">&lt;</text><text xml:space="preserve" font-family="Monaco,Monaco" font-size="25.9" fill="#ADADAD" transform="matrix(1.00, 0.00, -0.00, -1.00, 456.8, 136.6)">=</text><text xml:space="preserve" font-family="Monaco,Monaco" font-size="25.9" fill="#ADADAD" transform="matrix(1.00, 0.00, -0.00, -1.00, 472.4, 136.6)"> </text><text xml:space="preserve" font-family="Monaco,Monaco" font-size="25.9" fill="#ADADAD" transform="matrix(1.00, 0.00, -0.00, -1.00, 487.9, 136.6)">=</text><text xml:space="preserve" font-family="Monaco,Monaco" font-size="25.9" fill="#ADADAD" transform="matrix(1.00, 0.00, -0.00, -1.00, 503.5, 136.6)">=</text><text xml:space="preserve" font-family="Monaco,Monaco" font-size="25.9" fill="#ADADAD" transform="matrix(1.00, 0.00, -0.00, -1.00, 519.0, 136.6)"> </text><text xml:space="preserve" font-family="Monaco,Monaco" font-size="25.9" fill="#ADADAD" transform="matrix(1.00, 0.00, -0.00, -1.00, 534.6, 136.6)">&gt;</text><text xml:space="preserve" font-family="Monaco,Monaco" font-size="25.9" fill="#ADADAD" transform="matrix(1.00, 0.00, -0.00, -1.00, 550.2, 136.6)">=</text><text xml:space="preserve" font-family="Monaco,Monaco" font-size="25.9" fill="#ADADAD" transform="matrix(1.00, 0.00, -0.00, -1.00, 565.7, 136.6)"> </text><text xml:space="preserve" font-family="Monaco,Monaco" font-size="25.9" fill="#ADADAD" transform="matrix(1.00, 0.00, -0.00, -1.00, 581.3, 136.6)">&gt;</text><text xml:space="preserve" font-family="Monaco,Monaco" font-size="25.9" fill="#ADADAD" transform="matrix(1.00, 0.00, -0.00, -1.00, 596.8, 136.6)">	</text><text xml:space="preserve" font-family="Monaco,Monaco" font-size="25.9" fill="#E18964" transform="matrix(1.00, 0.00, -0.00, -1.00, 99.0, 102.6)">e</text><text xml:space="preserve" font-family="Monaco,Monaco" font-size="25.9" fill="#E18964" transform="matrix(1.00, 0.00, -0.00, -1.00, 114.6, 102.6)">n</text><text xml:space="preserve" font-family="Monaco,Monaco" font-size="25.9" fill="#E18964" transform="matrix(1.00, 0.00, -0.00, -1.00, 130.1, 102.6)">d</text></g></g></g></svg>