<?xml version="1.0" encoding="UTF-8" standalone="no"?><svg xmlns="http://www.w3.org/2000/svg" xmlns:xlink="http://www.w3.org/1999/xlink" clip-rule="evenodd" stroke-miterlimit="10" viewBox="0 0 1024 768"><desc>SVG generated by Keynote</desc><defs></defs><g transform="matrix(1.00, 0.00, -0.00, -1.00, 0.0, 768.0)"><path d="M 0.0 768.0 L 1024.0 768.0 L 1024.0 0.0 L 0.0 0.0 Z M 0.0 768.0 " fill="#669C3B"></path><text xml:space="preserve" font-family="HelveticaNeue-Bold,Helvetica Neue" font-weight="bold" font-size="80.0" fill="#FEFFFF" transform="matrix(1.00, 0.00, -0.00, -1.00, 180.8, 632.7)">S</text><text xml:space="preserve" font-family="HelveticaNeue-Bold,Helvetica Neue" font-weight="bold" font-size="80.0" fill="#FEFFFF" transform="matrix(1.00, 0.00, -0.00, -1.00, 229.5, 632.7)">i</text><text xml:space="preserve" font-family="HelveticaNeue-Bold,Helvetica Neue" font-weight="bold" font-size="80.0" fill="#FEFFFF" transform="matrix(1.00, 0.00, -0.00, -1.00, 246.9, 632.7)">n</text><text xml:space="preserve" font-family="HelveticaNeue-Bold,Helvetica Neue" font-weight="bold" font-size="80.0" fill="#FEFFFF" transform="matrix(1.00, 0.00, -0.00, -1.00, 291.2, 632.7)">g</text><text xml:space="preserve" font-family="HelveticaNeue-Bold,Helvetica Neue" font-weight="bold" font-size="80.0" fill="#FEFFFF" transform="matrix(1.00, 0.00, -0.00, -1.00, 336.8, 632.7)">l</text><text xml:space="preserve" font-family="HelveticaNeue-Bold,Helvetica Neue" font-weight="bold" font-size="80.0" fill="#FEFFFF" transform="matrix(1.00, 0.00, -0.00, -1.00, 354.3, 632.7)">e</text><text xml:space="preserve" font-family="HelveticaNeue-Bold,Helvetica Neue" font-weight="bold" font-size="80.0" fill="#FEFFFF" transform="matrix(1.00, 0.00, -0.00, -1.00, 397.0, 632.7)">t</text><text xml:space="preserve" font-family="HelveticaNeue-Bold,Helvetica Neue" font-weight="bold" font-size="80.0" fill="#FEFFFF" transform="matrix(1.00, 0.00, -0.00, -1.00, 422.0, 632.7)">o</text><text xml:space="preserve" font-family="HelveticaNeue-Bold,Helvetica Neue" font-weight="bold" font-size="80.0" fill="#FEFFFF" transform="matrix(1.00, 0.00, -0.00, -1.00, 467.6, 632.7)">n</text><text xml:space="preserve" font-family="HelveticaNeue-Bold,Helvetica Neue" font-weight="bold" font-size="80.0" fill="#FEFFFF" transform="matrix(1.00, 0.00, -0.00, -1.00, 511.9, 632.7)"> </text><text xml:space="preserve" font-family="HelveticaNeue-Bold,Helvetica Neue" font-weight="bold" font-size="80.0" fill="#FEFFFF" transform="matrix(1.00, 0.00, -0.00, -1.00, 530.9, 632.7)">m</text><text xml:space="preserve" font-family="HelveticaNeue-Bold,Helvetica Neue" font-weight="bold" font-size="80.0" fill="#FEFFFF" transform="matrix(1.00, 0.00, -0.00, -1.00, 600.2, 632.7)">e</text><text xml:space="preserve" font-family="HelveticaNeue-Bold,Helvetica Neue" font-weight="bold" font-size="80.0" fill="#FEFFFF" transform="matrix(1.00, 0.00, -0.00, -1.00, 642.9, 632.7)">t</text><text xml:space="preserve" font-family="HelveticaNeue-Bold,Helvetica Neue" font-weight="bold" font-size="80.0" fill="#FEFFFF" transform="matrix(1.00, 0.00, -0.00, -1.00, 667.9, 632.7)">h</text><text xml:space="preserve" font-family="HelveticaNeue-Bold,Helvetica Neue" font-weight="bold" font-size="80.0" fill="#FEFFFF" transform="matrix(1.00, 0.00, -0.00, -1.00, 712.1, 632.7)">o</text><text xml:space="preserve" font-family="HelveticaNeue-Bold,Helvetica Neue" font-weight="bold" font-size="80.0" fill="#FEFFFF" transform="matrix(1.00, 0.00, -0.00, -1.00, 757.8, 632.7)">d</text><text xml:space="preserve" font-family="HelveticaNeue-Bold,Helvetica Neue" font-weight="bold" font-size="80.0" fill="#FEFFFF" transform="matrix(1.00, 0.00, -0.00, -1.00, 803.5, 632.7)">s</text><path d="M 75.0 564.0 L 949.0 564.0 L 949.0 69.0 L 75.0 69.0 Z M 75.0 564.0 " fill="#161616"></path><image xlink:href="../../8F0C1197-3438-4549-8091-6032C74756B9/assets/932506F90606F6BEA790D89AA40BDE8B.png" width="872.00" height="493.00" transform="matrix(1.00, 0.00, -0.00, 1.00, 76.0, 70.0)"></image><g><clipPath id="clip0x608000ea6360"><path d="M 76.0 70.0 L 948.0 70.0 L 948.0 563.0 L 76.0 563.0 Z M 76.0 70.0 "></path></clipPath><g clip-path="url(#clip0x608000ea6360)"><path d="M 99.0 531.0 L 244.8 531.0 L 244.8 495.0 L 99.0 495.0 Z M 99.0 531.0 " fill="#000000"></path><path d="M 99.0 495.0 L 147.6 495.0 L 147.6 459.0 L 99.0 459.0 Z M 99.0 495.0 " fill="#000000"></path><path d="M 99.0 423.0 L 342.0 423.0 L 342.0 387.0 L 99.0 387.0 Z M 99.0 423.0 " fill="#000000"></path><path d="M 99.0 387.0 L 325.8 387.0 L 325.8 351.0 L 99.0 351.0 Z M 99.0 387.0 " fill="#000000"></path><path d="M 99.0 315.0 L 342.0 315.0 L 342.0 279.0 L 99.0 279.0 Z M 99.0 315.0 " fill="#000000"></path><path d="M 99.0 279.0 L 390.6 279.0 L 390.6 243.0 L 99.0 243.0 Z M 99.0 279.0 " fill="#000000"></path><path d="M 99.0 243.0 L 147.6 243.0 L 147.6 207.0 L 99.0 207.0 Z M 99.0 243.0 " fill="#000000"></path><path d="M 99.0 171.0 L 585.1 171.0 L 585.1 135.0 L 99.0 135.0 Z M 99.0 171.0 " fill="#000000"></path><path d="M 99.0 135.0 L 601.3 135.0 L 601.3 99.0 L 99.0 99.0 Z M 99.0 135.0 " fill="#000000"></path><text xml:space="preserve" font-family="Monaco,Monaco" font-size="27.0" fill="#E18964" transform="matrix(1.00, 0.00, -0.00, -1.00, 99.0, 504.0)">c</text><text xml:space="preserve" font-family="Monaco,Monaco" font-size="27.0" fill="#E18964" transform="matrix(1.00, 0.00, -0.00, -1.00, 115.2, 504.0)">l</text><text xml:space="preserve" font-family="Monaco,Monaco" font-size="27.0" fill="#E18964" transform="matrix(1.00, 0.00, -0.00, -1.00, 131.4, 504.0)">a</text><text xml:space="preserve" font-family="Monaco,Monaco" font-size="27.0" fill="#E18964" transform="matrix(1.00, 0.00, -0.00, -1.00, 147.6, 504.0)">s</text><text xml:space="preserve" font-family="Monaco,Monaco" font-size="27.0" fill="#E18964" transform="matrix(1.00, 0.00, -0.00, -1.00, 163.8, 504.0)">s</text><text xml:space="preserve" font-family="Monaco,Monaco" font-size="27.0" fill="#F7F7F7" transform="matrix(1.00, 0.00, -0.00, -1.00, 180.0, 504.0)"> </text><text xml:space="preserve" font-family="Monaco,Monaco" font-size="27.0" fill="#89BDFF" transform="matrix(1.00, 0.00, -0.00, -1.00, 196.2, 504.0)">D</text><text xml:space="preserve" font-family="Monaco,Monaco" font-size="27.0" fill="#89BDFF" transform="matrix(1.00, 0.00, -0.00, -1.00, 212.4, 504.0)">o</text><text xml:space="preserve" font-family="Monaco,Monaco" font-size="27.0" fill="#89BDFF" transform="matrix(1.00, 0.00, -0.00, -1.00, 228.6, 504.0)">g</text><text xml:space="preserve" font-family="Monaco,Monaco" font-size="27.0" fill="#F7F7F7" transform="matrix(1.00, 0.00, -0.00, -1.00, 244.8, 504.0)">	</text><path d="M 120.2 60.0 L 168.8 60.0 " fill="none" stroke="#89BDFF" stroke-width="2.04" transform="matrix(1.00, 0.00, 0.00, -1.00, 76.0, 563.0)"></path><text xml:space="preserve" font-family="Monaco,Monaco" font-size="27.0" fill="#E18964" transform="matrix(1.00, 0.00, -0.00, -1.00, 99.0, 468.0)">e</text><text xml:space="preserve" font-family="Monaco,Monaco" font-size="27.0" fill="#E18964" transform="matrix(1.00, 0.00, -0.00, -1.00, 115.2, 468.0)">n</text><text xml:space="preserve" font-family="Monaco,Monaco" font-size="27.0" fill="#E18964" transform="matrix(1.00, 0.00, -0.00, -1.00, 131.4, 468.0)">d</text><text xml:space="preserve" font-family="Monaco,Monaco" font-size="27.0" fill="#F7F7F7" transform="matrix(1.00, 0.00, -0.00, -1.00, 147.6, 468.0)">	</text><text xml:space="preserve" font-family="Monaco,Monaco" font-size="27.0" fill="#F7F7F7" transform="matrix(1.00, 0.00, -0.00, -1.00, 99.0, 396.0)">r</text><text xml:space="preserve" font-family="Monaco,Monaco" font-size="27.0" fill="#F7F7F7" transform="matrix(1.00, 0.00, -0.00, -1.00, 115.2, 396.0)">o</text><text xml:space="preserve" font-family="Monaco,Monaco" font-size="27.0" fill="#F7F7F7" transform="matrix(1.00, 0.00, -0.00, -1.00, 131.4, 396.0)">v</text><text xml:space="preserve" font-family="Monaco,Monaco" font-size="27.0" fill="#F7F7F7" transform="matrix(1.00, 0.00, -0.00, -1.00, 147.6, 396.0)">e</text><text xml:space="preserve" font-family="Monaco,Monaco" font-size="27.0" fill="#F7F7F7" transform="matrix(1.00, 0.00, -0.00, -1.00, 163.8, 396.0)">r</text><text xml:space="preserve" font-family="Monaco,Monaco" font-size="27.0" fill="#F7F7F7" transform="matrix(1.00, 0.00, -0.00, -1.00, 180.0, 396.0)"> </text><text xml:space="preserve" font-family="Monaco,Monaco" font-size="27.0" fill="#E18964" transform="matrix(1.00, 0.00, -0.00, -1.00, 196.2, 396.0)">=</text><text xml:space="preserve" font-family="Monaco,Monaco" font-size="27.0" fill="#F7F7F7" transform="matrix(1.00, 0.00, -0.00, -1.00, 212.4, 396.0)"> </text><text xml:space="preserve" font-family="Monaco,Monaco" font-size="27.0" fill="#9B849C" transform="matrix(1.00, 0.00, -0.00, -1.00, 228.6, 396.0)">D</text><text xml:space="preserve" font-family="Monaco,Monaco" font-size="27.0" fill="#9B849C" transform="matrix(1.00, 0.00, -0.00, -1.00, 244.8, 396.0)">o</text><text xml:space="preserve" font-family="Monaco,Monaco" font-size="27.0" fill="#9B849C" transform="matrix(1.00, 0.00, -0.00, -1.00, 261.0, 396.0)">g</text><text xml:space="preserve" font-family="Monaco,Monaco" font-size="27.0" fill="#F7F7F7" transform="matrix(1.00, 0.00, -0.00, -1.00, 277.2, 396.0)">.</text><text xml:space="preserve" font-family="Monaco,Monaco" font-size="27.0" fill="#E18964" transform="matrix(1.00, 0.00, -0.00, -1.00, 293.4, 396.0)">n</text><text xml:space="preserve" font-family="Monaco,Monaco" font-size="27.0" fill="#E18964" transform="matrix(1.00, 0.00, -0.00, -1.00, 309.6, 396.0)">e</text><text xml:space="preserve" font-family="Monaco,Monaco" font-size="27.0" fill="#E18964" transform="matrix(1.00, 0.00, -0.00, -1.00, 325.8, 396.0)">w</text><text xml:space="preserve" font-family="Monaco,Monaco" font-size="27.0" fill="#F7F7F7" transform="matrix(1.00, 0.00, -0.00, -1.00, 342.0, 396.0)">	</text><text xml:space="preserve" font-family="Monaco,Monaco" font-size="27.0" fill="#F7F7F7" transform="matrix(1.00, 0.00, -0.00, -1.00, 99.0, 360.0)">f</text><text xml:space="preserve" font-family="Monaco,Monaco" font-size="27.0" fill="#F7F7F7" transform="matrix(1.00, 0.00, -0.00, -1.00, 115.2, 360.0)">i</text><text xml:space="preserve" font-family="Monaco,Monaco" font-size="27.0" fill="#F7F7F7" transform="matrix(1.00, 0.00, -0.00, -1.00, 131.4, 360.0)">d</text><text xml:space="preserve" font-family="Monaco,Monaco" font-size="27.0" fill="#F7F7F7" transform="matrix(1.00, 0.00, -0.00, -1.00, 147.6, 360.0)">o</text><text xml:space="preserve" font-family="Monaco,Monaco" font-size="27.0" fill="#F7F7F7" transform="matrix(1.00, 0.00, -0.00, -1.00, 163.8, 360.0)"> </text><text xml:space="preserve" font-family="Monaco,Monaco" font-size="27.0" fill="#E18964" transform="matrix(1.00, 0.00, -0.00, -1.00, 180.0, 360.0)">=</text><text xml:space="preserve" font-family="Monaco,Monaco" font-size="27.0" fill="#F7F7F7" transform="matrix(1.00, 0.00, -0.00, -1.00, 196.2, 360.0)"> </text><text xml:space="preserve" font-family="Monaco,Monaco" font-size="27.0" fill="#9B849C" transform="matrix(1.00, 0.00, -0.00, -1.00, 212.4, 360.0)">D</text><text xml:space="preserve" font-family="Monaco,Monaco" font-size="27.0" fill="#9B849C" transform="matrix(1.00, 0.00, -0.00, -1.00, 228.6, 360.0)">o</text><text xml:space="preserve" font-family="Monaco,Monaco" font-size="27.0" fill="#9B849C" transform="matrix(1.00, 0.00, -0.00, -1.00, 244.8, 360.0)">g</text><text xml:space="preserve" font-family="Monaco,Monaco" font-size="27.0" fill="#F7F7F7" transform="matrix(1.00, 0.00, -0.00, -1.00, 261.0, 360.0)">.</text><text xml:space="preserve" font-family="Monaco,Monaco" font-size="27.0" fill="#E18964" transform="matrix(1.00, 0.00, -0.00, -1.00, 277.2, 360.0)">n</text><text xml:space="preserve" font-family="Monaco,Monaco" font-size="27.0" fill="#E18964" transform="matrix(1.00, 0.00, -0.00, -1.00, 293.4, 360.0)">e</text><text xml:space="preserve" font-family="Monaco,Monaco" font-size="27.0" fill="#E18964" transform="matrix(1.00, 0.00, -0.00, -1.00, 309.6, 360.0)">w</text><text xml:space="preserve" font-family="Monaco,Monaco" font-size="27.0" fill="#F7F7F7" transform="matrix(1.00, 0.00, -0.00, -1.00, 325.8, 360.0)">	</text><text xml:space="preserve" font-family="Monaco,Monaco" font-size="27.0" fill="#E18964" transform="matrix(1.00, 0.00, -0.00, -1.00, 99.0, 288.0)">d</text><text xml:space="preserve" font-family="Monaco,Monaco" font-size="27.0" fill="#E18964" transform="matrix(1.00, 0.00, -0.00, -1.00, 115.2, 288.0)">e</text><text xml:space="preserve" font-family="Monaco,Monaco" font-size="27.0" fill="#E18964" transform="matrix(1.00, 0.00, -0.00, -1.00, 131.4, 288.0)">f</text><text xml:space="preserve" font-family="Monaco,Monaco" font-size="27.0" fill="#F7F7F7" transform="matrix(1.00, 0.00, -0.00, -1.00, 147.6, 288.0)"> </text><text xml:space="preserve" font-family="Monaco,Monaco" font-size="27.0" fill="#89BDFF" transform="matrix(1.00, 0.00, -0.00, -1.00, 163.8, 288.0)">r</text><text xml:space="preserve" font-family="Monaco,Monaco" font-size="27.0" fill="#89BDFF" transform="matrix(1.00, 0.00, -0.00, -1.00, 180.0, 288.0)">o</text><text xml:space="preserve" font-family="Monaco,Monaco" font-size="27.0" fill="#89BDFF" transform="matrix(1.00, 0.00, -0.00, -1.00, 196.2, 288.0)">v</text><text xml:space="preserve" font-family="Monaco,Monaco" font-size="27.0" fill="#89BDFF" transform="matrix(1.00, 0.00, -0.00, -1.00, 212.4, 288.0)">e</text><text xml:space="preserve" font-family="Monaco,Monaco" font-size="27.0" fill="#89BDFF" transform="matrix(1.00, 0.00, -0.00, -1.00, 228.6, 288.0)">r</text><text xml:space="preserve" font-family="Monaco,Monaco" font-size="27.0" fill="#89BDFF" transform="matrix(1.00, 0.00, -0.00, -1.00, 244.8, 288.0)">.</text><text xml:space="preserve" font-family="Monaco,Monaco" font-size="27.0" fill="#89BDFF" transform="matrix(1.00, 0.00, -0.00, -1.00, 261.0, 288.0)">s</text><text xml:space="preserve" font-family="Monaco,Monaco" font-size="27.0" fill="#89BDFF" transform="matrix(1.00, 0.00, -0.00, -1.00, 277.2, 288.0)">p</text><text xml:space="preserve" font-family="Monaco,Monaco" font-size="27.0" fill="#89BDFF" transform="matrix(1.00, 0.00, -0.00, -1.00, 293.5, 288.0)">e</text><text xml:space="preserve" font-family="Monaco,Monaco" font-size="27.0" fill="#89BDFF" transform="matrix(1.00, 0.00, -0.00, -1.00, 309.7, 288.0)">a</text><text xml:space="preserve" font-family="Monaco,Monaco" font-size="27.0" fill="#89BDFF" transform="matrix(1.00, 0.00, -0.00, -1.00, 325.9, 288.0)">k</text><text xml:space="preserve" font-family="Monaco,Monaco" font-size="27.0" fill="#F7F7F7" transform="matrix(1.00, 0.00, -0.00, -1.00, 342.0, 288.0)">	</text><text xml:space="preserve" font-family="Monaco,Monaco" font-size="27.0" fill="#F7F7F7" transform="matrix(1.00, 0.00, -0.00, -1.00, 99.0, 252.0)"> </text><text xml:space="preserve" font-family="Monaco,Monaco" font-size="27.0" fill="#F7F7F7" transform="matrix(1.00, 0.00, -0.00, -1.00, 115.2, 252.0)"> </text><text xml:space="preserve" font-family="Monaco,Monaco" font-size="27.0" fill="#F7F7F7" transform="matrix(1.00, 0.00, -0.00, -1.00, 131.4, 252.0)">p</text><text xml:space="preserve" font-family="Monaco,Monaco" font-size="27.0" fill="#F7F7F7" transform="matrix(1.00, 0.00, -0.00, -1.00, 147.6, 252.0)">u</text><text xml:space="preserve" font-family="Monaco,Monaco" font-size="27.0" fill="#F7F7F7" transform="matrix(1.00, 0.00, -0.00, -1.00, 163.8, 252.0)">t</text><text xml:space="preserve" font-family="Monaco,Monaco" font-size="27.0" fill="#F7F7F7" transform="matrix(1.00, 0.00, -0.00, -1.00, 180.0, 252.0)">s</text><text xml:space="preserve" font-family="Monaco,Monaco" font-size="27.0" fill="#F7F7F7" transform="matrix(1.00, 0.00, -0.00, -1.00, 196.2, 252.0)"> </text><text xml:space="preserve" font-family="Monaco,Monaco" font-size="27.0" fill="#64AF41" transform="matrix(1.00, 0.00, -0.00, -1.00, 212.4, 252.0)">"</text><text xml:space="preserve" font-family="Monaco,Monaco" font-size="27.0" fill="#64AF41" transform="matrix(1.00, 0.00, -0.00, -1.00, 228.6, 252.0)">R</text><text xml:space="preserve" font-family="Monaco,Monaco" font-size="27.0" fill="#64AF41" transform="matrix(1.00, 0.00, -0.00, -1.00, 244.8, 252.0)">e</text><text xml:space="preserve" font-family="Monaco,Monaco" font-size="27.0" fill="#64AF41" transform="matrix(1.00, 0.00, -0.00, -1.00, 261.0, 252.0)">d</text><text xml:space="preserve" font-family="Monaco,Monaco" font-size="27.0" fill="#64AF41" transform="matrix(1.00, 0.00, -0.00, -1.00, 277.2, 252.0)"> </text><text xml:space="preserve" font-family="Monaco,Monaco" font-size="27.0" fill="#64AF41" transform="matrix(1.00, 0.00, -0.00, -1.00, 293.4, 252.0)">R</text><text xml:space="preserve" font-family="Monaco,Monaco" font-size="27.0" fill="#64AF41" transform="matrix(1.00, 0.00, -0.00, -1.00, 309.7, 252.0)">o</text><text xml:space="preserve" font-family="Monaco,Monaco" font-size="27.0" fill="#64AF41" transform="matrix(1.00, 0.00, -0.00, -1.00, 325.9, 252.0)">v</text><text xml:space="preserve" font-family="Monaco,Monaco" font-size="27.0" fill="#64AF41" transform="matrix(1.00, 0.00, -0.00, -1.00, 342.1, 252.0)">e</text><text xml:space="preserve" font-family="Monaco,Monaco" font-size="27.0" fill="#64AF41" transform="matrix(1.00, 0.00, -0.00, -1.00, 358.3, 252.0)">r</text><text xml:space="preserve" font-family="Monaco,Monaco" font-size="27.0" fill="#64AF41" transform="matrix(1.00, 0.00, -0.00, -1.00, 374.5, 252.0)">"</text><text xml:space="preserve" font-family="Monaco,Monaco" font-size="27.0" fill="#F7F7F7" transform="matrix(1.00, 0.00, -0.00, -1.00, 390.6, 252.0)">	</text><text xml:space="preserve" font-family="Monaco,Monaco" font-size="27.0" fill="#E18964" transform="matrix(1.00, 0.00, -0.00, -1.00, 99.0, 216.0)">e</text><text xml:space="preserve" font-family="Monaco,Monaco" font-size="27.0" fill="#E18964" transform="matrix(1.00, 0.00, -0.00, -1.00, 115.2, 216.0)">n</text><text xml:space="preserve" font-family="Monaco,Monaco" font-size="27.0" fill="#E18964" transform="matrix(1.00, 0.00, -0.00, -1.00, 131.4, 216.0)">d</text><text xml:space="preserve" font-family="Monaco,Monaco" font-size="27.0" fill="#F7F7F7" transform="matrix(1.00, 0.00, -0.00, -1.00, 147.6, 216.0)">	</text><text xml:space="preserve" font-family="Monaco,Monaco" font-size="27.0" fill="#F7F7F7" transform="matrix(1.00, 0.00, -0.00, -1.00, 99.0, 144.0)">r</text><text xml:space="preserve" font-family="Monaco,Monaco" font-size="27.0" fill="#F7F7F7" transform="matrix(1.00, 0.00, -0.00, -1.00, 115.2, 144.0)">o</text><text xml:space="preserve" font-family="Monaco,Monaco" font-size="27.0" fill="#F7F7F7" transform="matrix(1.00, 0.00, -0.00, -1.00, 131.4, 144.0)">v</text><text xml:space="preserve" font-family="Monaco,Monaco" font-size="27.0" fill="#F7F7F7" transform="matrix(1.00, 0.00, -0.00, -1.00, 147.6, 144.0)">e</text><text xml:space="preserve" font-family="Monaco,Monaco" font-size="27.0" fill="#F7F7F7" transform="matrix(1.00, 0.00, -0.00, -1.00, 163.8, 144.0)">r</text><text xml:space="preserve" font-family="Monaco,Monaco" font-size="27.0" fill="#F7F7F7" transform="matrix(1.00, 0.00, -0.00, -1.00, 180.0, 144.0)">.</text><text xml:space="preserve" font-family="Monaco,Monaco" font-size="27.0" fill="#F7F7F7" transform="matrix(1.00, 0.00, -0.00, -1.00, 196.2, 144.0)">s</text><text xml:space="preserve" font-family="Monaco,Monaco" font-size="27.0" fill="#F7F7F7" transform="matrix(1.00, 0.00, -0.00, -1.00, 212.4, 144.0)">p</text><text xml:space="preserve" font-family="Monaco,Monaco" font-size="27.0" fill="#F7F7F7" transform="matrix(1.00, 0.00, -0.00, -1.00, 228.6, 144.0)">e</text><text xml:space="preserve" font-family="Monaco,Monaco" font-size="27.0" fill="#F7F7F7" transform="matrix(1.00, 0.00, -0.00, -1.00, 244.8, 144.0)">a</text><text xml:space="preserve" font-family="Monaco,Monaco" font-size="27.0" fill="#F7F7F7" transform="matrix(1.00, 0.00, -0.00, -1.00, 261.1, 144.0)">k</text><text xml:space="preserve" font-family="Monaco,Monaco" font-size="27.0" fill="#F7F7F7" transform="matrix(1.00, 0.00, -0.00, -1.00, 277.3, 144.0)"> </text><text xml:space="preserve" font-family="Monaco,Monaco" font-size="27.0" fill="#F7F7F7" transform="matrix(1.00, 0.00, -0.00, -1.00, 293.5, 144.0)"> </text><text xml:space="preserve" font-family="Monaco,Monaco" font-size="27.0" fill="#ADADAD" transform="matrix(1.00, 0.00, -0.00, -1.00, 309.6, 144.0)">#</text><text xml:space="preserve" font-family="Monaco,Monaco" font-size="27.0" fill="#ADADAD" transform="matrix(1.00, 0.00, -0.00, -1.00, 325.8, 144.0)"> </text><text xml:space="preserve" font-family="Monaco,Monaco" font-size="27.0" fill="#ADADAD" transform="matrix(1.00, 0.00, -0.00, -1.00, 342.0, 144.0)">=</text><text xml:space="preserve" font-family="Monaco,Monaco" font-size="27.0" fill="#ADADAD" transform="matrix(1.00, 0.00, -0.00, -1.00, 358.3, 144.0)">&gt;</text><text xml:space="preserve" font-family="Monaco,Monaco" font-size="27.0" fill="#ADADAD" transform="matrix(1.00, 0.00, -0.00, -1.00, 374.5, 144.0)"> </text><text xml:space="preserve" font-family="Monaco,Monaco" font-size="27.0" fill="#ADADAD" transform="matrix(1.00, 0.00, -0.00, -1.00, 390.7, 144.0)">"</text><text xml:space="preserve" font-family="Monaco,Monaco" font-size="27.0" fill="#ADADAD" transform="matrix(1.00, 0.00, -0.00, -1.00, 406.9, 144.0)">R</text><text xml:space="preserve" font-family="Monaco,Monaco" font-size="27.0" fill="#ADADAD" transform="matrix(1.00, 0.00, -0.00, -1.00, 423.1, 144.0)">e</text><text xml:space="preserve" font-family="Monaco,Monaco" font-size="27.0" fill="#ADADAD" transform="matrix(1.00, 0.00, -0.00, -1.00, 439.3, 144.0)">d</text><text xml:space="preserve" font-family="Monaco,Monaco" font-size="27.0" fill="#ADADAD" transform="matrix(1.00, 0.00, -0.00, -1.00, 455.5, 144.0)"> </text><text xml:space="preserve" font-family="Monaco,Monaco" font-size="27.0" fill="#ADADAD" transform="matrix(1.00, 0.00, -0.00, -1.00, 471.7, 144.0)">R</text><text xml:space="preserve" font-family="Monaco,Monaco" font-size="27.0" fill="#ADADAD" transform="matrix(1.00, 0.00, -0.00, -1.00, 487.9, 144.0)">o</text><text xml:space="preserve" font-family="Monaco,Monaco" font-size="27.0" fill="#ADADAD" transform="matrix(1.00, 0.00, -0.00, -1.00, 504.1, 144.0)">v</text><text xml:space="preserve" font-family="Monaco,Monaco" font-size="27.0" fill="#ADADAD" transform="matrix(1.00, 0.00, -0.00, -1.00, 520.3, 144.0)">e</text><text xml:space="preserve" font-family="Monaco,Monaco" font-size="27.0" fill="#ADADAD" transform="matrix(1.00, 0.00, -0.00, -1.00, 536.5, 144.0)">r</text><text xml:space="preserve" font-family="Monaco,Monaco" font-size="27.0" fill="#ADADAD" transform="matrix(1.00, 0.00, -0.00, -1.00, 552.7, 144.0)">"</text><text xml:space="preserve" font-family="Monaco,Monaco" font-size="27.0" fill="#ADADAD" transform="matrix(1.00, 0.00, -0.00, -1.00, 568.9, 144.0)">	</text><text xml:space="preserve" font-family="Monaco,Monaco" font-size="27.0" fill="#F7F7F7" transform="matrix(1.00, 0.00, -0.00, -1.00, 99.0, 108.0)">f</text><text xml:space="preserve" font-family="Monaco,Monaco" font-size="27.0" fill="#F7F7F7" transform="matrix(1.00, 0.00, -0.00, -1.00, 115.2, 108.0)">i</text><text xml:space="preserve" font-family="Monaco,Monaco" font-size="27.0" fill="#F7F7F7" transform="matrix(1.00, 0.00, -0.00, -1.00, 131.4, 108.0)">d</text><text xml:space="preserve" font-family="Monaco,Monaco" font-size="27.0" fill="#F7F7F7" transform="matrix(1.00, 0.00, -0.00, -1.00, 147.6, 108.0)">o</text><text xml:space="preserve" font-family="Monaco,Monaco" font-size="27.0" fill="#F7F7F7" transform="matrix(1.00, 0.00, -0.00, -1.00, 163.8, 108.0)">.</text><text xml:space="preserve" font-family="Monaco,Monaco" font-size="27.0" fill="#F7F7F7" transform="matrix(1.00, 0.00, -0.00, -1.00, 180.0, 108.0)">s</text><text xml:space="preserve" font-family="Monaco,Monaco" font-size="27.0" fill="#F7F7F7" transform="matrix(1.00, 0.00, -0.00, -1.00, 196.2, 108.0)">p</text><text xml:space="preserve" font-family="Monaco,Monaco" font-size="27.0" fill="#F7F7F7" transform="matrix(1.00, 0.00, -0.00, -1.00, 212.4, 108.0)">e</text><text xml:space="preserve" font-family="Monaco,Monaco" font-size="27.0" fill="#F7F7F7" transform="matrix(1.00, 0.00, -0.00, -1.00, 228.6, 108.0)">a</text><text xml:space="preserve" font-family="Monaco,Monaco" font-size="27.0" fill="#F7F7F7" transform="matrix(1.00, 0.00, -0.00, -1.00, 244.8, 108.0)">k</text><text xml:space="preserve" font-family="Monaco,Monaco" font-size="27.0" fill="#F7F7F7" transform="matrix(1.00, 0.00, -0.00, -1.00, 261.1, 108.0)"> </text><text xml:space="preserve" font-family="Monaco,Monaco" font-size="27.0" fill="#F7F7F7" transform="matrix(1.00, 0.00, -0.00, -1.00, 277.3, 108.0)"> </text><text xml:space="preserve" font-family="Monaco,Monaco" font-size="27.0" fill="#F7F7F7" transform="matrix(1.00, 0.00, -0.00, -1.00, 293.5, 108.0)"> </text><text xml:space="preserve" font-family="Monaco,Monaco" font-size="27.0" fill="#ADADAD" transform="matrix(1.00, 0.00, -0.00, -1.00, 309.6, 108.0)">#</text><text xml:space="preserve" font-family="Monaco,Monaco" font-size="27.0" fill="#ADADAD" transform="matrix(1.00, 0.00, -0.00, -1.00, 325.8, 108.0)"> </text><text xml:space="preserve" font-family="Monaco,Monaco" font-size="27.0" fill="#ADADAD" transform="matrix(1.00, 0.00, -0.00, -1.00, 342.0, 108.0)">=</text><text xml:space="preserve" font-family="Monaco,Monaco" font-size="27.0" fill="#ADADAD" transform="matrix(1.00, 0.00, -0.00, -1.00, 358.3, 108.0)">&gt;</text><text xml:space="preserve" font-family="Monaco,Monaco" font-size="27.0" fill="#ADADAD" transform="matrix(1.00, 0.00, -0.00, -1.00, 374.5, 108.0)"> </text><text xml:space="preserve" font-family="Monaco,Monaco" font-size="27.0" fill="#ADADAD" transform="matrix(1.00, 0.00, -0.00, -1.00, 390.7, 108.0)">N</text><text xml:space="preserve" font-family="Monaco,Monaco" font-size="27.0" fill="#ADADAD" transform="matrix(1.00, 0.00, -0.00, -1.00, 406.9, 108.0)">o</text><text xml:space="preserve" font-family="Monaco,Monaco" font-size="27.0" fill="#ADADAD" transform="matrix(1.00, 0.00, -0.00, -1.00, 423.1, 108.0)">M</text><text xml:space="preserve" font-family="Monaco,Monaco" font-size="27.0" fill="#ADADAD" transform="matrix(1.00, 0.00, -0.00, -1.00, 439.3, 108.0)">e</text><text xml:space="preserve" font-family="Monaco,Monaco" font-size="27.0" fill="#ADADAD" transform="matrix(1.00, 0.00, -0.00, -1.00, 455.5, 108.0)">t</text><text xml:space="preserve" font-family="Monaco,Monaco" font-size="27.0" fill="#ADADAD" transform="matrix(1.00, 0.00, -0.00, -1.00, 471.7, 108.0)">h</text><text xml:space="preserve" font-family="Monaco,Monaco" font-size="27.0" fill="#ADADAD" transform="matrix(1.00, 0.00, -0.00, -1.00, 487.9, 108.0)">o</text><text xml:space="preserve" font-family="Monaco,Monaco" font-size="27.0" fill="#ADADAD" transform="matrix(1.00, 0.00, -0.00, -1.00, 504.1, 108.0)">d</text><text xml:space="preserve" font-family="Monaco,Monaco" font-size="27.0" fill="#ADADAD" transform="matrix(1.00, 0.00, -0.00, -1.00, 520.3, 108.0)">E</text><text xml:space="preserve" font-family="Monaco,Monaco" font-size="27.0" fill="#ADADAD" transform="matrix(1.00, 0.00, -0.00, -1.00, 536.5, 108.0)">r</text><text xml:space="preserve" font-family="Monaco,Monaco" font-size="27.0" fill="#ADADAD" transform="matrix(1.00, 0.00, -0.00, -1.00, 552.7, 108.0)">r</text><text xml:space="preserve" font-family="Monaco,Monaco" font-size="27.0" fill="#ADADAD" transform="matrix(1.00, 0.00, -0.00, -1.00, 568.9, 108.0)">o</text><text xml:space="preserve" font-family="Monaco,Monaco" font-size="27.0" fill="#ADADAD" transform="matrix(1.00, 0.00, -0.00, -1.00, 585.1, 108.0)">r</text></g></g></g></svg>