<?xml version="1.0" encoding="UTF-8" standalone="no"?><svg xmlns="http://www.w3.org/2000/svg" xmlns:xlink="http://www.w3.org/1999/xlink" clip-rule="evenodd" stroke-miterlimit="10" viewBox="0 0 1024 768"><desc>SVG generated by Keynote</desc><defs></defs><g transform="matrix(1.00, 0.00, -0.00, -1.00, 0.0, 768.0)"><path d="M 0.0 768.0 L 1024.0 768.0 L 1024.0 0.0 L 0.0 0.0 Z M 0.0 768.0 " fill="#669C3B"></path><text xml:space="preserve" font-family="HelveticaNeue-Bold,Helvetica Neue" font-weight="bold" font-size="80.0" fill="#FEFFFF" transform="matrix(1.00, 0.00, -0.00, -1.00, 160.9, 632.7)">C</text><text xml:space="preserve" font-family="HelveticaNeue-Bold,Helvetica Neue" font-weight="bold" font-size="80.0" fill="#FEFFFF" transform="matrix(1.00, 0.00, -0.00, -1.00, 217.0, 632.7)">l</text><text xml:space="preserve" font-family="HelveticaNeue-Bold,Helvetica Neue" font-weight="bold" font-size="80.0" fill="#FEFFFF" transform="matrix(1.00, 0.00, -0.00, -1.00, 234.4, 632.7)">a</text><text xml:space="preserve" font-family="HelveticaNeue-Bold,Helvetica Neue" font-weight="bold" font-size="80.0" fill="#FEFFFF" transform="matrix(1.00, 0.00, -0.00, -1.00, 277.2, 632.7)">s</text><text xml:space="preserve" font-family="HelveticaNeue-Bold,Helvetica Neue" font-weight="bold" font-size="80.0" fill="#FEFFFF" transform="matrix(1.00, 0.00, -0.00, -1.00, 316.9, 632.7)">s</text><text xml:space="preserve" font-family="HelveticaNeue-Bold,Helvetica Neue" font-weight="bold" font-size="80.0" fill="#FEFFFF" transform="matrix(1.00, 0.00, -0.00, -1.00, 356.7, 632.7)">e</text><text xml:space="preserve" font-family="HelveticaNeue-Bold,Helvetica Neue" font-weight="bold" font-size="80.0" fill="#FEFFFF" transform="matrix(1.00, 0.00, -0.00, -1.00, 399.4, 632.7)">s</text><text xml:space="preserve" font-family="HelveticaNeue-Bold,Helvetica Neue" font-weight="bold" font-size="80.0" fill="#FEFFFF" transform="matrix(1.00, 0.00, -0.00, -1.00, 439.2, 632.7)"> </text><text xml:space="preserve" font-family="HelveticaNeue-Bold,Helvetica Neue" font-weight="bold" font-size="80.0" fill="#FEFFFF" transform="matrix(1.00, 0.00, -0.00, -1.00, 458.2, 632.7)">a</text><text xml:space="preserve" font-family="HelveticaNeue-Bold,Helvetica Neue" font-weight="bold" font-size="80.0" fill="#FEFFFF" transform="matrix(1.00, 0.00, -0.00, -1.00, 500.9, 632.7)">r</text><text xml:space="preserve" font-family="HelveticaNeue-Bold,Helvetica Neue" font-weight="bold" font-size="80.0" fill="#FEFFFF" transform="matrix(1.00, 0.00, -0.00, -1.00, 527.4, 632.7)">e</text><text xml:space="preserve" font-family="HelveticaNeue-Bold,Helvetica Neue" font-weight="bold" font-size="80.0" fill="#FEFFFF" transform="matrix(1.00, 0.00, -0.00, -1.00, 570.1, 632.7)"> </text><text xml:space="preserve" font-family="HelveticaNeue-Bold,Helvetica Neue" font-weight="bold" font-size="80.0" fill="#FEFFFF" transform="matrix(1.00, 0.00, -0.00, -1.00, 589.2, 632.7)">O</text><text xml:space="preserve" font-family="HelveticaNeue-Bold,Helvetica Neue" font-weight="bold" font-size="80.0" fill="#FEFFFF" transform="matrix(1.00, 0.00, -0.00, -1.00, 648.2, 632.7)">b</text><text xml:space="preserve" font-family="HelveticaNeue-Bold,Helvetica Neue" font-weight="bold" font-size="80.0" fill="#FEFFFF" transform="matrix(1.00, 0.00, -0.00, -1.00, 693.9, 632.7)">j</text><text xml:space="preserve" font-family="HelveticaNeue-Bold,Helvetica Neue" font-weight="bold" font-size="80.0" fill="#FEFFFF" transform="matrix(1.00, 0.00, -0.00, -1.00, 712.9, 632.7)">e</text><text xml:space="preserve" font-family="HelveticaNeue-Bold,Helvetica Neue" font-weight="bold" font-size="80.0" fill="#FEFFFF" transform="matrix(1.00, 0.00, -0.00, -1.00, 755.6, 632.7)">c</text><text xml:space="preserve" font-family="HelveticaNeue-Bold,Helvetica Neue" font-weight="bold" font-size="80.0" fill="#FEFFFF" transform="matrix(1.00, 0.00, -0.00, -1.00, 798.4, 632.7)">t</text><text xml:space="preserve" font-family="HelveticaNeue-Bold,Helvetica Neue" font-weight="bold" font-size="80.0" fill="#FEFFFF" transform="matrix(1.00, 0.00, -0.00, -1.00, 823.3, 632.7)">s</text><path d="M 75.0 564.0 L 949.0 564.0 L 949.0 69.0 L 75.0 69.0 Z M 75.0 564.0 " fill="#161616"></path><image xlink:href="../../8F0C1197-3438-4549-8091-6032C74756B9/assets/932506F90606F6BEA790D89AA40BDE8B.png" width="872.00" height="493.00" transform="matrix(1.00, 0.00, -0.00, 1.00, 76.0, 70.0)"></image><g><clipPath id="clip0x600000ea90c0"><path d="M 76.0 70.0 L 948.0 70.0 L 948.0 563.0 L 76.0 563.0 Z M 76.0 70.0 "></path></clipPath><g clip-path="url(#clip0x600000ea90c0)"><path d="M 99.0 447.0 L 574.3 447.0 L 574.3 403.0 L 99.0 403.0 Z M 99.0 447.0 " fill="#000000"></path><path d="M 99.0 403.0 L 633.7 403.0 L 633.7 359.0 L 99.0 359.0 Z M 99.0 403.0 " fill="#000000"></path><path d="M 99.0 359.0 L 138.6 359.0 L 138.6 315.0 L 99.0 315.0 Z M 99.0 359.0 " fill="#000000"></path><path d="M 99.0 315.0 L 554.5 315.0 L 554.5 271.0 L 99.0 271.0 Z M 99.0 315.0 " fill="#000000"></path><path d="M 99.0 271.0 L 534.7 271.0 L 534.7 227.0 L 99.0 227.0 Z M 99.0 271.0 " fill="#000000"></path><path d="M 99.0 227.0 L 356.4 227.0 L 356.4 183.0 L 99.0 183.0 Z M 99.0 227.0 " fill="#000000"></path><text xml:space="preserve" font-family="Monaco,Monaco" font-size="33.0" fill="#ADADAD" transform="matrix(1.00, 0.00, -0.00, -1.00, 99.0, 414.0)">#</text><text xml:space="preserve" font-family="Monaco,Monaco" font-size="33.0" fill="#ADADAD" transform="matrix(1.00, 0.00, -0.00, -1.00, 118.8, 414.0)"> </text><text xml:space="preserve" font-family="Monaco,Monaco" font-size="33.0" fill="#ADADAD" transform="matrix(1.00, 0.00, -0.00, -1.00, 138.6, 414.0)">"</text><text xml:space="preserve" font-family="Monaco,Monaco" font-size="33.0" fill="#ADADAD" transform="matrix(1.00, 0.00, -0.00, -1.00, 158.4, 414.0)">A</text><text xml:space="preserve" font-family="Monaco,Monaco" font-size="33.0" fill="#ADADAD" transform="matrix(1.00, 0.00, -0.00, -1.00, 178.2, 414.0)">r</text><text xml:space="preserve" font-family="Monaco,Monaco" font-size="33.0" fill="#ADADAD" transform="matrix(1.00, 0.00, -0.00, -1.00, 198.0, 414.0)">r</text><text xml:space="preserve" font-family="Monaco,Monaco" font-size="33.0" fill="#ADADAD" transform="matrix(1.00, 0.00, -0.00, -1.00, 217.8, 414.0)">a</text><text xml:space="preserve" font-family="Monaco,Monaco" font-size="33.0" fill="#ADADAD" transform="matrix(1.00, 0.00, -0.00, -1.00, 237.6, 414.0)">y</text><text xml:space="preserve" font-family="Monaco,Monaco" font-size="33.0" fill="#ADADAD" transform="matrix(1.00, 0.00, -0.00, -1.00, 257.5, 414.0)">"</text><text xml:space="preserve" font-family="Monaco,Monaco" font-size="33.0" fill="#ADADAD" transform="matrix(1.00, 0.00, -0.00, -1.00, 277.3, 414.0)"> </text><text xml:space="preserve" font-family="Monaco,Monaco" font-size="33.0" fill="#ADADAD" transform="matrix(1.00, 0.00, -0.00, -1.00, 297.1, 414.0)">i</text><text xml:space="preserve" font-family="Monaco,Monaco" font-size="33.0" fill="#ADADAD" transform="matrix(1.00, 0.00, -0.00, -1.00, 316.9, 414.0)">s</text><text xml:space="preserve" font-family="Monaco,Monaco" font-size="33.0" fill="#ADADAD" transform="matrix(1.00, 0.00, -0.00, -1.00, 336.7, 414.0)"> </text><text xml:space="preserve" font-family="Monaco,Monaco" font-size="33.0" fill="#ADADAD" transform="matrix(1.00, 0.00, -0.00, -1.00, 356.5, 414.0)">a</text><text xml:space="preserve" font-family="Monaco,Monaco" font-size="33.0" fill="#ADADAD" transform="matrix(1.00, 0.00, -0.00, -1.00, 376.3, 414.0)"> </text><text xml:space="preserve" font-family="Monaco,Monaco" font-size="33.0" fill="#ADADAD" transform="matrix(1.00, 0.00, -0.00, -1.00, 396.1, 414.0)">c</text><text xml:space="preserve" font-family="Monaco,Monaco" font-size="33.0" fill="#ADADAD" transform="matrix(1.00, 0.00, -0.00, -1.00, 415.9, 414.0)">o</text><text xml:space="preserve" font-family="Monaco,Monaco" font-size="33.0" fill="#ADADAD" transform="matrix(1.00, 0.00, -0.00, -1.00, 435.7, 414.0)">n</text><text xml:space="preserve" font-family="Monaco,Monaco" font-size="33.0" fill="#ADADAD" transform="matrix(1.00, 0.00, -0.00, -1.00, 455.5, 414.0)">s</text><text xml:space="preserve" font-family="Monaco,Monaco" font-size="33.0" fill="#ADADAD" transform="matrix(1.00, 0.00, -0.00, -1.00, 475.3, 414.0)">t</text><text xml:space="preserve" font-family="Monaco,Monaco" font-size="33.0" fill="#ADADAD" transform="matrix(1.00, 0.00, -0.00, -1.00, 495.1, 414.0)">a</text><text xml:space="preserve" font-family="Monaco,Monaco" font-size="33.0" fill="#ADADAD" transform="matrix(1.00, 0.00, -0.00, -1.00, 514.9, 414.0)">n</text><text xml:space="preserve" font-family="Monaco,Monaco" font-size="33.0" fill="#ADADAD" transform="matrix(1.00, 0.00, -0.00, -1.00, 534.7, 414.0)">t</text><text xml:space="preserve" font-family="Monaco,Monaco" font-size="33.0" fill="#ADADAD" transform="matrix(1.00, 0.00, -0.00, -1.00, 554.6, 414.0)"> </text><text xml:space="preserve" font-family="Monaco,Monaco" font-size="33.0" fill="#ADADAD" transform="matrix(1.00, 0.00, -0.00, -1.00, 574.3, 414.0)">	</text><text xml:space="preserve" font-family="Monaco,Monaco" font-size="33.0" fill="#ADADAD" transform="matrix(1.00, 0.00, -0.00, -1.00, 99.0, 370.0)">#</text><text xml:space="preserve" font-family="Monaco,Monaco" font-size="33.0" fill="#ADADAD" transform="matrix(1.00, 0.00, -0.00, -1.00, 118.8, 370.0)"> </text><text xml:space="preserve" font-family="Monaco,Monaco" font-size="33.0" fill="#ADADAD" transform="matrix(1.00, 0.00, -0.00, -1.00, 138.6, 370.0)">c</text><text xml:space="preserve" font-family="Monaco,Monaco" font-size="33.0" fill="#ADADAD" transform="matrix(1.00, 0.00, -0.00, -1.00, 158.4, 370.0)">o</text><text xml:space="preserve" font-family="Monaco,Monaco" font-size="33.0" fill="#ADADAD" transform="matrix(1.00, 0.00, -0.00, -1.00, 178.2, 370.0)">n</text><text xml:space="preserve" font-family="Monaco,Monaco" font-size="33.0" fill="#ADADAD" transform="matrix(1.00, 0.00, -0.00, -1.00, 198.0, 370.0)">t</text><text xml:space="preserve" font-family="Monaco,Monaco" font-size="33.0" fill="#ADADAD" transform="matrix(1.00, 0.00, -0.00, -1.00, 217.8, 370.0)">a</text><text xml:space="preserve" font-family="Monaco,Monaco" font-size="33.0" fill="#ADADAD" transform="matrix(1.00, 0.00, -0.00, -1.00, 237.6, 370.0)">i</text><text xml:space="preserve" font-family="Monaco,Monaco" font-size="33.0" fill="#ADADAD" transform="matrix(1.00, 0.00, -0.00, -1.00, 257.5, 370.0)">n</text><text xml:space="preserve" font-family="Monaco,Monaco" font-size="33.0" fill="#ADADAD" transform="matrix(1.00, 0.00, -0.00, -1.00, 277.3, 370.0)">i</text><text xml:space="preserve" font-family="Monaco,Monaco" font-size="33.0" fill="#ADADAD" transform="matrix(1.00, 0.00, -0.00, -1.00, 297.1, 370.0)">n</text><text xml:space="preserve" font-family="Monaco,Monaco" font-size="33.0" fill="#ADADAD" transform="matrix(1.00, 0.00, -0.00, -1.00, 316.9, 370.0)">g</text><text xml:space="preserve" font-family="Monaco,Monaco" font-size="33.0" fill="#ADADAD" transform="matrix(1.00, 0.00, -0.00, -1.00, 336.7, 370.0)"> </text><text xml:space="preserve" font-family="Monaco,Monaco" font-size="33.0" fill="#ADADAD" transform="matrix(1.00, 0.00, -0.00, -1.00, 356.5, 370.0)">a</text><text xml:space="preserve" font-family="Monaco,Monaco" font-size="33.0" fill="#ADADAD" transform="matrix(1.00, 0.00, -0.00, -1.00, 376.3, 370.0)"> </text><text xml:space="preserve" font-family="Monaco,Monaco" font-size="33.0" fill="#ADADAD" transform="matrix(1.00, 0.00, -0.00, -1.00, 396.1, 370.0)">c</text><text xml:space="preserve" font-family="Monaco,Monaco" font-size="33.0" fill="#ADADAD" transform="matrix(1.00, 0.00, -0.00, -1.00, 415.9, 370.0)">l</text><text xml:space="preserve" font-family="Monaco,Monaco" font-size="33.0" fill="#ADADAD" transform="matrix(1.00, 0.00, -0.00, -1.00, 435.7, 370.0)">a</text><text xml:space="preserve" font-family="Monaco,Monaco" font-size="33.0" fill="#ADADAD" transform="matrix(1.00, 0.00, -0.00, -1.00, 455.5, 370.0)">s</text><text xml:space="preserve" font-family="Monaco,Monaco" font-size="33.0" fill="#ADADAD" transform="matrix(1.00, 0.00, -0.00, -1.00, 475.3, 370.0)">s</text><text xml:space="preserve" font-family="Monaco,Monaco" font-size="33.0" fill="#ADADAD" transform="matrix(1.00, 0.00, -0.00, -1.00, 495.1, 370.0)"> </text><text xml:space="preserve" font-family="Monaco,Monaco" font-size="33.0" fill="#ADADAD" transform="matrix(1.00, 0.00, -0.00, -1.00, 514.9, 370.0)">o</text><text xml:space="preserve" font-family="Monaco,Monaco" font-size="33.0" fill="#ADADAD" transform="matrix(1.00, 0.00, -0.00, -1.00, 534.7, 370.0)">b</text><text xml:space="preserve" font-family="Monaco,Monaco" font-size="33.0" fill="#ADADAD" transform="matrix(1.00, 0.00, -0.00, -1.00, 554.6, 370.0)">j</text><text xml:space="preserve" font-family="Monaco,Monaco" font-size="33.0" fill="#ADADAD" transform="matrix(1.00, 0.00, -0.00, -1.00, 574.4, 370.0)">e</text><text xml:space="preserve" font-family="Monaco,Monaco" font-size="33.0" fill="#ADADAD" transform="matrix(1.00, 0.00, -0.00, -1.00, 594.2, 370.0)">c</text><text xml:space="preserve" font-family="Monaco,Monaco" font-size="33.0" fill="#ADADAD" transform="matrix(1.00, 0.00, -0.00, -1.00, 614.0, 370.0)">t</text><text xml:space="preserve" font-family="Monaco,Monaco" font-size="33.0" fill="#ADADAD" transform="matrix(1.00, 0.00, -0.00, -1.00, 633.7, 370.0)">	</text><text xml:space="preserve" font-family="Monaco,Monaco" font-size="33.0" fill="#ADADAD" transform="matrix(1.00, 0.00, -0.00, -1.00, 99.0, 326.0)">#</text><text xml:space="preserve" font-family="Monaco,Monaco" font-size="33.0" fill="#ADADAD" transform="matrix(1.00, 0.00, -0.00, -1.00, 118.8, 326.0)"> </text><text xml:space="preserve" font-family="Monaco,Monaco" font-size="33.0" fill="#ADADAD" transform="matrix(1.00, 0.00, -0.00, -1.00, 138.6, 326.0)">	</text><text xml:space="preserve" font-family="Monaco,Monaco" font-size="33.0" fill="#ADADAD" transform="matrix(1.00, 0.00, -0.00, -1.00, 99.0, 282.0)">#</text><text xml:space="preserve" font-family="Monaco,Monaco" font-size="33.0" fill="#ADADAD" transform="matrix(1.00, 0.00, -0.00, -1.00, 118.8, 282.0)"> </text><text xml:space="preserve" font-family="Monaco,Monaco" font-size="33.0" fill="#ADADAD" transform="matrix(1.00, 0.00, -0.00, -1.00, 138.6, 282.0)">W</text><text xml:space="preserve" font-family="Monaco,Monaco" font-size="33.0" fill="#ADADAD" transform="matrix(1.00, 0.00, -0.00, -1.00, 158.4, 282.0)">e</text><text xml:space="preserve" font-family="Monaco,Monaco" font-size="33.0" fill="#ADADAD" transform="matrix(1.00, 0.00, -0.00, -1.00, 178.2, 282.0)"> </text><text xml:space="preserve" font-family="Monaco,Monaco" font-size="33.0" fill="#ADADAD" transform="matrix(1.00, 0.00, -0.00, -1.00, 198.0, 282.0)">a</text><text xml:space="preserve" font-family="Monaco,Monaco" font-size="33.0" fill="#ADADAD" transform="matrix(1.00, 0.00, -0.00, -1.00, 217.8, 282.0)">r</text><text xml:space="preserve" font-family="Monaco,Monaco" font-size="33.0" fill="#ADADAD" transform="matrix(1.00, 0.00, -0.00, -1.00, 237.6, 282.0)">e</text><text xml:space="preserve" font-family="Monaco,Monaco" font-size="33.0" fill="#ADADAD" transform="matrix(1.00, 0.00, -0.00, -1.00, 257.5, 282.0)"> </text><text xml:space="preserve" font-family="Monaco,Monaco" font-size="33.0" fill="#ADADAD" transform="matrix(1.00, 0.00, -0.00, -1.00, 277.3, 282.0)">s</text><text xml:space="preserve" font-family="Monaco,Monaco" font-size="33.0" fill="#ADADAD" transform="matrix(1.00, 0.00, -0.00, -1.00, 297.1, 282.0)">e</text><text xml:space="preserve" font-family="Monaco,Monaco" font-size="33.0" fill="#ADADAD" transform="matrix(1.00, 0.00, -0.00, -1.00, 316.9, 282.0)">n</text><text xml:space="preserve" font-family="Monaco,Monaco" font-size="33.0" fill="#ADADAD" transform="matrix(1.00, 0.00, -0.00, -1.00, 336.7, 282.0)">d</text><text xml:space="preserve" font-family="Monaco,Monaco" font-size="33.0" fill="#ADADAD" transform="matrix(1.00, 0.00, -0.00, -1.00, 356.5, 282.0)">i</text><text xml:space="preserve" font-family="Monaco,Monaco" font-size="33.0" fill="#ADADAD" transform="matrix(1.00, 0.00, -0.00, -1.00, 376.3, 282.0)">n</text><text xml:space="preserve" font-family="Monaco,Monaco" font-size="33.0" fill="#ADADAD" transform="matrix(1.00, 0.00, -0.00, -1.00, 396.1, 282.0)">g</text><text xml:space="preserve" font-family="Monaco,Monaco" font-size="33.0" fill="#ADADAD" transform="matrix(1.00, 0.00, -0.00, -1.00, 415.9, 282.0)"> </text><text xml:space="preserve" font-family="Monaco,Monaco" font-size="33.0" fill="#ADADAD" transform="matrix(1.00, 0.00, -0.00, -1.00, 435.7, 282.0)">"</text><text xml:space="preserve" font-family="Monaco,Monaco" font-size="33.0" fill="#ADADAD" transform="matrix(1.00, 0.00, -0.00, -1.00, 455.5, 282.0)">n</text><text xml:space="preserve" font-family="Monaco,Monaco" font-size="33.0" fill="#ADADAD" transform="matrix(1.00, 0.00, -0.00, -1.00, 475.3, 282.0)">e</text><text xml:space="preserve" font-family="Monaco,Monaco" font-size="33.0" fill="#ADADAD" transform="matrix(1.00, 0.00, -0.00, -1.00, 495.1, 282.0)">w</text><text xml:space="preserve" font-family="Monaco,Monaco" font-size="33.0" fill="#ADADAD" transform="matrix(1.00, 0.00, -0.00, -1.00, 514.9, 282.0)">"</text><text xml:space="preserve" font-family="Monaco,Monaco" font-size="33.0" fill="#ADADAD" transform="matrix(1.00, 0.00, -0.00, -1.00, 534.7, 282.0)"> </text><text xml:space="preserve" font-family="Monaco,Monaco" font-size="33.0" fill="#ADADAD" transform="matrix(1.00, 0.00, -0.00, -1.00, 554.5, 282.0)">	</text><text xml:space="preserve" font-family="Monaco,Monaco" font-size="33.0" fill="#ADADAD" transform="matrix(1.00, 0.00, -0.00, -1.00, 99.0, 238.0)">#</text><text xml:space="preserve" font-family="Monaco,Monaco" font-size="33.0" fill="#ADADAD" transform="matrix(1.00, 0.00, -0.00, -1.00, 118.8, 238.0)"> </text><text xml:space="preserve" font-family="Monaco,Monaco" font-size="33.0" fill="#ADADAD" transform="matrix(1.00, 0.00, -0.00, -1.00, 138.6, 238.0)">t</text><text xml:space="preserve" font-family="Monaco,Monaco" font-size="33.0" fill="#ADADAD" transform="matrix(1.00, 0.00, -0.00, -1.00, 158.4, 238.0)">o</text><text xml:space="preserve" font-family="Monaco,Monaco" font-size="33.0" fill="#ADADAD" transform="matrix(1.00, 0.00, -0.00, -1.00, 178.2, 238.0)"> </text><text xml:space="preserve" font-family="Monaco,Monaco" font-size="33.0" fill="#ADADAD" transform="matrix(1.00, 0.00, -0.00, -1.00, 198.0, 238.0)">t</text><text xml:space="preserve" font-family="Monaco,Monaco" font-size="33.0" fill="#ADADAD" transform="matrix(1.00, 0.00, -0.00, -1.00, 217.8, 238.0)">h</text><text xml:space="preserve" font-family="Monaco,Monaco" font-size="33.0" fill="#ADADAD" transform="matrix(1.00, 0.00, -0.00, -1.00, 237.6, 238.0)">e</text><text xml:space="preserve" font-family="Monaco,Monaco" font-size="33.0" fill="#ADADAD" transform="matrix(1.00, 0.00, -0.00, -1.00, 257.4, 238.0)"> </text><text xml:space="preserve" font-family="Monaco,Monaco" font-size="33.0" fill="#ADADAD" transform="matrix(1.00, 0.00, -0.00, -1.00, 277.3, 238.0)">c</text><text xml:space="preserve" font-family="Monaco,Monaco" font-size="33.0" fill="#ADADAD" transform="matrix(1.00, 0.00, -0.00, -1.00, 297.1, 238.0)">l</text><text xml:space="preserve" font-family="Monaco,Monaco" font-size="33.0" fill="#ADADAD" transform="matrix(1.00, 0.00, -0.00, -1.00, 316.9, 238.0)">a</text><text xml:space="preserve" font-family="Monaco,Monaco" font-size="33.0" fill="#ADADAD" transform="matrix(1.00, 0.00, -0.00, -1.00, 336.7, 238.0)">s</text><text xml:space="preserve" font-family="Monaco,Monaco" font-size="33.0" fill="#ADADAD" transform="matrix(1.00, 0.00, -0.00, -1.00, 356.5, 238.0)">s</text><text xml:space="preserve" font-family="Monaco,Monaco" font-size="33.0" fill="#ADADAD" transform="matrix(1.00, 0.00, -0.00, -1.00, 376.3, 238.0)"> </text><text xml:space="preserve" font-family="Monaco,Monaco" font-size="33.0" fill="#ADADAD" transform="matrix(1.00, 0.00, -0.00, -1.00, 396.1, 238.0)">o</text><text xml:space="preserve" font-family="Monaco,Monaco" font-size="33.0" fill="#ADADAD" transform="matrix(1.00, 0.00, -0.00, -1.00, 415.9, 238.0)">b</text><text xml:space="preserve" font-family="Monaco,Monaco" font-size="33.0" fill="#ADADAD" transform="matrix(1.00, 0.00, -0.00, -1.00, 435.7, 238.0)">j</text><text xml:space="preserve" font-family="Monaco,Monaco" font-size="33.0" fill="#ADADAD" transform="matrix(1.00, 0.00, -0.00, -1.00, 455.5, 238.0)">e</text><text xml:space="preserve" font-family="Monaco,Monaco" font-size="33.0" fill="#ADADAD" transform="matrix(1.00, 0.00, -0.00, -1.00, 475.3, 238.0)">c</text><text xml:space="preserve" font-family="Monaco,Monaco" font-size="33.0" fill="#ADADAD" transform="matrix(1.00, 0.00, -0.00, -1.00, 495.1, 238.0)">t</text><text xml:space="preserve" font-family="Monaco,Monaco" font-size="33.0" fill="#ADADAD" transform="matrix(1.00, 0.00, -0.00, -1.00, 514.9, 238.0)">	</text><text xml:space="preserve" font-family="Monaco,Monaco" font-size="33.0" fill="#F7F7F7" transform="matrix(1.00, 0.00, -0.00, -1.00, 99.0, 194.0)">a</text><text xml:space="preserve" font-family="Monaco,Monaco" font-size="33.0" fill="#F7F7F7" transform="matrix(1.00, 0.00, -0.00, -1.00, 118.8, 194.0)"> </text><text xml:space="preserve" font-family="Monaco,Monaco" font-size="33.0" fill="#E18964" transform="matrix(1.00, 0.00, -0.00, -1.00, 138.6, 194.0)">=</text><text xml:space="preserve" font-family="Monaco,Monaco" font-size="33.0" fill="#F7F7F7" transform="matrix(1.00, 0.00, -0.00, -1.00, 158.4, 194.0)"> </text><text xml:space="preserve" font-family="Monaco,Monaco" font-size="33.0" fill="#9B849C" transform="matrix(1.00, 0.00, -0.00, -1.00, 178.2, 194.0)">A</text><text xml:space="preserve" font-family="Monaco,Monaco" font-size="33.0" fill="#9B849C" transform="matrix(1.00, 0.00, -0.00, -1.00, 198.0, 194.0)">r</text><text xml:space="preserve" font-family="Monaco,Monaco" font-size="33.0" fill="#9B849C" transform="matrix(1.00, 0.00, -0.00, -1.00, 217.8, 194.0)">r</text><text xml:space="preserve" font-family="Monaco,Monaco" font-size="33.0" fill="#9B849C" transform="matrix(1.00, 0.00, -0.00, -1.00, 237.6, 194.0)">a</text><text xml:space="preserve" font-family="Monaco,Monaco" font-size="33.0" fill="#9B849C" transform="matrix(1.00, 0.00, -0.00, -1.00, 257.4, 194.0)">y</text><text xml:space="preserve" font-family="Monaco,Monaco" font-size="33.0" fill="#F7F7F7" transform="matrix(1.00, 0.00, -0.00, -1.00, 277.2, 194.0)">.</text><text xml:space="preserve" font-family="Monaco,Monaco" font-size="33.0" fill="#E18964" transform="matrix(1.00, 0.00, -0.00, -1.00, 297.0, 194.0)">n</text><text xml:space="preserve" font-family="Monaco,Monaco" font-size="33.0" fill="#E18964" transform="matrix(1.00, 0.00, -0.00, -1.00, 316.8, 194.0)">e</text><text xml:space="preserve" font-family="Monaco,Monaco" font-size="33.0" fill="#E18964" transform="matrix(1.00, 0.00, -0.00, -1.00, 336.6, 194.0)">w</text></g></g></g></svg>