<?xml version="1.0" encoding="UTF-8" standalone="no"?><svg xmlns="http://www.w3.org/2000/svg" xmlns:xlink="http://www.w3.org/1999/xlink" clip-rule="evenodd" stroke-miterlimit="10" viewBox="0 0 1024 768"><desc>SVG generated by Keynote</desc><defs></defs><g transform="matrix(1.00, 0.00, -0.00, -1.00, 0.0, 768.0)"><path d="M 0.0 768.0 L 1024.0 768.0 L 1024.0 0.0 L 0.0 0.0 Z M 0.0 768.0 " fill="#669C3B"></path><text xml:space="preserve" font-family="HelveticaNeue-Bold,Helvetica Neue" font-weight="bold" font-size="80.0" fill="#FEFFFF" transform="matrix(1.00, 0.00, -0.00, -1.00, 271.6, 632.7)">N</text><text xml:space="preserve" font-family="HelveticaNeue-Bold,Helvetica Neue" font-weight="bold" font-size="80.0" fill="#FEFFFF" transform="matrix(1.00, 0.00, -0.00, -1.00, 327.6, 632.7)">o</text><text xml:space="preserve" font-family="HelveticaNeue-Bold,Helvetica Neue" font-weight="bold" font-size="80.0" fill="#FEFFFF" transform="matrix(1.00, 0.00, -0.00, -1.00, 373.3, 632.7)"> </text><text xml:space="preserve" font-family="HelveticaNeue-Bold,Helvetica Neue" font-weight="bold" font-size="80.0" fill="#FEFFFF" transform="matrix(1.00, 0.00, -0.00, -1.00, 392.4, 632.7)">p</text><text xml:space="preserve" font-family="HelveticaNeue-Bold,Helvetica Neue" font-weight="bold" font-size="80.0" fill="#FEFFFF" transform="matrix(1.00, 0.00, -0.00, -1.00, 438.0, 632.7)">r</text><text xml:space="preserve" font-family="HelveticaNeue-Bold,Helvetica Neue" font-weight="bold" font-size="80.0" fill="#FEFFFF" transform="matrix(1.00, 0.00, -0.00, -1.00, 466.0, 632.7)">i</text><text xml:space="preserve" font-family="HelveticaNeue-Bold,Helvetica Neue" font-weight="bold" font-size="80.0" fill="#FEFFFF" transform="matrix(1.00, 0.00, -0.00, -1.00, 483.4, 632.7)">m</text><text xml:space="preserve" font-family="HelveticaNeue-Bold,Helvetica Neue" font-weight="bold" font-size="80.0" fill="#FEFFFF" transform="matrix(1.00, 0.00, -0.00, -1.00, 552.7, 632.7)">i</text><text xml:space="preserve" font-family="HelveticaNeue-Bold,Helvetica Neue" font-weight="bold" font-size="80.0" fill="#FEFFFF" transform="matrix(1.00, 0.00, -0.00, -1.00, 570.1, 632.7)">t</text><text xml:space="preserve" font-family="HelveticaNeue-Bold,Helvetica Neue" font-weight="bold" font-size="80.0" fill="#FEFFFF" transform="matrix(1.00, 0.00, -0.00, -1.00, 595.1, 632.7)">i</text><text xml:space="preserve" font-family="HelveticaNeue-Bold,Helvetica Neue" font-weight="bold" font-size="80.0" fill="#FEFFFF" transform="matrix(1.00, 0.00, -0.00, -1.00, 612.5, 632.7)">v</text><text xml:space="preserve" font-family="HelveticaNeue-Bold,Helvetica Neue" font-weight="bold" font-size="80.0" fill="#FEFFFF" transform="matrix(1.00, 0.00, -0.00, -1.00, 650.9, 632.7)">e</text><text xml:space="preserve" font-family="HelveticaNeue-Bold,Helvetica Neue" font-weight="bold" font-size="80.0" fill="#FEFFFF" transform="matrix(1.00, 0.00, -0.00, -1.00, 693.6, 632.7)">s</text><text xml:space="preserve" font-family="HelveticaNeue-Bold,Helvetica Neue" font-weight="bold" font-size="80.0" fill="#FEFFFF" transform="matrix(1.00, 0.00, -0.00, -1.00, 733.4, 632.7)">!</text><path d="M 75.0 564.0 L 949.0 564.0 L 949.0 69.0 L 75.0 69.0 Z M 75.0 564.0 " fill="#161616"></path><image xlink:href="../../8F0C1197-3438-4549-8091-6032C74756B9/assets/932506F90606F6BEA790D89AA40BDE8B.png" width="872.00" height="493.00" transform="matrix(1.00, 0.00, -0.00, 1.00, 76.0, 70.0)"></image><g><clipPath id="clip0x600000eb1ee0"><path d="M 76.0 70.0 L 948.0 70.0 L 948.0 563.0 L 76.0 563.0 Z M 76.0 70.0 "></path></clipPath><g clip-path="url(#clip0x600000eb1ee0)"><path d="M 99.0 479.0 L 477.1 479.0 L 477.1 438.0 L 99.0 438.0 Z M 99.0 479.0 " fill="#000000"></path><path d="M 99.0 438.0 L 495.1 438.0 L 495.1 397.0 L 99.0 397.0 Z M 99.0 438.0 " fill="#000000"></path><path d="M 99.0 397.0 L 423.1 397.0 L 423.1 356.0 L 99.0 356.0 Z M 99.0 397.0 " fill="#000000"></path><path d="M 99.0 356.0 L 423.1 356.0 L 423.1 315.0 L 99.0 315.0 Z M 99.0 356.0 " fill="#000000"></path><path d="M 99.0 315.0 L 909.1 315.0 L 909.1 274.0 L 99.0 274.0 Z M 99.0 315.0 " fill="#000000"></path><path d="M 99.0 274.0 L 693.1 274.0 L 693.1 233.0 L 99.0 233.0 Z M 99.0 274.0 " fill="#000000"></path><path d="M 99.0 233.0 L 513.1 233.0 L 513.1 192.0 L 99.0 192.0 Z M 99.0 233.0 " fill="#000000"></path><path d="M 99.0 192.0 L 585.1 192.0 L 585.1 151.0 L 99.0 151.0 Z M 99.0 192.0 " fill="#000000"></path><text xml:space="preserve" font-family="Monaco,Monaco" font-size="30.0" fill="#3287CB" transform="matrix(1.00, 0.00, -0.00, -1.00, 99.0, 448.0)">0</text><text xml:space="preserve" font-family="Monaco,Monaco" font-size="30.0" fill="#F7F7F7" transform="matrix(1.00, 0.00, -0.00, -1.00, 117.0, 448.0)">.</text><text xml:space="preserve" font-family="Monaco,Monaco" font-size="30.0" fill="#F7F7F7" transform="matrix(1.00, 0.00, -0.00, -1.00, 135.0, 448.0)">z</text><text xml:space="preserve" font-family="Monaco,Monaco" font-size="30.0" fill="#F7F7F7" transform="matrix(1.00, 0.00, -0.00, -1.00, 153.0, 448.0)">e</text><text xml:space="preserve" font-family="Monaco,Monaco" font-size="30.0" fill="#F7F7F7" transform="matrix(1.00, 0.00, -0.00, -1.00, 171.0, 448.0)">r</text><text xml:space="preserve" font-family="Monaco,Monaco" font-size="30.0" fill="#F7F7F7" transform="matrix(1.00, 0.00, -0.00, -1.00, 189.0, 448.0)">o</text><text xml:space="preserve" font-family="Monaco,Monaco" font-size="30.0" fill="#F7F7F7" transform="matrix(1.00, 0.00, -0.00, -1.00, 207.0, 448.0)">?</text><text xml:space="preserve" font-family="Monaco,Monaco" font-size="30.0" fill="#F7F7F7" transform="matrix(1.00, 0.00, -0.00, -1.00, 225.0, 448.0)"> </text><text xml:space="preserve" font-family="Monaco,Monaco" font-size="30.0" fill="#F7F7F7" transform="matrix(1.00, 0.00, -0.00, -1.00, 243.0, 448.0)"> </text><text xml:space="preserve" font-family="Monaco,Monaco" font-size="30.0" fill="#F7F7F7" transform="matrix(1.00, 0.00, -0.00, -1.00, 261.1, 448.0)"> </text><text xml:space="preserve" font-family="Monaco,Monaco" font-size="30.0" fill="#F7F7F7" transform="matrix(1.00, 0.00, -0.00, -1.00, 279.1, 448.0)"> </text><text xml:space="preserve" font-family="Monaco,Monaco" font-size="30.0" fill="#ADADAD" transform="matrix(1.00, 0.00, -0.00, -1.00, 297.0, 448.0)">#</text><text xml:space="preserve" font-family="Monaco,Monaco" font-size="30.0" fill="#ADADAD" transform="matrix(1.00, 0.00, -0.00, -1.00, 315.0, 448.0)"> </text><text xml:space="preserve" font-family="Monaco,Monaco" font-size="30.0" fill="#ADADAD" transform="matrix(1.00, 0.00, -0.00, -1.00, 333.0, 448.0)">=</text><text xml:space="preserve" font-family="Monaco,Monaco" font-size="30.0" fill="#ADADAD" transform="matrix(1.00, 0.00, -0.00, -1.00, 351.0, 448.0)">&gt;</text><text xml:space="preserve" font-family="Monaco,Monaco" font-size="30.0" fill="#ADADAD" transform="matrix(1.00, 0.00, -0.00, -1.00, 369.1, 448.0)"> </text><text xml:space="preserve" font-family="Monaco,Monaco" font-size="30.0" fill="#ADADAD" transform="matrix(1.00, 0.00, -0.00, -1.00, 387.1, 448.0)">t</text><text xml:space="preserve" font-family="Monaco,Monaco" font-size="30.0" fill="#ADADAD" transform="matrix(1.00, 0.00, -0.00, -1.00, 405.1, 448.0)">r</text><text xml:space="preserve" font-family="Monaco,Monaco" font-size="30.0" fill="#ADADAD" transform="matrix(1.00, 0.00, -0.00, -1.00, 423.1, 448.0)">u</text><text xml:space="preserve" font-family="Monaco,Monaco" font-size="30.0" fill="#ADADAD" transform="matrix(1.00, 0.00, -0.00, -1.00, 441.1, 448.0)">e</text><text xml:space="preserve" font-family="Monaco,Monaco" font-size="30.0" fill="#ADADAD" transform="matrix(1.00, 0.00, -0.00, -1.00, 459.1, 448.0)">	</text><text xml:space="preserve" font-family="Monaco,Monaco" font-size="30.0" fill="#3287CB" transform="matrix(1.00, 0.00, -0.00, -1.00, 99.0, 407.0)">1</text><text xml:space="preserve" font-family="Monaco,Monaco" font-size="30.0" fill="#F7F7F7" transform="matrix(1.00, 0.00, -0.00, -1.00, 117.0, 407.0)">.</text><text xml:space="preserve" font-family="Monaco,Monaco" font-size="30.0" fill="#F7F7F7" transform="matrix(1.00, 0.00, -0.00, -1.00, 135.0, 407.0)">z</text><text xml:space="preserve" font-family="Monaco,Monaco" font-size="30.0" fill="#F7F7F7" transform="matrix(1.00, 0.00, -0.00, -1.00, 153.0, 407.0)">e</text><text xml:space="preserve" font-family="Monaco,Monaco" font-size="30.0" fill="#F7F7F7" transform="matrix(1.00, 0.00, -0.00, -1.00, 171.0, 407.0)">r</text><text xml:space="preserve" font-family="Monaco,Monaco" font-size="30.0" fill="#F7F7F7" transform="matrix(1.00, 0.00, -0.00, -1.00, 189.0, 407.0)">o</text><text xml:space="preserve" font-family="Monaco,Monaco" font-size="30.0" fill="#F7F7F7" transform="matrix(1.00, 0.00, -0.00, -1.00, 207.0, 407.0)">?</text><text xml:space="preserve" font-family="Monaco,Monaco" font-size="30.0" fill="#F7F7F7" transform="matrix(1.00, 0.00, -0.00, -1.00, 225.0, 407.0)"> </text><text xml:space="preserve" font-family="Monaco,Monaco" font-size="30.0" fill="#F7F7F7" transform="matrix(1.00, 0.00, -0.00, -1.00, 243.0, 407.0)"> </text><text xml:space="preserve" font-family="Monaco,Monaco" font-size="30.0" fill="#F7F7F7" transform="matrix(1.00, 0.00, -0.00, -1.00, 261.1, 407.0)"> </text><text xml:space="preserve" font-family="Monaco,Monaco" font-size="30.0" fill="#F7F7F7" transform="matrix(1.00, 0.00, -0.00, -1.00, 279.1, 407.0)"> </text><text xml:space="preserve" font-family="Monaco,Monaco" font-size="30.0" fill="#ADADAD" transform="matrix(1.00, 0.00, -0.00, -1.00, 297.0, 407.0)">#</text><text xml:space="preserve" font-family="Monaco,Monaco" font-size="30.0" fill="#ADADAD" transform="matrix(1.00, 0.00, -0.00, -1.00, 315.0, 407.0)"> </text><text xml:space="preserve" font-family="Monaco,Monaco" font-size="30.0" fill="#ADADAD" transform="matrix(1.00, 0.00, -0.00, -1.00, 333.0, 407.0)">=</text><text xml:space="preserve" font-family="Monaco,Monaco" font-size="30.0" fill="#ADADAD" transform="matrix(1.00, 0.00, -0.00, -1.00, 351.0, 407.0)">&gt;</text><text xml:space="preserve" font-family="Monaco,Monaco" font-size="30.0" fill="#ADADAD" transform="matrix(1.00, 0.00, -0.00, -1.00, 369.1, 407.0)"> </text><text xml:space="preserve" font-family="Monaco,Monaco" font-size="30.0" fill="#ADADAD" transform="matrix(1.00, 0.00, -0.00, -1.00, 387.1, 407.0)">f</text><text xml:space="preserve" font-family="Monaco,Monaco" font-size="30.0" fill="#ADADAD" transform="matrix(1.00, 0.00, -0.00, -1.00, 405.1, 407.0)">a</text><text xml:space="preserve" font-family="Monaco,Monaco" font-size="30.0" fill="#ADADAD" transform="matrix(1.00, 0.00, -0.00, -1.00, 423.1, 407.0)">l</text><text xml:space="preserve" font-family="Monaco,Monaco" font-size="30.0" fill="#ADADAD" transform="matrix(1.00, 0.00, -0.00, -1.00, 441.1, 407.0)">s</text><text xml:space="preserve" font-family="Monaco,Monaco" font-size="30.0" fill="#ADADAD" transform="matrix(1.00, 0.00, -0.00, -1.00, 459.1, 407.0)">e</text><text xml:space="preserve" font-family="Monaco,Monaco" font-size="30.0" fill="#ADADAD" transform="matrix(1.00, 0.00, -0.00, -1.00, 477.1, 407.0)">	</text><text xml:space="preserve" font-family="Monaco,Monaco" font-size="30.0" fill="#3287CB" transform="matrix(1.00, 0.00, -0.00, -1.00, 99.0, 366.0)">1</text><text xml:space="preserve" font-family="Monaco,Monaco" font-size="30.0" fill="#F7F7F7" transform="matrix(1.00, 0.00, -0.00, -1.00, 117.0, 366.0)">.</text><text xml:space="preserve" font-family="Monaco,Monaco" font-size="30.0" fill="#F7F7F7" transform="matrix(1.00, 0.00, -0.00, -1.00, 135.0, 366.0)">a</text><text xml:space="preserve" font-family="Monaco,Monaco" font-size="30.0" fill="#F7F7F7" transform="matrix(1.00, 0.00, -0.00, -1.00, 153.0, 366.0)">b</text><text xml:space="preserve" font-family="Monaco,Monaco" font-size="30.0" fill="#F7F7F7" transform="matrix(1.00, 0.00, -0.00, -1.00, 171.0, 366.0)">s</text><text xml:space="preserve" font-family="Monaco,Monaco" font-size="30.0" fill="#F7F7F7" transform="matrix(1.00, 0.00, -0.00, -1.00, 189.0, 366.0)"> </text><text xml:space="preserve" font-family="Monaco,Monaco" font-size="30.0" fill="#F7F7F7" transform="matrix(1.00, 0.00, -0.00, -1.00, 207.0, 366.0)"> </text><text xml:space="preserve" font-family="Monaco,Monaco" font-size="30.0" fill="#F7F7F7" transform="matrix(1.00, 0.00, -0.00, -1.00, 225.0, 366.0)"> </text><text xml:space="preserve" font-family="Monaco,Monaco" font-size="30.0" fill="#F7F7F7" transform="matrix(1.00, 0.00, -0.00, -1.00, 243.0, 366.0)"> </text><text xml:space="preserve" font-family="Monaco,Monaco" font-size="30.0" fill="#F7F7F7" transform="matrix(1.00, 0.00, -0.00, -1.00, 261.1, 366.0)"> </text><text xml:space="preserve" font-family="Monaco,Monaco" font-size="30.0" fill="#F7F7F7" transform="matrix(1.00, 0.00, -0.00, -1.00, 279.1, 366.0)"> </text><text xml:space="preserve" font-family="Monaco,Monaco" font-size="30.0" fill="#ADADAD" transform="matrix(1.00, 0.00, -0.00, -1.00, 297.0, 366.0)">#</text><text xml:space="preserve" font-family="Monaco,Monaco" font-size="30.0" fill="#ADADAD" transform="matrix(1.00, 0.00, -0.00, -1.00, 315.0, 366.0)"> </text><text xml:space="preserve" font-family="Monaco,Monaco" font-size="30.0" fill="#ADADAD" transform="matrix(1.00, 0.00, -0.00, -1.00, 333.0, 366.0)">=</text><text xml:space="preserve" font-family="Monaco,Monaco" font-size="30.0" fill="#ADADAD" transform="matrix(1.00, 0.00, -0.00, -1.00, 351.0, 366.0)">&gt;</text><text xml:space="preserve" font-family="Monaco,Monaco" font-size="30.0" fill="#ADADAD" transform="matrix(1.00, 0.00, -0.00, -1.00, 369.1, 366.0)"> </text><text xml:space="preserve" font-family="Monaco,Monaco" font-size="30.0" fill="#ADADAD" transform="matrix(1.00, 0.00, -0.00, -1.00, 387.1, 366.0)">1</text><text xml:space="preserve" font-family="Monaco,Monaco" font-size="30.0" fill="#ADADAD" transform="matrix(1.00, 0.00, -0.00, -1.00, 405.1, 366.0)">	</text><text xml:space="preserve" font-family="Monaco,Monaco" font-size="30.0" fill="#E18964" transform="matrix(1.00, 0.00, -0.00, -1.00, 99.0, 325.0)">-</text><text xml:space="preserve" font-family="Monaco,Monaco" font-size="30.0" fill="#3287CB" transform="matrix(1.00, 0.00, -0.00, -1.00, 117.0, 325.0)">1</text><text xml:space="preserve" font-family="Monaco,Monaco" font-size="30.0" fill="#F7F7F7" transform="matrix(1.00, 0.00, -0.00, -1.00, 135.0, 325.0)">.</text><text xml:space="preserve" font-family="Monaco,Monaco" font-size="30.0" fill="#F7F7F7" transform="matrix(1.00, 0.00, -0.00, -1.00, 153.0, 325.0)">a</text><text xml:space="preserve" font-family="Monaco,Monaco" font-size="30.0" fill="#F7F7F7" transform="matrix(1.00, 0.00, -0.00, -1.00, 171.0, 325.0)">b</text><text xml:space="preserve" font-family="Monaco,Monaco" font-size="30.0" fill="#F7F7F7" transform="matrix(1.00, 0.00, -0.00, -1.00, 189.0, 325.0)">s</text><text xml:space="preserve" font-family="Monaco,Monaco" font-size="30.0" fill="#F7F7F7" transform="matrix(1.00, 0.00, -0.00, -1.00, 207.0, 325.0)"> </text><text xml:space="preserve" font-family="Monaco,Monaco" font-size="30.0" fill="#F7F7F7" transform="matrix(1.00, 0.00, -0.00, -1.00, 225.0, 325.0)"> </text><text xml:space="preserve" font-family="Monaco,Monaco" font-size="30.0" fill="#F7F7F7" transform="matrix(1.00, 0.00, -0.00, -1.00, 243.0, 325.0)"> </text><text xml:space="preserve" font-family="Monaco,Monaco" font-size="30.0" fill="#F7F7F7" transform="matrix(1.00, 0.00, -0.00, -1.00, 261.0, 325.0)"> </text><text xml:space="preserve" font-family="Monaco,Monaco" font-size="30.0" fill="#F7F7F7" transform="matrix(1.00, 0.00, -0.00, -1.00, 279.1, 325.0)"> </text><text xml:space="preserve" font-family="Monaco,Monaco" font-size="30.0" fill="#ADADAD" transform="matrix(1.00, 0.00, -0.00, -1.00, 297.0, 325.0)">#</text><text xml:space="preserve" font-family="Monaco,Monaco" font-size="30.0" fill="#ADADAD" transform="matrix(1.00, 0.00, -0.00, -1.00, 315.0, 325.0)"> </text><text xml:space="preserve" font-family="Monaco,Monaco" font-size="30.0" fill="#ADADAD" transform="matrix(1.00, 0.00, -0.00, -1.00, 333.0, 325.0)">=</text><text xml:space="preserve" font-family="Monaco,Monaco" font-size="30.0" fill="#ADADAD" transform="matrix(1.00, 0.00, -0.00, -1.00, 351.0, 325.0)">&gt;</text><text xml:space="preserve" font-family="Monaco,Monaco" font-size="30.0" fill="#ADADAD" transform="matrix(1.00, 0.00, -0.00, -1.00, 369.1, 325.0)"> </text><text xml:space="preserve" font-family="Monaco,Monaco" font-size="30.0" fill="#ADADAD" transform="matrix(1.00, 0.00, -0.00, -1.00, 387.1, 325.0)">1</text><text xml:space="preserve" font-family="Monaco,Monaco" font-size="30.0" fill="#ADADAD" transform="matrix(1.00, 0.00, -0.00, -1.00, 405.1, 325.0)">	</text><text xml:space="preserve" font-family="Monaco,Monaco" font-size="30.0" fill="#3287CB" transform="matrix(1.00, 0.00, -0.00, -1.00, 99.0, 284.0)">1</text><text xml:space="preserve" font-family="Monaco,Monaco" font-size="30.0" fill="#F7F7F7" transform="matrix(1.00, 0.00, -0.00, -1.00, 117.0, 284.0)">.</text><text xml:space="preserve" font-family="Monaco,Monaco" font-size="30.0" fill="#F7F7F7" transform="matrix(1.00, 0.00, -0.00, -1.00, 135.0, 284.0)">m</text><text xml:space="preserve" font-family="Monaco,Monaco" font-size="30.0" fill="#F7F7F7" transform="matrix(1.00, 0.00, -0.00, -1.00, 153.0, 284.0)">e</text><text xml:space="preserve" font-family="Monaco,Monaco" font-size="30.0" fill="#F7F7F7" transform="matrix(1.00, 0.00, -0.00, -1.00, 171.0, 284.0)">t</text><text xml:space="preserve" font-family="Monaco,Monaco" font-size="30.0" fill="#F7F7F7" transform="matrix(1.00, 0.00, -0.00, -1.00, 189.0, 284.0)">h</text><text xml:space="preserve" font-family="Monaco,Monaco" font-size="30.0" fill="#F7F7F7" transform="matrix(1.00, 0.00, -0.00, -1.00, 207.0, 284.0)">o</text><text xml:space="preserve" font-family="Monaco,Monaco" font-size="30.0" fill="#F7F7F7" transform="matrix(1.00, 0.00, -0.00, -1.00, 225.0, 284.0)">d</text><text xml:space="preserve" font-family="Monaco,Monaco" font-size="30.0" fill="#F7F7F7" transform="matrix(1.00, 0.00, -0.00, -1.00, 243.0, 284.0)">s</text><text xml:space="preserve" font-family="Monaco,Monaco" font-size="30.0" fill="#F7F7F7" transform="matrix(1.00, 0.00, -0.00, -1.00, 261.1, 284.0)"> </text><text xml:space="preserve" font-family="Monaco,Monaco" font-size="30.0" fill="#F7F7F7" transform="matrix(1.00, 0.00, -0.00, -1.00, 279.1, 284.0)"> </text><text xml:space="preserve" font-family="Monaco,Monaco" font-size="30.0" fill="#ADADAD" transform="matrix(1.00, 0.00, -0.00, -1.00, 297.0, 284.0)">#</text><text xml:space="preserve" font-family="Monaco,Monaco" font-size="30.0" fill="#ADADAD" transform="matrix(1.00, 0.00, -0.00, -1.00, 315.0, 284.0)"> </text><text xml:space="preserve" font-family="Monaco,Monaco" font-size="30.0" fill="#ADADAD" transform="matrix(1.00, 0.00, -0.00, -1.00, 333.0, 284.0)">=</text><text xml:space="preserve" font-family="Monaco,Monaco" font-size="30.0" fill="#ADADAD" transform="matrix(1.00, 0.00, -0.00, -1.00, 351.0, 284.0)">&gt;</text><text xml:space="preserve" font-family="Monaco,Monaco" font-size="30.0" fill="#ADADAD" transform="matrix(1.00, 0.00, -0.00, -1.00, 369.1, 284.0)"> </text><text xml:space="preserve" font-family="Monaco,Monaco" font-size="30.0" fill="#ADADAD" transform="matrix(1.00, 0.00, -0.00, -1.00, 387.1, 284.0)">l</text><text xml:space="preserve" font-family="Monaco,Monaco" font-size="30.0" fill="#ADADAD" transform="matrix(1.00, 0.00, -0.00, -1.00, 405.1, 284.0)">i</text><text xml:space="preserve" font-family="Monaco,Monaco" font-size="30.0" fill="#ADADAD" transform="matrix(1.00, 0.00, -0.00, -1.00, 423.1, 284.0)">s</text><text xml:space="preserve" font-family="Monaco,Monaco" font-size="30.0" fill="#ADADAD" transform="matrix(1.00, 0.00, -0.00, -1.00, 441.1, 284.0)">t</text><text xml:space="preserve" font-family="Monaco,Monaco" font-size="30.0" fill="#ADADAD" transform="matrix(1.00, 0.00, -0.00, -1.00, 459.1, 284.0)"> </text><text xml:space="preserve" font-family="Monaco,Monaco" font-size="30.0" fill="#ADADAD" transform="matrix(1.00, 0.00, -0.00, -1.00, 477.1, 284.0)">o</text><text xml:space="preserve" font-family="Monaco,Monaco" font-size="30.0" fill="#ADADAD" transform="matrix(1.00, 0.00, -0.00, -1.00, 495.1, 284.0)">f</text><text xml:space="preserve" font-family="Monaco,Monaco" font-size="30.0" fill="#ADADAD" transform="matrix(1.00, 0.00, -0.00, -1.00, 513.1, 284.0)"> </text><text xml:space="preserve" font-family="Monaco,Monaco" font-size="30.0" fill="#ADADAD" transform="matrix(1.00, 0.00, -0.00, -1.00, 531.1, 284.0)">m</text><text xml:space="preserve" font-family="Monaco,Monaco" font-size="30.0" fill="#ADADAD" transform="matrix(1.00, 0.00, -0.00, -1.00, 549.1, 284.0)">e</text><text xml:space="preserve" font-family="Monaco,Monaco" font-size="30.0" fill="#ADADAD" transform="matrix(1.00, 0.00, -0.00, -1.00, 567.1, 284.0)">t</text><text xml:space="preserve" font-family="Monaco,Monaco" font-size="30.0" fill="#ADADAD" transform="matrix(1.00, 0.00, -0.00, -1.00, 585.1, 284.0)">h</text><text xml:space="preserve" font-family="Monaco,Monaco" font-size="30.0" fill="#ADADAD" transform="matrix(1.00, 0.00, -0.00, -1.00, 603.1, 284.0)">o</text><text xml:space="preserve" font-family="Monaco,Monaco" font-size="30.0" fill="#ADADAD" transform="matrix(1.00, 0.00, -0.00, -1.00, 621.1, 284.0)">d</text><text xml:space="preserve" font-family="Monaco,Monaco" font-size="30.0" fill="#ADADAD" transform="matrix(1.00, 0.00, -0.00, -1.00, 639.1, 284.0)">s</text><text xml:space="preserve" font-family="Monaco,Monaco" font-size="30.0" fill="#ADADAD" transform="matrix(1.00, 0.00, -0.00, -1.00, 657.2, 284.0)"> </text><text xml:space="preserve" font-family="Monaco,Monaco" font-size="30.0" fill="#ADADAD" transform="matrix(1.00, 0.00, -0.00, -1.00, 675.2, 284.0)">f</text><text xml:space="preserve" font-family="Monaco,Monaco" font-size="30.0" fill="#ADADAD" transform="matrix(1.00, 0.00, -0.00, -1.00, 693.2, 284.0)">o</text><text xml:space="preserve" font-family="Monaco,Monaco" font-size="30.0" fill="#ADADAD" transform="matrix(1.00, 0.00, -0.00, -1.00, 711.2, 284.0)">r</text><text xml:space="preserve" font-family="Monaco,Monaco" font-size="30.0" fill="#ADADAD" transform="matrix(1.00, 0.00, -0.00, -1.00, 729.2, 284.0)"> </text><text xml:space="preserve" font-family="Monaco,Monaco" font-size="30.0" fill="#ADADAD" transform="matrix(1.00, 0.00, -0.00, -1.00, 747.2, 284.0)">o</text><text xml:space="preserve" font-family="Monaco,Monaco" font-size="30.0" fill="#ADADAD" transform="matrix(1.00, 0.00, -0.00, -1.00, 765.2, 284.0)">b</text><text xml:space="preserve" font-family="Monaco,Monaco" font-size="30.0" fill="#ADADAD" transform="matrix(1.00, 0.00, -0.00, -1.00, 783.2, 284.0)">j</text><text xml:space="preserve" font-family="Monaco,Monaco" font-size="30.0" fill="#ADADAD" transform="matrix(1.00, 0.00, -0.00, -1.00, 801.2, 284.0)">e</text><text xml:space="preserve" font-family="Monaco,Monaco" font-size="30.0" fill="#ADADAD" transform="matrix(1.00, 0.00, -0.00, -1.00, 819.2, 284.0)">c</text><text xml:space="preserve" font-family="Monaco,Monaco" font-size="30.0" fill="#ADADAD" transform="matrix(1.00, 0.00, -0.00, -1.00, 837.2, 284.0)">t</text><text xml:space="preserve" font-family="Monaco,Monaco" font-size="30.0" fill="#ADADAD" transform="matrix(1.00, 0.00, -0.00, -1.00, 855.2, 284.0)"> </text><text xml:space="preserve" font-family="Monaco,Monaco" font-size="30.0" fill="#ADADAD" transform="matrix(1.00, 0.00, -0.00, -1.00, 873.2, 284.0)">1</text><text xml:space="preserve" font-family="Monaco,Monaco" font-size="30.0" fill="#ADADAD" transform="matrix(1.00, 0.00, -0.00, -1.00, 891.2, 284.0)">	</text><text xml:space="preserve" font-family="Monaco,Monaco" font-size="30.0" fill="#3287CB" transform="matrix(1.00, 0.00, -0.00, -1.00, 99.0, 243.0)">2</text><text xml:space="preserve" font-family="Monaco,Monaco" font-size="30.0" fill="#F7F7F7" transform="matrix(1.00, 0.00, -0.00, -1.00, 117.0, 243.0)">.</text><text xml:space="preserve" font-family="Monaco,Monaco" font-size="30.0" fill="#E18964" transform="matrix(1.00, 0.00, -0.00, -1.00, 135.0, 243.0)">+</text><text xml:space="preserve" font-family="Monaco,Monaco" font-size="30.0" fill="#F7F7F7" transform="matrix(1.00, 0.00, -0.00, -1.00, 153.0, 243.0)">(</text><text xml:space="preserve" font-family="Monaco,Monaco" font-size="30.0" fill="#3287CB" transform="matrix(1.00, 0.00, -0.00, -1.00, 171.0, 243.0)">3</text><text xml:space="preserve" font-family="Monaco,Monaco" font-size="30.0" fill="#F7F7F7" transform="matrix(1.00, 0.00, -0.00, -1.00, 189.0, 243.0)">)</text><text xml:space="preserve" font-family="Monaco,Monaco" font-size="30.0" fill="#F7F7F7" transform="matrix(1.00, 0.00, -0.00, -1.00, 207.0, 243.0)"> </text><text xml:space="preserve" font-family="Monaco,Monaco" font-size="30.0" fill="#F7F7F7" transform="matrix(1.00, 0.00, -0.00, -1.00, 225.0, 243.0)"> </text><text xml:space="preserve" font-family="Monaco,Monaco" font-size="30.0" fill="#F7F7F7" transform="matrix(1.00, 0.00, -0.00, -1.00, 243.0, 243.0)"> </text><text xml:space="preserve" font-family="Monaco,Monaco" font-size="30.0" fill="#F7F7F7" transform="matrix(1.00, 0.00, -0.00, -1.00, 261.0, 243.0)"> </text><text xml:space="preserve" font-family="Monaco,Monaco" font-size="30.0" fill="#F7F7F7" transform="matrix(1.00, 0.00, -0.00, -1.00, 279.0, 243.0)"> </text><text xml:space="preserve" font-family="Monaco,Monaco" font-size="30.0" fill="#ADADAD" transform="matrix(1.00, 0.00, -0.00, -1.00, 297.0, 243.0)">#</text><text xml:space="preserve" font-family="Monaco,Monaco" font-size="30.0" fill="#ADADAD" transform="matrix(1.00, 0.00, -0.00, -1.00, 315.0, 243.0)"> </text><text xml:space="preserve" font-family="Monaco,Monaco" font-size="30.0" fill="#ADADAD" transform="matrix(1.00, 0.00, -0.00, -1.00, 333.0, 243.0)">=</text><text xml:space="preserve" font-family="Monaco,Monaco" font-size="30.0" fill="#ADADAD" transform="matrix(1.00, 0.00, -0.00, -1.00, 351.0, 243.0)">&gt;</text><text xml:space="preserve" font-family="Monaco,Monaco" font-size="30.0" fill="#ADADAD" transform="matrix(1.00, 0.00, -0.00, -1.00, 369.1, 243.0)"> </text><text xml:space="preserve" font-family="Monaco,Monaco" font-size="30.0" fill="#ADADAD" transform="matrix(1.00, 0.00, -0.00, -1.00, 387.1, 243.0)">5</text><text xml:space="preserve" font-family="Monaco,Monaco" font-size="30.0" fill="#ADADAD" transform="matrix(1.00, 0.00, -0.00, -1.00, 405.1, 243.0)"> </text><text xml:space="preserve" font-family="Monaco,Monaco" font-size="30.0" fill="#ADADAD" transform="matrix(1.00, 0.00, -0.00, -1.00, 423.1, 243.0)"> </text><text xml:space="preserve" font-family="Monaco,Monaco" font-size="30.0" fill="#ADADAD" transform="matrix(1.00, 0.00, -0.00, -1.00, 441.1, 243.0)">(</text><text xml:space="preserve" font-family="Monaco,Monaco" font-size="30.0" fill="#ADADAD" transform="matrix(1.00, 0.00, -0.00, -1.00, 459.1, 243.0)">s</text><text xml:space="preserve" font-family="Monaco,Monaco" font-size="30.0" fill="#ADADAD" transform="matrix(1.00, 0.00, -0.00, -1.00, 477.1, 243.0)">a</text><text xml:space="preserve" font-family="Monaco,Monaco" font-size="30.0" fill="#ADADAD" transform="matrix(1.00, 0.00, -0.00, -1.00, 495.1, 243.0)">m</text><text xml:space="preserve" font-family="Monaco,Monaco" font-size="30.0" fill="#ADADAD" transform="matrix(1.00, 0.00, -0.00, -1.00, 513.1, 243.0)">e</text><text xml:space="preserve" font-family="Monaco,Monaco" font-size="30.0" fill="#ADADAD" transform="matrix(1.00, 0.00, -0.00, -1.00, 531.1, 243.0)"> </text><text xml:space="preserve" font-family="Monaco,Monaco" font-size="30.0" fill="#ADADAD" transform="matrix(1.00, 0.00, -0.00, -1.00, 549.1, 243.0)">a</text><text xml:space="preserve" font-family="Monaco,Monaco" font-size="30.0" fill="#ADADAD" transform="matrix(1.00, 0.00, -0.00, -1.00, 567.1, 243.0)">s</text><text xml:space="preserve" font-family="Monaco,Monaco" font-size="30.0" fill="#ADADAD" transform="matrix(1.00, 0.00, -0.00, -1.00, 585.1, 243.0)"> </text><text xml:space="preserve" font-family="Monaco,Monaco" font-size="30.0" fill="#ADADAD" transform="matrix(1.00, 0.00, -0.00, -1.00, 603.1, 243.0)">2</text><text xml:space="preserve" font-family="Monaco,Monaco" font-size="30.0" fill="#ADADAD" transform="matrix(1.00, 0.00, -0.00, -1.00, 621.1, 243.0)">+</text><text xml:space="preserve" font-family="Monaco,Monaco" font-size="30.0" fill="#ADADAD" transform="matrix(1.00, 0.00, -0.00, -1.00, 639.1, 243.0)">3</text><text xml:space="preserve" font-family="Monaco,Monaco" font-size="30.0" fill="#ADADAD" transform="matrix(1.00, 0.00, -0.00, -1.00, 657.2, 243.0)">)</text><text xml:space="preserve" font-family="Monaco,Monaco" font-size="30.0" fill="#ADADAD" transform="matrix(1.00, 0.00, -0.00, -1.00, 675.2, 243.0)">	</text><text xml:space="preserve" font-family="Monaco,Monaco" font-size="30.0" fill="#3287CB" transform="matrix(1.00, 0.00, -0.00, -1.00, 99.0, 202.0)">1</text><text xml:space="preserve" font-family="Monaco,Monaco" font-size="30.0" fill="#3287CB" transform="matrix(1.00, 0.00, -0.00, -1.00, 117.0, 202.0)">0</text><text xml:space="preserve" font-family="Monaco,Monaco" font-size="30.0" fill="#F7F7F7" transform="matrix(1.00, 0.00, -0.00, -1.00, 135.0, 202.0)">.</text><text xml:space="preserve" font-family="Monaco,Monaco" font-size="30.0" fill="#F7F7F7" transform="matrix(1.00, 0.00, -0.00, -1.00, 153.0, 202.0)">c</text><text xml:space="preserve" font-family="Monaco,Monaco" font-size="30.0" fill="#F7F7F7" transform="matrix(1.00, 0.00, -0.00, -1.00, 171.0, 202.0)">l</text><text xml:space="preserve" font-family="Monaco,Monaco" font-size="30.0" fill="#F7F7F7" transform="matrix(1.00, 0.00, -0.00, -1.00, 189.0, 202.0)">a</text><text xml:space="preserve" font-family="Monaco,Monaco" font-size="30.0" fill="#F7F7F7" transform="matrix(1.00, 0.00, -0.00, -1.00, 207.0, 202.0)">s</text><text xml:space="preserve" font-family="Monaco,Monaco" font-size="30.0" fill="#F7F7F7" transform="matrix(1.00, 0.00, -0.00, -1.00, 225.0, 202.0)">s</text><text xml:space="preserve" font-family="Monaco,Monaco" font-size="30.0" fill="#F7F7F7" transform="matrix(1.00, 0.00, -0.00, -1.00, 243.0, 202.0)"> </text><text xml:space="preserve" font-family="Monaco,Monaco" font-size="30.0" fill="#F7F7F7" transform="matrix(1.00, 0.00, -0.00, -1.00, 261.0, 202.0)"> </text><text xml:space="preserve" font-family="Monaco,Monaco" font-size="30.0" fill="#F7F7F7" transform="matrix(1.00, 0.00, -0.00, -1.00, 279.1, 202.0)"> </text><text xml:space="preserve" font-family="Monaco,Monaco" font-size="30.0" fill="#ADADAD" transform="matrix(1.00, 0.00, -0.00, -1.00, 297.0, 202.0)">#</text><text xml:space="preserve" font-family="Monaco,Monaco" font-size="30.0" fill="#ADADAD" transform="matrix(1.00, 0.00, -0.00, -1.00, 315.0, 202.0)"> </text><text xml:space="preserve" font-family="Monaco,Monaco" font-size="30.0" fill="#ADADAD" transform="matrix(1.00, 0.00, -0.00, -1.00, 333.0, 202.0)">=</text><text xml:space="preserve" font-family="Monaco,Monaco" font-size="30.0" fill="#ADADAD" transform="matrix(1.00, 0.00, -0.00, -1.00, 351.0, 202.0)">&gt;</text><text xml:space="preserve" font-family="Monaco,Monaco" font-size="30.0" fill="#ADADAD" transform="matrix(1.00, 0.00, -0.00, -1.00, 369.1, 202.0)"> </text><text xml:space="preserve" font-family="Monaco,Monaco" font-size="30.0" fill="#ADADAD" transform="matrix(1.00, 0.00, -0.00, -1.00, 387.1, 202.0)">F</text><text xml:space="preserve" font-family="Monaco,Monaco" font-size="30.0" fill="#ADADAD" transform="matrix(1.00, 0.00, -0.00, -1.00, 405.1, 202.0)">i</text><text xml:space="preserve" font-family="Monaco,Monaco" font-size="30.0" fill="#ADADAD" transform="matrix(1.00, 0.00, -0.00, -1.00, 423.1, 202.0)">x</text><text xml:space="preserve" font-family="Monaco,Monaco" font-size="30.0" fill="#ADADAD" transform="matrix(1.00, 0.00, -0.00, -1.00, 441.1, 202.0)">n</text><text xml:space="preserve" font-family="Monaco,Monaco" font-size="30.0" fill="#ADADAD" transform="matrix(1.00, 0.00, -0.00, -1.00, 459.1, 202.0)">u</text><text xml:space="preserve" font-family="Monaco,Monaco" font-size="30.0" fill="#ADADAD" transform="matrix(1.00, 0.00, -0.00, -1.00, 477.1, 202.0)">m</text><text xml:space="preserve" font-family="Monaco,Monaco" font-size="30.0" fill="#ADADAD" transform="matrix(1.00, 0.00, -0.00, -1.00, 495.1, 202.0)">	</text><text xml:space="preserve" font-family="Monaco,Monaco" font-size="30.0" fill="#F7F7F7" transform="matrix(1.00, 0.00, -0.00, -1.00, 99.0, 161.0)">(</text><text xml:space="preserve" font-family="Monaco,Monaco" font-size="30.0" fill="#3287CB" transform="matrix(1.00, 0.00, -0.00, -1.00, 117.0, 161.0)">1</text><text xml:space="preserve" font-family="Monaco,Monaco" font-size="30.0" fill="#3287CB" transform="matrix(1.00, 0.00, -0.00, -1.00, 135.0, 161.0)">0</text><text xml:space="preserve" font-family="Monaco,Monaco" font-size="30.0" fill="#E18964" transform="matrix(1.00, 0.00, -0.00, -1.00, 153.0, 161.0)">*</text><text xml:space="preserve" font-family="Monaco,Monaco" font-size="30.0" fill="#E18964" transform="matrix(1.00, 0.00, -0.00, -1.00, 171.0, 161.0)">*</text><text xml:space="preserve" font-family="Monaco,Monaco" font-size="30.0" fill="#3287CB" transform="matrix(1.00, 0.00, -0.00, -1.00, 189.0, 161.0)">1</text><text xml:space="preserve" font-family="Monaco,Monaco" font-size="30.0" fill="#3287CB" transform="matrix(1.00, 0.00, -0.00, -1.00, 207.0, 161.0)">0</text><text xml:space="preserve" font-family="Monaco,Monaco" font-size="30.0" fill="#3287CB" transform="matrix(1.00, 0.00, -0.00, -1.00, 225.0, 161.0)">0</text><text xml:space="preserve" font-family="Monaco,Monaco" font-size="30.0" fill="#F7F7F7" transform="matrix(1.00, 0.00, -0.00, -1.00, 243.0, 161.0)">)</text><text xml:space="preserve" font-family="Monaco,Monaco" font-size="30.0" fill="#F7F7F7" transform="matrix(1.00, 0.00, -0.00, -1.00, 261.0, 161.0)">.</text><text xml:space="preserve" font-family="Monaco,Monaco" font-size="30.0" fill="#F7F7F7" transform="matrix(1.00, 0.00, -0.00, -1.00, 279.0, 161.0)">c</text><text xml:space="preserve" font-family="Monaco,Monaco" font-size="30.0" fill="#F7F7F7" transform="matrix(1.00, 0.00, -0.00, -1.00, 297.0, 161.0)">l</text><text xml:space="preserve" font-family="Monaco,Monaco" font-size="30.0" fill="#F7F7F7" transform="matrix(1.00, 0.00, -0.00, -1.00, 315.0, 161.0)">a</text><text xml:space="preserve" font-family="Monaco,Monaco" font-size="30.0" fill="#F7F7F7" transform="matrix(1.00, 0.00, -0.00, -1.00, 333.1, 161.0)">s</text><text xml:space="preserve" font-family="Monaco,Monaco" font-size="30.0" fill="#F7F7F7" transform="matrix(1.00, 0.00, -0.00, -1.00, 351.1, 161.0)">s</text><text xml:space="preserve" font-family="Monaco,Monaco" font-size="30.0" fill="#F7F7F7" transform="matrix(1.00, 0.00, -0.00, -1.00, 369.1, 161.0)"> </text><text xml:space="preserve" font-family="Monaco,Monaco" font-size="30.0" fill="#ADADAD" transform="matrix(1.00, 0.00, -0.00, -1.00, 387.0, 161.0)">#</text><text xml:space="preserve" font-family="Monaco,Monaco" font-size="30.0" fill="#ADADAD" transform="matrix(1.00, 0.00, -0.00, -1.00, 405.1, 161.0)"> </text><text xml:space="preserve" font-family="Monaco,Monaco" font-size="30.0" fill="#ADADAD" transform="matrix(1.00, 0.00, -0.00, -1.00, 423.1, 161.0)">=</text><text xml:space="preserve" font-family="Monaco,Monaco" font-size="30.0" fill="#ADADAD" transform="matrix(1.00, 0.00, -0.00, -1.00, 441.1, 161.0)">&gt;</text><text xml:space="preserve" font-family="Monaco,Monaco" font-size="30.0" fill="#ADADAD" transform="matrix(1.00, 0.00, -0.00, -1.00, 459.1, 161.0)"> </text><text xml:space="preserve" font-family="Monaco,Monaco" font-size="30.0" fill="#ADADAD" transform="matrix(1.00, 0.00, -0.00, -1.00, 477.1, 161.0)">B</text><text xml:space="preserve" font-family="Monaco,Monaco" font-size="30.0" fill="#ADADAD" transform="matrix(1.00, 0.00, -0.00, -1.00, 495.1, 161.0)">i</text><text xml:space="preserve" font-family="Monaco,Monaco" font-size="30.0" fill="#ADADAD" transform="matrix(1.00, 0.00, -0.00, -1.00, 513.1, 161.0)">g</text><text xml:space="preserve" font-family="Monaco,Monaco" font-size="30.0" fill="#ADADAD" transform="matrix(1.00, 0.00, -0.00, -1.00, 531.1, 161.0)">n</text><text xml:space="preserve" font-family="Monaco,Monaco" font-size="30.0" fill="#ADADAD" transform="matrix(1.00, 0.00, -0.00, -1.00, 549.1, 161.0)">u</text><text xml:space="preserve" font-family="Monaco,Monaco" font-size="30.0" fill="#ADADAD" transform="matrix(1.00, 0.00, -0.00, -1.00, 567.1, 161.0)">m</text></g></g></g></svg>